<svg xmlns="http://www.w3.org/2000/svg" width="445.37" height="383.958" viewBox="0 0 445.37 383.958">
  <g id="Group_92" data-name="Group 92" transform="translate(-396.13 -2795)">
    <g id="Group_49" data-name="Group 49" transform="translate(754.174 2894.311)">
      <path id="Path_113" data-name="Path 113" d="M3617.242,1260.219a35.963,35.963,0,0,0-5.781,8.48,55.275,55.275,0,0,0-2.864,6.8c-.375-.207-.749-.419-1.118-.637-.28-.166-.56-.335-.835-.506a45.056,45.056,0,0,1-6.389-4.811A43.469,43.469,0,0,1,3617.242,1260.219Z" transform="translate(-3585.526 -1258.589)" fill="#7ccfe5"/>
      <path id="Path_114" data-name="Path 114" d="M3503.842,1344.487a48.478,48.478,0,0,0,7.157,5.465c.309.191.6.393.88.557.536.315,1.077.519,1.624.812a82.949,82.949,0,0,0-3.193,22.091H3491.42A43.036,43.036,0,0,1,3503.842,1344.487Z" transform="translate(-3491.42 -1331.452)" fill="#7ccfe5"/>
      <path id="Path_115" data-name="Path 115" d="M3491.528,1582.143h18.881a85.412,85.412,0,0,0,3.187,21.978c-.545.292-1.085.667-1.62.981-.283.165-.58.379-.881.566a47.281,47.281,0,0,0-7.2,5.323A43.669,43.669,0,0,1,3491.528,1582.143Z" transform="translate(-3491.514 -1536.945)" fill="#7ccfe5"/>
      <path id="Path_116" data-name="Path 116" d="M3599.939,1774.425a45.014,45.014,0,0,1,6.43-4.849c.277-.172.557-.341.835-.506.371-.219.744-.43,1.12-.638a55.342,55.342,0,0,0,2.864,6.8,35.979,35.979,0,0,0,5.788,8.488A43.48,43.48,0,0,1,3599.939,1774.425Z" transform="translate(-3585.252 -1698.022)" fill="#7ccfe5"/>
      <path id="Path_117" data-name="Path 117" d="M3695.971,1750.376a1.061,1.061,0,0,0-.148-.01c-1.12-.051-2.179-.15-3.293-.289-3.757-1.93-7.19-5.862-10.042-11.533a52.074,52.074,0,0,1-2.635-6.322,44.319,44.319,0,0,1,9.649-3.289c.3-.066.487-.13.815-.194a47.761,47.761,0,0,1,5.654-.73Z" transform="translate(-3654.351 -1663.069)" fill="#7ccfe5"/>
      <path id="Path_118" data-name="Path 118" d="M3670.8,1598.719a48.875,48.875,0,0,0-6.153.768c-.3.056-.562.122-.929.2a46.585,46.585,0,0,0-10.026,3.2,82.305,82.305,0,0,1-2.95-20.75H3670.8Z" transform="translate(-3629.18 -1536.945)" fill="#7ccfe5"/>
      <path id="Path_119" data-name="Path 119" d="M3670.759,1425.007h-20.065a79.659,79.659,0,0,1,2.989-20.849,47.372,47.372,0,0,0,10.056,3.405c.368.079.564.173.861.228a49.02,49.02,0,0,0,6.158.8Z" transform="translate(-3629.138 -1383.047)" fill="#7ccfe5"/>
      <path id="Path_120" data-name="Path 120" d="M3695.867,1270.612a47.665,47.665,0,0,1-5.649-.73c-.332-.064-.575-.128-.879-.195a43.97,43.97,0,0,1-9.606-3.289,52.168,52.168,0,0,1,2.667-6.322c2.852-5.671,6.325-9.6,10.082-11.532,1.116-.139,2.116-.238,3.241-.289a1.074,1.074,0,0,0,.145-.01Z" transform="translate(-3654.246 -1248.234)" fill="#7ccfe5"/>
      <path id="Path_121" data-name="Path 121" d="M3997.18,1379.362h-18.891a84.443,84.443,0,0,0-2.943-21.2c.568-.275,1.132-.505,1.69-.8.318-.171.612-.3.9-.463a48.487,48.487,0,0,0,7.721-5.524A43.208,43.208,0,0,1,3997.18,1379.362Z" transform="translate(-3909.854 -1337.403)" fill="#7ccfe5"/>
      <path id="Path_122" data-name="Path 122" d="M3920.233,1270.389a44.891,44.891,0,0,1-6.923,4.846c-.307.174-.584.328-.851.471-.407.219-.817.43-1.23.636a56.1,56.1,0,0,0-3.162-7.672,35.95,35.95,0,0,0-5.785-8.484A43.364,43.364,0,0,1,3920.233,1270.389Z" transform="translate(-3846.677 -1258.56)" fill="#7ccfe5"/>
      <path id="Path_123" data-name="Path 123" d="M3824.729,1248.172c.249.006.4.011.579.02,1.12.051,2.262.15,3.378.289,3.756,1.93,7.23,5.862,10.082,11.532a52.922,52.922,0,0,1,2.915,7.088,44.2,44.2,0,0,1-9.821,2.888c-.3.053-.636.1-.975.152a46.143,46.143,0,0,1-6.158.49Z" transform="translate(-3779.62 -1248.172)" fill="#7ccfe5"/>
      <path id="Path_124" data-name="Path 124" d="M3824.729,1413.566a51.8,51.8,0,0,0,6.575-.511c.389-.057.724-.108,1.011-.158a47.684,47.684,0,0,0,10.294-3.072,81.552,81.552,0,0,1,2.781,20.082h-20.661Z" transform="translate(-3779.62 -1387.947)" fill="#7ccfe5"/>
      <path id="Path_125" data-name="Path 125" d="M3824.729,1582.143h20.654a80.916,80.916,0,0,1-2.765,19.983,47.143,47.143,0,0,0-10.279-2.885c-.293-.051-.645-.066-1.034-.123a51.6,51.6,0,0,0-6.576-.476Z" transform="translate(-3779.62 -1536.945)" fill="#7ccfe5"/>
      <path id="Path_126" data-name="Path 126" d="M3828.7,1749.546c-1.115.138-2.276.238-3.4.289-.177.009-.323.013-.572.02v-22.461a46.18,46.18,0,0,1,6.163.491c.333.049.657.1.962.153a44.269,44.269,0,0,1,9.825,2.887,52.866,52.866,0,0,1-2.907,7.088C3835.92,1743.684,3832.458,1747.616,3828.7,1749.546Z" transform="translate(-3779.62 -1662.538)" fill="#7ccfe5"/>
      <path id="Path_127" data-name="Path 127" d="M3902.262,1778.12a35.973,35.973,0,0,0,5.788-8.487,56.065,56.065,0,0,0,3.162-7.672c.413.207.825.418,1.233.637.264.141.542.295.849.47a44.891,44.891,0,0,1,6.968,4.885A43.483,43.483,0,0,1,3902.262,1778.12Z" transform="translate(-3846.66 -1692.427)" fill="#7ccfe5"/>
      <path id="Path_128" data-name="Path 128" d="M3985.7,1610.06a47.482,47.482,0,0,0-7.763-5.389c-.281-.159-.574-.285-.9-.457-.558-.3-1.122-.711-1.69-.986a85.368,85.368,0,0,0,2.937-21.085h18.882A43.808,43.808,0,0,1,3985.7,1610.06Z" transform="translate(-3909.854 -1536.945)" fill="#7ccfe5"/>
    </g>
    <rect id="Rectangle_79" data-name="Rectangle 79" width="85.988" height="31.793" transform="translate(577.1 3137.532)" fill="#696a7f"/>
    <g id="Group_50" data-name="Group 50" transform="translate(551.492 3166.25)">
      <path id="Path_129" data-name="Path 129" d="M2143.127,3270.426H2037.372l-11.366,9.468h128.488Z" transform="translate(-2021.647 -3268.682)" fill="#fff"/>
      <path id="Path_130" data-name="Path 130" d="M2131,3270.246H1993.8l15.155-12.708h106.9Zm-128.488-3.239h119.771l-7.577-6.229H2010.095Z" transform="translate(-1993.8 -3257.538)" fill="#364756"/>
    </g>
    <g id="Group_51" data-name="Group 51" transform="translate(459.128 2917.383)">
      <rect id="Rectangle_80" data-name="Rectangle 80" width="318.781" height="221.911" rx="54.75" transform="translate(1.576 1.576)" fill="#fff"/>
      <path id="Path_131" data-name="Path 131" d="M1624.271,1643.715H1320.31a9,9,0,0,1-8.986-8.986V1427.639a9,9,0,0,1,8.986-8.985h303.961a9,9,0,0,1,8.986,8.985V1634.73A9,9,0,0,1,1624.271,1643.715ZM1320.31,1421.8a5.84,5.84,0,0,0-5.834,5.834V1634.73a5.84,5.84,0,0,0,5.834,5.834h303.961a5.84,5.84,0,0,0,5.834-5.834V1427.639a5.84,5.84,0,0,0-5.834-5.834Z" transform="translate(-1311.324 -1418.653)" fill="#364756"/>
    </g>
    <rect id="Rectangle_81" data-name="Rectangle 81" width="297.035" height="172.023" rx="22.265" transform="translate(471.244 2929.196)" fill="#696a7f"/>
    <g id="Group_52" data-name="Group 52" transform="translate(585.538 3115.839)">
      <circle id="Ellipse_10" data-name="Ellipse 10" cx="2.409" cy="2.409" r="2.409" transform="translate(32.147 2.324)" fill="#696a7f"/>
      <circle id="Ellipse_11" data-name="Ellipse 11" cx="3.439" cy="3.439" r="3.439" transform="matrix(0.23, -0.973, 0.973, 0.23, 45.45, 7.29)" fill="#696a7f"/>
      <circle id="Ellipse_12" data-name="Ellipse 12" cx="3.439" cy="3.439" r="3.439" transform="matrix(0.526, -0.851, 0.851, 0.526, 59.886, 5.85)" fill="#696a7f"/>
      <circle id="Ellipse_13" data-name="Ellipse 13" cx="3.439" cy="3.439" r="3.439" transform="matrix(0.924, -0.383, 0.383, 0.924, 0, 2.872)" fill="#696a7f"/>
      <circle id="Ellipse_14" data-name="Ellipse 14" cx="3.439" cy="3.439" r="3.439" transform="matrix(0.924, -0.383, 0.383, 0.924, 15.031, 2.872)" fill="#696a7f"/>
    </g>
    <path id="Path_132" data-name="Path 132" d="M1557.246,1678.584H1403.178c-1.661,0-3.169-.792-3.169-2.461V1509.536a3.038,3.038,0,0,1,3.169-2.878h39.493Z" transform="translate(-928.879 1422.635)" fill="#fff" opacity="0.35"/>
    <path id="Path_133" data-name="Path 133" d="M2107.86,1678.584h-32.569l-114.575-171.926H1992.9Z" transform="translate(-1413.702 1422.635)" fill="#fff" opacity="0.35"/>
    <rect id="Rectangle_82" data-name="Rectangle 82" width="339.115" height="3.239" transform="translate(452.443 3175.719)" fill="#364756"/>
    <g id="Group_53" data-name="Group 53" transform="translate(680.142 2853.266)">
      <path id="Path_134" data-name="Path 134" d="M2965.872,952.281v19.261a8.506,8.506,0,0,1-1.625,5.018l-10.473,14.474a7.328,7.328,0,0,0-1.4,4.323v13.168a.593.593,0,0,1-1.186,0V995.356a8.507,8.507,0,0,1,1.625-5.018l10.473-14.473a7.327,7.327,0,0,0,1.4-4.323V952.281a.593.593,0,0,1,1.186,0Z" transform="translate(-2950.269 -950.769)" fill="#364756"/>
      <path id="Path_135" data-name="Path 135" d="M2945.908,1004.163a1.514,1.514,0,0,1-1.512-1.512V989.483a9.419,9.419,0,0,1,1.8-5.557l10.473-14.473a6.418,6.418,0,0,0,1.225-3.784V946.408a1.512,1.512,0,0,1,3.024,0v19.261a9.422,9.422,0,0,1-1.8,5.557L2948.646,985.7a6.417,6.417,0,0,0-1.225,3.784v13.168A1.514,1.514,0,0,1,2945.908,1004.163Z" transform="translate(-2944.396 -944.896)" fill="#364756"/>
    </g>
    <g id="Group_54" data-name="Group 54" transform="translate(661.368 2882.512)">
      <path id="Path_136" data-name="Path 136" d="M2813.655,1168.382v27a.593.593,0,1,1-1.186,0v-27a.593.593,0,1,1,1.186,0Z" transform="translate(-2811.55 -1166.87)" fill="#364756"/>
      <path id="Path_137" data-name="Path 137" d="M2807.189,1191.018a1.514,1.514,0,0,1-1.512-1.512v-27a1.512,1.512,0,0,1,3.024,0v27A1.514,1.514,0,0,1,2807.189,1191.018Z" transform="translate(-2805.677 -1160.997)" fill="#364756"/>
    </g>
    <g id="Group_55" data-name="Group 55" transform="translate(624.272 2893.886)">
      <path id="Path_138" data-name="Path 138" d="M2539.555,1252.421v15.623a.593.593,0,1,1-1.186,0v-15.623a.593.593,0,1,1,1.186,0Z" transform="translate(-2537.45 -1250.909)" fill="#364756"/>
      <path id="Path_139" data-name="Path 139" d="M2533.089,1263.684a1.514,1.514,0,0,1-1.512-1.512v-15.623a1.512,1.512,0,0,1,3.024,0v15.623A1.514,1.514,0,0,1,2533.089,1263.684Z" transform="translate(-2531.577 -1245.037)" fill="#364756"/>
    </g>
    <g id="Group_56" data-name="Group 56" transform="translate(643.01 2856.597)">
      <path id="Path_140" data-name="Path 140" d="M2689.222,976.885a.592.592,0,0,1-.251.485l-7.841,5.538a7.384,7.384,0,0,0-3.119,6.023V1029.8a.593.593,0,0,1-1.186,0V988.931a8.571,8.571,0,0,1,3.622-6.992l7.841-5.538a.593.593,0,0,1,.935.484Z" transform="translate(-2675.906 -975.374)" fill="#364756"/>
      <path id="Path_141" data-name="Path 141" d="M2671.545,1025.442a1.514,1.514,0,0,1-1.512-1.512V983.063a9.493,9.493,0,0,1,4.01-7.743l7.841-5.538a1.512,1.512,0,1,1,1.744,2.47l-7.841,5.538a6.463,6.463,0,0,0-2.731,5.272v40.867A1.514,1.514,0,0,1,2671.545,1025.442Z" transform="translate(-2670.033 -969.506)" fill="#364756"/>
    </g>
    <g id="Group_57" data-name="Group 57" transform="translate(606.396 2851.861)">
      <path id="Path_142" data-name="Path 142" d="M2423.849,941.891a.591.591,0,0,1-.23.47l-13.284,10.263a7.422,7.422,0,0,0-2.866,5.835V999.54a.593.593,0,1,1-1.186,0V958.458a8.615,8.615,0,0,1,3.327-6.774l13.284-10.263a.593.593,0,0,1,.956.469Z" transform="translate(-2405.363 -940.38)" fill="#364756"/>
      <path id="Path_143" data-name="Path 143" d="M2401,995.184a1.514,1.514,0,0,1-1.512-1.512V952.59a9.541,9.541,0,0,1,3.684-7.5l13.284-10.263a1.512,1.512,0,1,1,1.848,2.394l-13.284,10.262a6.5,6.5,0,0,0-2.509,5.108v41.082A1.514,1.514,0,0,1,2401,995.184Z" transform="translate(-2399.49 -934.511)" fill="#364756"/>
    </g>
    <g id="Group_58" data-name="Group 58" transform="translate(588.085 2864.515)">
      <path id="Path_144" data-name="Path 144" d="M2272.166,1035.4v44.994a.593.593,0,0,1-1.186,0V1035.4a.593.593,0,1,1,1.186,0Z" transform="translate(-2270.061 -1033.884)" fill="#364756"/>
      <path id="Path_145" data-name="Path 145" d="M2265.7,1076.03a1.514,1.514,0,0,1-1.512-1.512v-44.994a1.512,1.512,0,0,1,3.024,0v44.994A1.514,1.514,0,0,1,2265.7,1076.03Z" transform="translate(-2264.188 -1028.011)" fill="#364756"/>
    </g>
    <g id="Group_59" data-name="Group 59" transform="translate(569.906 2810.543)">
      <path id="Path_146" data-name="Path 146" d="M2153.55,636.594a.592.592,0,0,1-.248.483l-12.373,8.845a7.388,7.388,0,0,0-3.086,6v83.641a.593.593,0,1,1-1.186,0V651.921a8.577,8.577,0,0,1,3.582-6.964l12.373-8.845a.593.593,0,0,1,.938.482Z" transform="translate(-2135.738 -635.083)" fill="#364756"/>
      <path id="Path_147" data-name="Path 147" d="M2131.376,731.2a1.514,1.514,0,0,1-1.512-1.512v-83.64a9.5,9.5,0,0,1,3.967-7.711l12.373-8.845a1.512,1.512,0,1,1,1.758,2.461l-12.373,8.844a6.468,6.468,0,0,0-2.7,5.251v83.64A1.514,1.514,0,0,1,2131.376,731.2Z" transform="translate(-2129.864 -629.213)" fill="#364756"/>
    </g>
    <g id="Group_60" data-name="Group 60" transform="translate(533.864 2849.963)">
      <path id="Path_148" data-name="Path 148" d="M1888.96,944.3v43.115a.593.593,0,1,1-1.186,0V944.3a7.383,7.383,0,0,0-3.123-6.025l-14.062-9.923a.593.593,0,0,1,.684-.969l14.062,9.923A8.57,8.57,0,0,1,1888.96,944.3Z" transform="translate(-1869.419 -926.354)" fill="#364756"/>
      <path id="Path_149" data-name="Path 149" d="M1882.492,983.056a1.514,1.514,0,0,1-1.512-1.512V938.429a6.462,6.462,0,0,0-2.733-5.274l-14.062-9.923a1.512,1.512,0,0,1,1.744-2.471l14.062,9.923a9.49,9.49,0,0,1,4.014,7.745v43.115A1.514,1.514,0,0,1,1882.492,983.056Z" transform="translate(-1863.544 -920.486)" fill="#364756"/>
    </g>
    <g id="Group_61" data-name="Group 61" transform="translate(533.135 2884.762)">
      <path id="Path_150" data-name="Path 150" d="M1866.138,1185v24.747a.593.593,0,1,1-1.186,0V1185a.593.593,0,0,1,1.186,0Z" transform="translate(-1864.033 -1183.493)" fill="#364756"/>
      <path id="Path_151" data-name="Path 151" d="M1859.673,1205.39a1.514,1.514,0,0,1-1.512-1.512v-24.747a1.512,1.512,0,1,1,3.024,0v24.747A1.514,1.514,0,0,1,1859.673,1205.39Z" transform="translate(-1858.161 -1177.619)" fill="#364756"/>
    </g>
    <g id="Group_62" data-name="Group 62" transform="translate(472.226 2871.264)">
      <path id="Path_152" data-name="Path 152" d="M1458.825,1101.48v22.032a.593.593,0,1,1-1.186,0V1101.48a7.421,7.421,0,0,0-4.125-6.619l-16.8-8.246a7.41,7.41,0,0,0-3.249-.754h-17.976a.593.593,0,1,1,0-1.186h17.976a8.605,8.605,0,0,1,3.771.875l16.8,8.246A8.615,8.615,0,0,1,1458.825,1101.48Z" transform="translate(-1413.976 -1083.755)" fill="#364756"/>
      <path id="Path_153" data-name="Path 153" d="M1452.36,1119.151a1.514,1.514,0,0,1-1.512-1.512v-22.032a6.5,6.5,0,0,0-3.611-5.794l-16.8-8.246a6.483,6.483,0,0,0-2.844-.66h-17.976a1.512,1.512,0,1,1,0-3.024h17.976a9.53,9.53,0,0,1,4.176.969l16.8,8.246a9.54,9.54,0,0,1,5.3,8.509v22.032A1.514,1.514,0,0,1,1452.36,1119.151Z" transform="translate(-1408.103 -1077.882)" fill="#364756"/>
    </g>
    <path id="Path_154" data-name="Path 154" d="M1267.8,1011.154a7.342,7.342,0,1,0,7.342,7.342A7.35,7.35,0,0,0,1267.8,1011.154Z" transform="translate(-808.216 1851.079)" fill="#e2e209"/>
    <path id="Path_155" data-name="Path 155" d="M1785.938,1059.669a7.342,7.342,0,1,0,7.342,7.342A7.351,7.351,0,0,0,1785.938,1059.669Z" transform="translate(-1256.229 1809.13)" fill="#e2e209"/>
    <path id="Path_156" data-name="Path 156" d="M1747.126,822.918a7.342,7.342,0,1,0,7.342,7.342A7.351,7.351,0,0,0,1747.126,822.918Z" transform="translate(-1222.67 2013.84)" fill="#e2e209"/>
    <path id="Path_157" data-name="Path 157" d="M2224.509,514.366a7.342,7.342,0,1,0,7.342,7.342A7.35,7.35,0,0,0,2224.509,514.366Z" transform="translate(-1635.446 2280.634)" fill="#e2e209"/>
    <path id="Path_158" data-name="Path 158" d="M2199.281,898.6a7.342,7.342,0,1,0,7.342,7.342A7.35,7.35,0,0,0,2199.281,898.6Z" transform="translate(-1613.632 1948.4)" fill="#e2e209"/>
    <path id="Path_159" data-name="Path 159" d="M2503.952,826.8a7.342,7.342,0,1,0,7.342,7.342A7.351,7.351,0,0,0,2503.952,826.8Z" transform="translate(-1877.07 2010.485)" fill="#e2e209"/>
    <path id="Path_160" data-name="Path 160" d="M2738.763,867.551a7.342,7.342,0,1,0,7.342,7.342A7.35,7.35,0,0,0,2738.763,867.551Z" transform="translate(-2080.102 1975.248)" fill="#e2e209"/>
    <path id="Path_161" data-name="Path 161" d="M2744.584,1038.322a7.342,7.342,0,1,0,7.342,7.342A7.351,7.351,0,0,0,2744.584,1038.322Z" transform="translate(-2085.136 1827.588)" fill="#e2e209"/>
    <path id="Path_162" data-name="Path 162" d="M2981.335,820.977a7.342,7.342,0,1,0,7.342,7.342A7.35,7.35,0,0,0,2981.335,820.977Z" transform="translate(-2289.846 2015.519)" fill="#e2e209"/>
    <path id="Path_163" data-name="Path 163" d="M2470.963,1121.767a7.342,7.342,0,1,0,7.342,7.342A7.351,7.351,0,0,0,2470.963,1121.767Z" transform="translate(-1848.546 1755.436)" fill="#e2e209"/>
    <path id="Path_164" data-name="Path 164" d="M2909.7,1336.651h9.983a1.41,1.41,0,0,0,1.406-1.406v-5.905a5.5,5.5,0,0,0-5.484-5.484h-1.828a5.5,5.5,0,0,0-5.484,5.484v5.905A1.41,1.41,0,0,0,2909.7,1336.651Z" transform="translate(-2233.042 1580.697)" fill="#91e994"/>
    <path id="Path_165" data-name="Path 165" d="M2770.984,1336.651h9.983a1.41,1.41,0,0,0,1.406-1.406v-5.905a5.5,5.5,0,0,0-5.483-5.484h-1.828a5.5,5.5,0,0,0-5.484,5.484v5.905A1.41,1.41,0,0,0,2770.984,1336.651Z" transform="translate(-2113.095 1580.697)" fill="#91e994"/>
    <path id="Path_166" data-name="Path 166" d="M2635.339,1336.651h9.983a1.41,1.41,0,0,0,1.406-1.406v-5.905a5.5,5.5,0,0,0-5.484-5.484h-1.828a5.5,5.5,0,0,0-5.484,5.484v5.905A1.41,1.41,0,0,0,2635.339,1336.651Z" transform="translate(-1995.808 1580.697)" fill="#91e994"/>
    <path id="Path_167" data-name="Path 167" d="M2496.883,1336.651h9.983a1.41,1.41,0,0,0,1.406-1.406v-5.905a5.5,5.5,0,0,0-5.484-5.484h-1.828a5.5,5.5,0,0,0-5.484,5.484v5.905A1.41,1.41,0,0,0,2496.883,1336.651Z" transform="translate(-1876.09 1580.697)" fill="#91e994"/>
    <path id="Path_168" data-name="Path 168" d="M2364.8,1336.651h9.983a1.41,1.41,0,0,0,1.406-1.406v-5.905a5.5,5.5,0,0,0-5.484-5.484h-1.828a5.5,5.5,0,0,0-5.483,5.484v5.905A1.41,1.41,0,0,0,2364.8,1336.651Z" transform="translate(-1761.881 1580.697)" fill="#91e994"/>
    <path id="Path_169" data-name="Path 169" d="M2229.494,1336.651h9.983a1.41,1.41,0,0,0,1.406-1.406v-5.905a5.5,5.5,0,0,0-5.484-5.484h-1.828a5.5,5.5,0,0,0-5.484,5.484v5.905A1.41,1.41,0,0,0,2229.494,1336.651Z" transform="translate(-1644.889 1580.697)" fill="#91e994"/>
    <path id="Path_170" data-name="Path 170" d="M2095.172,1336.651h9.983a1.41,1.41,0,0,0,1.406-1.406v-5.905a5.5,5.5,0,0,0-5.484-5.484h-1.828a5.5,5.5,0,0,0-5.484,5.484v5.905A1.41,1.41,0,0,0,2095.172,1336.651Z" transform="translate(-1528.745 1580.697)" fill="#91e994"/>
    <path id="Path_171" data-name="Path 171" d="M1957.685,1336.651h9.983a1.41,1.41,0,0,0,1.406-1.406v-5.905a5.5,5.5,0,0,0-5.484-5.484h-1.828a5.5,5.5,0,0,0-5.484,5.484v5.905A1.41,1.41,0,0,0,1957.685,1336.651Z" transform="translate(-1409.865 1580.697)" fill="#91e994"/>
    <path id="Path_172" data-name="Path 172" d="M1823.467,1336.651h9.983a1.41,1.41,0,0,0,1.406-1.406v-5.905a5.5,5.5,0,0,0-5.484-5.484h-1.828a5.5,5.5,0,0,0-5.484,5.484v5.905A1.41,1.41,0,0,0,1823.467,1336.651Z" transform="translate(-1293.812 1580.697)" fill="#91e994"/>
    <path id="Path_173" data-name="Path 173" d="M1689.25,1336.651h9.983a1.41,1.41,0,0,0,1.406-1.406v-5.905a5.5,5.5,0,0,0-5.484-5.484h-1.828a5.5,5.5,0,0,0-5.484,5.484v5.905A1.41,1.41,0,0,0,1689.25,1336.651Z" transform="translate(-1177.759 1580.697)" fill="#91e994"/>
    <g id="Group_63" data-name="Group 63" transform="translate(412.803 2954.033)">
      <path id="Path_174" data-name="Path 174" d="M1059.465,1785.062l-15.137-21.8a36.763,36.763,0,1,0-11.769,8.36Z" transform="translate(-979.097 -1699.53)" fill="#fff"/>
      <path id="Path_175" data-name="Path 175" d="M1054.207,1779.157l-31.76-15.861a38.471,38.471,0,1,1,13.826-9.964Zm-31.678-19.343,22.058,11.016-12.351-17.785.878-.93a35.188,35.188,0,1,0-11.266,8Z" transform="translate(-969.03 -1689.463)" fill="#364756"/>
    </g>
    <path id="Path_176" data-name="Path 176" d="M1135.289,1869.187l-15.136-21.8a36.761,36.761,0,1,0-11.769,8.36Z" transform="translate(-631.856 1181.763)" fill="#a43e82"/>
    <path id="Path_177" data-name="Path 177" d="M1189.963,1977.458a1.574,1.574,0,0,1-1.2-.548l-24.293-28.261a1.576,1.576,0,0,1,2.39-2.054l23.326,27.137,15.9-12.071a1.576,1.576,0,0,1,1.905,2.51l-17.085,12.967A1.57,1.57,0,0,1,1189.963,1977.458Z" transform="translate(-724.891 1042.712)" fill="#fff"/>
    <g id="Group_64" data-name="Group 64" transform="translate(708.955 3071.554)">
      <rect id="Rectangle_83" data-name="Rectangle 83" width="56.297" height="1.627" transform="translate(0.919 0.919)" fill="#364756"/>
      <rect id="Rectangle_84" data-name="Rectangle 84" width="58.136" height="3.465" transform="translate(0 0)" fill="#364756"/>
    </g>
    <path id="Path_178" data-name="Path 178" d="M3655.4,2563h-5.233v-3.239h5.233Zm-10.465,0h-5.232v-3.239h5.232Zm-10.714,0h-5.232v-3.239h5.232Zm-10.465,0h-5.232v-3.239h5.232Z" transform="translate(-2847.15 512.052)" fill="#364756"/>
    <g id="Group_65" data-name="Group 65" transform="translate(739.632 3019.344)">
      <rect id="Rectangle_85" data-name="Rectangle 85" width="78.096" height="1.627" transform="translate(0.919 0.919)" fill="#364756"/>
      <rect id="Rectangle_86" data-name="Rectangle 86" width="79.934" height="3.465" transform="translate(0 0)" fill="#364756"/>
    </g>
    <g id="Group_66" data-name="Group 66" transform="translate(721.193 3041.037)">
      <rect id="Rectangle_87" data-name="Rectangle 87" width="39.59" height="1.627" transform="translate(0.919 0.919)" fill="#364756"/>
      <rect id="Rectangle_88" data-name="Rectangle 88" width="41.429" height="3.465" transform="translate(0 0)" fill="#364756"/>
    </g>
    <g id="Group_67" data-name="Group 67" transform="translate(737.463 3057.849)">
      <rect id="Rectangle_89" data-name="Rectangle 89" width="14.643" height="1.627" transform="translate(0.919 0.919)" fill="#364756"/>
      <rect id="Rectangle_90" data-name="Rectangle 90" width="16.481" height="3.465" fill="#364756"/>
    </g>
    <g id="Group_68" data-name="Group 68" transform="translate(563.941 3056.22)">
      <path id="Path_179" data-name="Path 179" d="M2154.025,2492.245c-25.51-.12-47.087-8.067-56.6-17.408V2488.3a9.653,9.653,0,0,0,1.441,5.362,11.919,11.919,0,0,0,4.407,4.071c11.682,6.315,30,10.449,50.227,10.449.24,0,.453,0,.692,0s.464,0,.7,0c20.226,0,38.585-4.135,50.268-10.449a11.177,11.177,0,0,0,4.164-4.071,9.533,9.533,0,0,0,1.291-5.362v-14.669C2201.725,2482.972,2179.535,2492.125,2154.025,2492.245Z" transform="translate(-2095.853 -2469.692)" fill="#fff"/>
      <path id="Path_180" data-name="Path 180" d="M2144.832,2484.588l-.438,0-.272,0-.257,0-.428,0c-19.6,0-38.652-3.977-50.976-10.639a13.517,13.517,0,0,1-4.982-4.6,11.235,11.235,0,0,1-1.693-6.216v-17.22l2.68,2.633c8.5,8.349,28.956,16.829,55.492,16.956,25.188-.12,46.964-9.208,55.455-18.125l2.717-2.853v18.608a11.129,11.129,0,0,1-1.544,6.219,12.724,12.724,0,0,1-4.736,4.6C2183.525,2480.611,2164.453,2484.588,2144.832,2484.588Zm-.71-3.155.3,0,.415,0c19.122,0,37.633-3.835,49.519-10.26a9.512,9.512,0,0,0,3.589-3.54,7.866,7.866,0,0,0,1.039-4.507v-11.055c-4.855,4.046-11.794,7.756-19.968,10.637a108.163,108.163,0,0,1-35.045,5.938h-.015a115.991,115.991,0,0,1-34.777-5.323c-8.187-2.655-15.226-6.21-20.236-10.182v9.984a8.045,8.045,0,0,0,1.188,4.505,10.4,10.4,0,0,0,3.834,3.542c11.885,6.424,30.381,10.26,49.477,10.26l.4,0Z" transform="translate(-2085.786 -2444.522)" fill="#364756"/>
    </g>
    <g id="Group_69" data-name="Group 69" transform="translate(563.066 3037)">
      <ellipse id="Ellipse_15" data-name="Ellipse 15" cx="57.352" cy="20.083" rx="57.352" ry="20.083" transform="translate(1.576 1.576)" fill="#fff"/>
      <path id="Path_181" data-name="Path 181" d="M2138.25,2345.821c-15.492,0-30.08-2.12-41.075-5.971-11.513-4.031-17.853-9.6-17.853-15.688s6.34-11.657,17.853-15.688c11-3.85,25.583-5.971,41.075-5.971s30.079,2.121,41.074,5.971c11.512,4.031,17.853,9.6,17.853,15.688s-6.341,11.657-17.853,15.688C2168.329,2343.7,2153.742,2345.821,2138.25,2345.821Zm0-40.166c-33.364,0-55.776,9.57-55.776,18.507s22.412,18.507,55.776,18.507,55.776-9.569,55.776-18.507S2171.613,2305.655,2138.25,2305.655Z" transform="translate(-2079.322 -2302.503)" fill="#364756"/>
    </g>
    <ellipse id="Ellipse_16" data-name="Ellipse 16" cx="52.719" cy="17.117" rx="52.719" ry="17.117" transform="translate(569.541 3038.82)" fill="#fff"/>
    <ellipse id="Ellipse_17" data-name="Ellipse 17" cx="52.719" cy="17.117" rx="52.719" ry="17.117" transform="translate(569.541 3036.778)" fill="#e5907c"/>
    <ellipse id="Ellipse_18" data-name="Ellipse 18" cx="52.719" cy="17.117" rx="52.719" ry="17.117" transform="translate(569.541 3029.91)" fill="#fff"/>
    <g id="Group_70" data-name="Group 70" transform="translate(563.941 3023.039)">
      <path id="Path_182" data-name="Path 182" d="M2154.025,2247.071c-25.51-.119-47.087-8.067-56.6-17.407v13.463a9.655,9.655,0,0,0,1.441,5.362,11.923,11.923,0,0,0,4.407,4.071c11.682,6.315,30,10.449,50.227,10.449.24,0,.453,0,.692,0s.464,0,.7,0c20.226,0,38.585-4.135,50.268-10.449a11.181,11.181,0,0,0,4.164-4.071,9.535,9.535,0,0,0,1.291-5.362v-14.669C2201.725,2237.8,2179.535,2246.952,2154.025,2247.071Z" transform="translate(-2095.853 -2224.518)" fill="#fff"/>
      <path id="Path_183" data-name="Path 183" d="M2144.832,2239.415l-.45,0h-.26l-.245,0-.439,0c-19.6,0-38.652-3.977-50.976-10.639a13.516,13.516,0,0,1-4.982-4.6,11.235,11.235,0,0,1-1.693-6.216v-17.22l2.68,2.633c8.5,8.349,28.956,16.83,55.492,16.956,25.188-.12,46.964-9.208,55.455-18.125l2.717-2.853v18.609a11.128,11.128,0,0,1-1.544,6.218,12.724,12.724,0,0,1-4.736,4.6C2183.525,2235.438,2164.453,2239.415,2144.832,2239.415Zm-.711-3.156.285,0,.426,0c19.122,0,37.633-3.835,49.519-10.26a9.512,9.512,0,0,0,3.589-3.54,7.864,7.864,0,0,0,1.039-4.507V2206.9c-4.855,4.046-11.794,7.756-19.968,10.637a108.176,108.176,0,0,1-35.045,5.938h-.015a116,116,0,0,1-34.777-5.323c-8.187-2.656-15.226-6.21-20.236-10.182v9.984a8.043,8.043,0,0,0,1.188,4.5,10.4,10.4,0,0,0,3.834,3.542c11.885,6.424,30.381,10.26,49.477,10.26l.415,0Z" transform="translate(-2085.786 -2199.348)" fill="#364756"/>
    </g>
    <g id="Group_71" data-name="Group 71" transform="translate(563.066 3003.819)">
      <ellipse id="Ellipse_19" data-name="Ellipse 19" cx="57.352" cy="20.083" rx="57.352" ry="20.083" transform="translate(1.576 1.576)" fill="#fff"/>
      <path id="Path_184" data-name="Path 184" d="M2138.25,2100.648c-15.492,0-30.08-2.121-41.075-5.971-11.513-4.031-17.853-9.6-17.853-15.688s6.34-11.657,17.853-15.688c11-3.85,25.583-5.971,41.075-5.971s30.079,2.12,41.074,5.971c11.512,4.031,17.853,9.6,17.853,15.688s-6.341,11.657-17.853,15.688C2168.329,2098.527,2153.742,2100.648,2138.25,2100.648Zm0-40.166c-33.364,0-55.776,9.57-55.776,18.507s22.412,18.507,55.776,18.507,55.776-9.57,55.776-18.507S2171.613,2060.482,2138.25,2060.482Z" transform="translate(-2079.322 -2057.33)" fill="#364756"/>
    </g>
    <ellipse id="Ellipse_20" data-name="Ellipse 20" cx="52.719" cy="17.117" rx="52.719" ry="17.117" transform="translate(569.541 3005.639)" fill="#fff"/>
    <ellipse id="Ellipse_21" data-name="Ellipse 21" cx="52.719" cy="17.117" rx="52.719" ry="17.117" transform="translate(569.541 3003.597)" fill="#e5907c"/>
    <ellipse id="Ellipse_22" data-name="Ellipse 22" cx="52.719" cy="17.117" rx="52.719" ry="17.117" transform="translate(569.541 2996.729)" fill="#fff"/>
    <g id="Group_72" data-name="Group 72" transform="translate(563.941 2989.858)">
      <path id="Path_185" data-name="Path 185" d="M2154.025,2001.9c-25.51-.12-47.087-8.067-56.6-17.408v13.463a9.655,9.655,0,0,0,1.441,5.362,11.923,11.923,0,0,0,4.407,4.071c11.682,6.315,30,10.449,50.227,10.449.24,0,.453,0,.692,0s.464,0,.7,0c20.226,0,38.585-4.135,50.268-10.449a11.18,11.18,0,0,0,4.164-4.071,9.535,9.535,0,0,0,1.291-5.362v-14.669C2201.725,1992.625,2179.535,2001.778,2154.025,2001.9Z" transform="translate(-2095.853 -1979.344)" fill="#fff"/>
      <path id="Path_186" data-name="Path 186" d="M2144.832,1994.242l-.435,0-.275,0-.26,0-.425,0c-19.6,0-38.652-3.977-50.976-10.639a13.517,13.517,0,0,1-4.982-4.6,11.234,11.234,0,0,1-1.693-6.216v-17.22l2.68,2.633c8.5,8.349,28.956,16.829,55.492,16.956,25.188-.12,46.964-9.208,55.455-18.125l2.717-2.853v18.609a11.129,11.129,0,0,1-1.544,6.218,12.72,12.72,0,0,1-4.736,4.6C2183.525,1990.264,2164.453,1994.242,2144.832,1994.242Zm-.71-3.156.3,0,.411,0c19.122,0,37.633-3.835,49.519-10.26a9.509,9.509,0,0,0,3.589-3.54,7.865,7.865,0,0,0,1.039-4.507v-11.055c-4.855,4.046-11.794,7.756-19.968,10.636a108.163,108.163,0,0,1-35.045,5.939h-.015a115.991,115.991,0,0,1-34.777-5.323c-8.187-2.656-15.226-6.21-20.236-10.182v9.984a8.043,8.043,0,0,0,1.188,4.5,10.4,10.4,0,0,0,3.834,3.542c11.885,6.424,30.381,10.259,49.477,10.259l.4,0Z" transform="translate(-2085.786 -1954.175)" fill="#364756"/>
    </g>
    <g id="Group_73" data-name="Group 73" transform="translate(563.066 2970.638)">
      <ellipse id="Ellipse_23" data-name="Ellipse 23" cx="57.352" cy="20.083" rx="57.352" ry="20.083" transform="translate(1.576 1.576)" fill="#fff"/>
      <path id="Path_187" data-name="Path 187" d="M2138.25,1855.474c-15.492,0-30.08-2.12-41.075-5.971-11.513-4.031-17.853-9.6-17.853-15.688s6.34-11.657,17.853-15.688c11-3.85,25.583-5.971,41.075-5.971s30.079,2.12,41.074,5.971c11.512,4.031,17.853,9.6,17.853,15.688s-6.341,11.657-17.853,15.688C2168.329,1853.354,2153.742,1855.474,2138.25,1855.474Zm0-40.166c-33.364,0-55.776,9.57-55.776,18.507s22.412,18.507,55.776,18.507,55.776-9.57,55.776-18.507S2171.613,1815.308,2138.25,1815.308Z" transform="translate(-2079.322 -1812.156)" fill="#364756"/>
    </g>
    <ellipse id="Ellipse_24" data-name="Ellipse 24" cx="52.719" cy="17.117" rx="52.719" ry="17.117" transform="translate(569.541 2972.458)" fill="#fff"/>
    <ellipse id="Ellipse_25" data-name="Ellipse 25" cx="52.719" cy="17.117" rx="52.719" ry="17.117" transform="translate(569.541 2970.416)" fill="#e5907c"/>
    <path id="Path_188" data-name="Path 188" d="M2238.722,1692.842a9.785,9.785,0,0,1-.12,1.554c-4.885-11.371-27.883-19.982-55.52-19.982-29.833,0-48.426,14-49.989,27.056a10.087,10.087,0,0,1-.949-4.293c0-13.53,18.9-28.836,50.1-28.836S2238.722,1679.312,2238.722,1692.842Z" transform="translate(-1561.929 1282.833)" fill="#f15f27"/>
    <ellipse id="Ellipse_26" data-name="Ellipse 26" cx="52.719" cy="17.117" rx="52.719" ry="17.117" transform="translate(569.541 2963.549)" fill="#fff"/>
    <g id="Group_74" data-name="Group 74" transform="translate(563.941 2957.204)">
      <path id="Path_189" data-name="Path 189" d="M2154.025,1760.615c-25.51-.12-47.087-8.067-56.6-17.408v13.463a9.654,9.654,0,0,0,1.441,5.361,11.921,11.921,0,0,0,4.407,4.071c11.682,6.315,30,10.449,50.227,10.449.24,0,.453,0,.692,0s.464,0,.7,0c20.226,0,38.585-4.135,50.268-10.449a11.179,11.179,0,0,0,4.164-4.071,9.534,9.534,0,0,0,1.291-5.361V1742C2201.725,1751.343,2179.535,1760.5,2154.025,1760.615Z" transform="translate(-2095.853 -1738.062)" fill="#fff"/>
      <path id="Path_190" data-name="Path 190" d="M2144.832,1752.959l-.438,0-.272,0-.257,0-.428,0c-19.6,0-38.652-3.977-50.976-10.639a13.518,13.518,0,0,1-4.982-4.6,11.234,11.234,0,0,1-1.693-6.216v-17.22l2.68,2.633c8.5,8.349,28.956,16.83,55.492,16.956,25.188-.12,46.964-9.208,55.455-18.125l2.717-2.853V1731.5a11.128,11.128,0,0,1-1.544,6.218,12.722,12.722,0,0,1-4.736,4.6C2183.525,1748.981,2164.453,1752.959,2144.832,1752.959Zm-.71-3.156.3,0,.415,0c19.122,0,37.634-3.835,49.519-10.26a9.51,9.51,0,0,0,3.589-3.54,7.864,7.864,0,0,0,1.039-4.507v-11.055c-4.855,4.046-11.794,7.756-19.968,10.637a108.166,108.166,0,0,1-35.045,5.938h-.015a115.987,115.987,0,0,1-34.777-5.323c-8.187-2.655-15.226-6.21-20.236-10.182v9.984a8.043,8.043,0,0,0,1.188,4.5,10.4,10.4,0,0,0,3.834,3.542c11.884,6.424,30.381,10.26,49.477,10.26l.4,0Z" transform="translate(-2085.786 -1712.892)" fill="#364756"/>
    </g>
    <g id="Group_75" data-name="Group 75" transform="translate(563.066 2937.984)">
      <ellipse id="Ellipse_27" data-name="Ellipse 27" cx="57.352" cy="20.083" rx="57.352" ry="20.083" transform="translate(1.576 1.576)" fill="#fff"/>
      <path id="Path_191" data-name="Path 191" d="M2138.25,1614.192c-15.492,0-30.08-2.12-41.075-5.97-11.513-4.031-17.853-9.6-17.853-15.688s6.34-11.657,17.853-15.688c11-3.85,25.583-5.971,41.075-5.971s30.079,2.12,41.074,5.971c11.512,4.031,17.853,9.6,17.853,15.688s-6.341,11.657-17.853,15.688C2168.329,1612.072,2153.742,1614.192,2138.25,1614.192Zm0-40.166c-33.364,0-55.776,9.57-55.776,18.507s22.412,18.507,55.776,18.507,55.776-9.57,55.776-18.507S2171.613,1574.026,2138.25,1574.026Z" transform="translate(-2079.322 -1570.874)" fill="#364756"/>
    </g>
    <ellipse id="Ellipse_28" data-name="Ellipse 28" cx="52.719" cy="17.117" rx="52.719" ry="17.117" transform="translate(569.274 2940.13)" fill="#fff"/>
    <g id="Group_76" data-name="Group 76" transform="translate(409.509 3080.918)">
      <rect id="Rectangle_91" data-name="Rectangle 91" width="78.096" height="1.627" transform="translate(0.919 0.919)" fill="#364756"/>
      <rect id="Rectangle_92" data-name="Rectangle 92" width="79.934" height="3.465" fill="#364756"/>
    </g>
    <g id="Group_77" data-name="Group 77" transform="translate(466.454 3102.611)">
      <rect id="Rectangle_93" data-name="Rectangle 93" width="39.59" height="1.627" transform="translate(0.919 0.919)" fill="#364756"/>
      <rect id="Rectangle_94" data-name="Rectangle 94" width="41.429" height="3.465" transform="translate(0 0)" fill="#364756"/>
    </g>
    <g id="Group_78" data-name="Group 78" transform="translate(475.131 3119.424)">
      <rect id="Rectangle_95" data-name="Rectangle 95" width="14.643" height="1.627" transform="translate(0.919 0.919)" fill="#364756"/>
      <rect id="Rectangle_96" data-name="Rectangle 96" width="16.481" height="3.465" fill="#364756"/>
    </g>
    <rect id="Rectangle_97" data-name="Rectangle 97" width="20.484" height="20.484" transform="translate(404.096 3041.956)" fill="#e5907c"/>
    <path id="Path_192" data-name="Path 192" d="M869.464,2371.8H845.828v-23.636h23.636Zm-20.484-3.151h17.333V2351.32H848.98Z" transform="translate(-449.698 695.012)" fill="#364756"/>
    <path id="Path_193" data-name="Path 193" d="M1315.322,651.328l5.415,9.54,5.415,9.54h-21.66l5.415-9.54Z" transform="translate(-846.288 2162.208)" fill="#e2e209"/>
    <path id="Path_194" data-name="Path 194" d="M1362.336,691.241h-26.9l13.451-25.329Zm-21.66-2.99h16.418l-8.209-15.458Z" transform="translate(-873.043 2149.598)" fill="#364756"/>
    <g id="Group_79" data-name="Group 79" transform="translate(456.945 2864.515)">
      <path id="Path_195" data-name="Path 195" d="M1316.665,1042.145a7.342,7.342,0,1,1-7.342-7.342A7.351,7.351,0,0,1,1316.665,1042.145Zm-13.5,0a6.156,6.156,0,1,0,6.156-6.156A6.163,6.163,0,0,0,1303.167,1042.145Z" transform="translate(-1301.062 -1033.884)" fill="#364756"/>
      <path id="Path_196" data-name="Path 196" d="M1303.451,1044.534a8.261,8.261,0,1,1,8.261-8.261A8.271,8.271,0,0,1,1303.451,1044.534Zm0-13.5a5.237,5.237,0,1,0,5.237,5.237A5.243,5.243,0,0,0,1303.451,1031.035Z" transform="translate(-1295.19 -1028.011)" fill="#364756"/>
    </g>
    <g id="Group_80" data-name="Group 80" transform="translate(526.386 2870.912)">
      <path id="Path_197" data-name="Path 197" d="M1829.767,1089.416a7.342,7.342,0,1,1-7.342-7.342A7.35,7.35,0,0,1,1829.767,1089.416Zm-13.5,0a6.156,6.156,0,1,0,6.156-6.156A6.163,6.163,0,0,0,1816.269,1089.416Z" transform="translate(-1814.164 -1081.155)" fill="#364756"/>
      <path id="Path_198" data-name="Path 198" d="M1816.552,1091.8a8.261,8.261,0,1,1,8.261-8.261A8.271,8.271,0,0,1,1816.552,1091.8Zm0-13.5a5.237,5.237,0,1,0,5.237,5.237A5.243,5.243,0,0,0,1816.552,1078.305Z" transform="translate(-1808.291 -1075.281)" fill="#364756"/>
    </g>
    <g id="Group_81" data-name="Group 81" transform="translate(521.441 2838.783)">
      <path id="Path_199" data-name="Path 199" d="M1793.231,852.016a7.342,7.342,0,1,1-7.342-7.342A7.35,7.35,0,0,1,1793.231,852.016Zm-13.5,0a6.156,6.156,0,1,0,6.156-6.156A6.163,6.163,0,0,0,1779.733,852.016Z" transform="translate(-1777.628 -843.755)" fill="#364756"/>
      <path id="Path_200" data-name="Path 200" d="M1780.016,854.4a8.261,8.261,0,1,1,8.261-8.261A8.271,8.271,0,0,1,1780.016,854.4Zm0-13.5a5.237,5.237,0,1,0,5.237,5.237A5.243,5.243,0,0,0,1780.016,840.906Z" transform="translate(-1771.755 -837.882)" fill="#364756"/>
    </g>
    <g id="Group_82" data-name="Group 82" transform="translate(584.62 2799.226)">
      <path id="Path_201" data-name="Path 201" d="M2260.061,559.723a7.342,7.342,0,1,1-7.342-7.342A7.35,7.35,0,0,1,2260.061,559.723Zm-13.5,0a6.156,6.156,0,1,0,6.156-6.156A6.163,6.163,0,0,0,2246.563,559.723Z" transform="translate(-2244.458 -551.462)" fill="#364756"/>
      <path id="Path_202" data-name="Path 202" d="M2246.846,562.111a8.261,8.261,0,1,1,8.261-8.261A8.271,8.271,0,0,1,2246.846,562.111Zm0-13.5a5.237,5.237,0,1,0,5.237,5.237A5.243,5.243,0,0,0,2246.846,548.612Z" transform="translate(-2238.585 -545.588)" fill="#364756"/>
    </g>
    <g id="Group_83" data-name="Group 83" transform="translate(581.336 2850.431)">
      <path id="Path_203" data-name="Path 203" d="M2235.792,938.078a7.342,7.342,0,1,1-7.342-7.342A7.351,7.351,0,0,1,2235.792,938.078Zm-13.5,0a6.156,6.156,0,1,0,6.156-6.156A6.163,6.163,0,0,0,2222.294,938.078Z" transform="translate(-2220.189 -929.817)" fill="#364756"/>
      <path id="Path_204" data-name="Path 204" d="M2222.577,940.467a8.261,8.261,0,1,1,8.261-8.261A8.271,8.271,0,0,1,2222.577,940.467Zm0-13.5a5.237,5.237,0,1,0,5.237,5.237A5.243,5.243,0,0,0,2222.577,926.968Z" transform="translate(-2214.316 -923.944)" fill="#364756"/>
    </g>
    <g id="Group_84" data-name="Group 84" transform="translate(622.001 2840.939)">
      <path id="Path_205" data-name="Path 205" d="M2536.272,867.944a7.342,7.342,0,1,1-7.342-7.342A7.35,7.35,0,0,1,2536.272,867.944Zm-13.5,0a6.156,6.156,0,1,0,6.156-6.156A6.163,6.163,0,0,0,2522.774,867.944Z" transform="translate(-2520.669 -859.683)" fill="#364756"/>
      <path id="Path_206" data-name="Path 206" d="M2523.057,870.333a8.261,8.261,0,1,1,8.261-8.261A8.271,8.271,0,0,1,2523.057,870.333Zm0-13.5a5.237,5.237,0,1,0,5.237,5.237A5.243,5.243,0,0,0,2523.057,856.834Z" transform="translate(-2514.796 -853.81)" fill="#364756"/>
    </g>
    <g id="Group_85" data-name="Group 85" transform="translate(617.523 2880.263)">
      <path id="Path_207" data-name="Path 207" d="M2503.182,1158.507a7.342,7.342,0,1,1-7.342-7.342A7.351,7.351,0,0,1,2503.182,1158.507Zm-13.5,0a6.156,6.156,0,1,0,6.156-6.156A6.163,6.163,0,0,0,2489.683,1158.507Z" transform="translate(-2487.578 -1150.246)" fill="#364756"/>
      <path id="Path_208" data-name="Path 208" d="M2489.967,1160.9a8.261,8.261,0,1,1,8.261-8.261A8.271,8.271,0,0,1,2489.967,1160.9Zm0-13.5a5.237,5.237,0,1,0,5.237,5.237A5.243,5.243,0,0,0,2489.967,1147.4Z" transform="translate(-2481.705 -1144.373)" fill="#364756"/>
    </g>
    <g id="Group_86" data-name="Group 86" transform="translate(653.311 2846.028)">
      <path id="Path_209" data-name="Path 209" d="M2767.623,905.547a7.342,7.342,0,1,1-7.342-7.342A7.35,7.35,0,0,1,2767.623,905.547Zm-13.5,0a6.156,6.156,0,1,0,6.156-6.156A6.163,6.163,0,0,0,2754.125,905.547Z" transform="translate(-2752.02 -897.286)" fill="#364756"/>
      <path id="Path_210" data-name="Path 210" d="M2754.408,907.936a8.261,8.261,0,1,1,8.261-8.261A8.271,8.271,0,0,1,2754.408,907.936Zm0-13.5a5.237,5.237,0,1,0,5.237,5.237A5.243,5.243,0,0,0,2754.408,894.437Z" transform="translate(-2746.147 -891.413)" fill="#364756"/>
    </g>
    <g id="Group_87" data-name="Group 87" transform="translate(654.619 2869.014)">
      <path id="Path_211" data-name="Path 211" d="M2777.284,1075.392a7.342,7.342,0,1,1-7.342-7.342A7.35,7.35,0,0,1,2777.284,1075.392Zm-13.5,0a6.156,6.156,0,1,0,6.156-6.156A6.163,6.163,0,0,0,2763.786,1075.392Z" transform="translate(-2761.681 -1067.131)" fill="#364756"/>
      <path id="Path_212" data-name="Path 212" d="M2764.07,1077.781a8.261,8.261,0,1,1,8.261-8.261A8.271,8.271,0,0,1,2764.07,1077.781Zm0-13.5a5.237,5.237,0,1,0,5.237,5.237A5.243,5.243,0,0,0,2764.07,1064.282Z" transform="translate(-2755.808 -1061.258)" fill="#364756"/>
    </g>
    <g id="Group_88" data-name="Group 88" transform="translate(686.573 2839.768)">
      <path id="Path_213" data-name="Path 213" d="M3013.393,859.292a7.342,7.342,0,1,1-7.342-7.342A7.35,7.35,0,0,1,3013.393,859.292Zm-13.5,0a6.156,6.156,0,1,0,6.156-6.156A6.163,6.163,0,0,0,2999.9,859.292Z" transform="translate(-2997.79 -851.031)" fill="#364756"/>
      <path id="Path_214" data-name="Path 214" d="M3000.178,861.681a8.261,8.261,0,1,1,8.261-8.261A8.271,8.271,0,0,1,3000.178,861.681Zm0-13.5a5.237,5.237,0,1,0,5.237,5.237A5.243,5.243,0,0,0,3000.178,848.183Z" transform="translate(-2991.917 -845.159)" fill="#364756"/>
    </g>
    <g id="Group_89" data-name="Group 89" transform="translate(713.943 2861.211)">
      <rect id="Rectangle_109" data-name="Rectangle 109" width="59.703" height="1.725" transform="translate(0.919 0.919)" fill="#364756"/>
      <rect id="Rectangle_110" data-name="Rectangle 110" width="61.541" height="3.564" transform="translate(0 0)" fill="#364756"/>
    </g>
    <path id="Path_216" data-name="Path 216" d="M3734.57,1008.871h-5.233v-2.99h5.233Zm-10.465,0h-5.232v-2.99h5.232Zm-10.465,0h-5.233v-2.99h5.233Zm-10.465,0h-5.481v-2.99h5.481Z" transform="translate(-2915.603 1855.639)" fill="#364756"/>
    <g id="Group_90" data-name="Group 90" transform="translate(726.922 2828.848)">
      <rect id="Rectangle_111" data-name="Rectangle 111" width="41.985" height="1.725" transform="translate(0.919 0.919)" fill="#364756"/>
      <rect id="Rectangle_112" data-name="Rectangle 112" width="43.824" height="3.564" transform="translate(0 0)" fill="#364756"/>
    </g>
    <g id="Group_91" data-name="Group 91" transform="translate(754.389 2846.677)">
      <rect id="Rectangle_113" data-name="Rectangle 113" width="15.529" height="1.725" transform="translate(0.919 0.919)" fill="#364756"/>
      <rect id="Rectangle_114" data-name="Rectangle 114" width="17.367" height="3.564" transform="translate(0 0)" fill="#364756"/>
    </g>
    <path id="Path_217" data-name="Path 217" d="M3430.008,1171.435l-7.318-4.385,7.318-4.385Zm-4.7-4.385,3.45,2.067v-4.134Z" transform="translate(-2677.818 1720.073)" fill="#364756"/>
  </g>
</svg>
