<svg xmlns="http://www.w3.org/2000/svg" width="404.177" height="318.019" viewBox="0 0 404.177 318.019">
  <g id="Group_47" data-name="Group 47" transform="translate(-113.65 -177.336)">
    <g id="Group_33" data-name="Group 33" transform="translate(196.273 252.795)">
      <path id="Path_89" data-name="Path 89" d="M386.425,667.892h21.327A27.89,27.89,0,0,0,435.642,640v-8.589h41.689V640a27.889,27.889,0,0,0,27.889,27.89h21.327a2.9,2.9,0,0,1,2.895,2.895v4.632a2.9,2.9,0,0,1-2.895,2.9H386.425a2.9,2.9,0,0,1-2.9-2.9v-4.632A2.9,2.9,0,0,1,386.425,667.892Z" transform="translate(-305.363 -437.563)" fill="#b3b3b3" stroke="#4d4d4d" stroke-linejoin="round" stroke-width="3.615"/>
      <path id="Rectangle_61" data-name="Rectangle 61" d="M27.062,0H275.184a27.061,27.061,0,0,1,27.061,27.061V176.172a27.062,27.062,0,0,1-27.062,27.062H27.062A27.062,27.062,0,0,1,0,176.172V27.062A27.062,27.062,0,0,1,27.062,0Z" transform="translate(302.245 203.234) rotate(180)" fill="#e6e6e6" stroke="#4d4d4d" stroke-linejoin="round" stroke-width="3.615"/>
      <path id="Rectangle_62" data-name="Rectangle 62" d="M6.766,0H264.213a6.765,6.765,0,0,1,6.765,6.765V139.146a6.765,6.765,0,0,1-6.765,6.765H6.765A6.765,6.765,0,0,1,0,139.146V6.766A6.766,6.766,0,0,1,6.766,0Z" transform="translate(286.612 161.545) rotate(180)" fill="#3d95d1" stroke="#4d4d4d" stroke-linecap="round" stroke-linejoin="round" stroke-width="3.615"/>
      <rect id="Rectangle_63" data-name="Rectangle 63" width="145.912" height="10.422" rx="5.211" transform="translate(224.078 240.751) rotate(180)" fill="#e6e6e6" stroke="#4d4d4d" stroke-linejoin="round" stroke-width="3.615"/>
    </g>
    <path id="Rectangle_64" data-name="Rectangle 64" d="M6.766,0H111.011a6.765,6.765,0,0,1,6.765,6.765V62.311a6.765,6.765,0,0,1-6.765,6.765H6.765A6.765,6.765,0,0,1,0,62.311V6.766A6.766,6.766,0,0,1,6.766,0Z" transform="translate(342.045 349.866) rotate(180)" fill="#4d4d4d"/>
    <g id="Group_34" data-name="Group 34" transform="translate(241.187 289.734)">
      <path id="Path_90" data-name="Path 90" d="M327.343,397.4a2.217,2.217,0,0,1,.452-1.416,5.238,5.238,0,0,1,1.3-1.114l19.885-13.438a1.688,1.688,0,0,1,.392-.151,1.435,1.435,0,0,1,.271-.03,1.236,1.236,0,0,1,1.266,1.265v2.712a2.192,2.192,0,0,1-.633,1.567,6.95,6.95,0,0,1-1.3,1.085l-15.908,10.786,15.908,10.786a7.043,7.043,0,0,1,1.3,1.085,2.194,2.194,0,0,1,.633,1.567v2.712a1.236,1.236,0,0,1-1.266,1.265,1.344,1.344,0,0,1-.271-.03,1.61,1.61,0,0,1-.392-.151l-19.885-13.437a5.227,5.227,0,0,1-1.3-1.115,2.212,2.212,0,0,1-.452-1.416Z" transform="translate(-327.343 -372.395)" fill="#e5e5e5"/>
      <path id="Path_91" data-name="Path 91" d="M396.42,368.094a3.991,3.991,0,0,1,.9-1.236,2.444,2.444,0,0,1,1.748-.572h1.989a1.338,1.338,0,0,1,1.326,1.326,1.49,1.49,0,0,1-.121.543L381.9,416.9a3.679,3.679,0,0,1-.843,1.2,2.458,2.458,0,0,1-1.808.6h-1.807a1.338,1.338,0,0,1-1.326-1.326,1.466,1.466,0,0,1,.121-.542Z" transform="translate(-347.249 -366.286)" fill="#e5e5e5"/>
      <path id="Path_92" data-name="Path 92" d="M452.924,399.933a2.212,2.212,0,0,1-.452,1.416,5.25,5.25,0,0,1-1.3,1.115L431.29,415.9a1.635,1.635,0,0,1-.391.151,1.358,1.358,0,0,1-.272.03,1.236,1.236,0,0,1-1.265-1.265v-2.712a2.2,2.2,0,0,1,.633-1.567,7.043,7.043,0,0,1,1.3-1.085L447.2,398.668,431.29,387.882a6.95,6.95,0,0,1-1.3-1.085,2.194,2.194,0,0,1-.633-1.567v-2.712a1.236,1.236,0,0,1,1.265-1.265,1.451,1.451,0,0,1,.272.03,1.716,1.716,0,0,1,.391.151l19.886,13.438a5.261,5.261,0,0,1,1.3,1.114,2.217,2.217,0,0,1,.452,1.416Z" transform="translate(-368.984 -372.395)" fill="#e5e5e5"/>
    </g>
    <path id="Path_93" data-name="Path 93" d="M734.612,472.92l-25.535,25.535a7.222,7.222,0,0,1-10.214,0l-5.107-5.107a7.222,7.222,0,0,0-10.214,0h0a7.222,7.222,0,0,0,0,10.214l15.321,15.321a7.222,7.222,0,0,0,10.214,0l35.749-35.749a7.222,7.222,0,0,0,0-10.214h0A7.222,7.222,0,0,0,734.612,472.92Z" transform="translate(-230.681 -119.213)" fill="#33ff8f" stroke="#4d4d4d" stroke-linejoin="round" stroke-width="3.133"/>
    <path id="Path_94" data-name="Path 94" d="M584.6,473.341h-2.489a1.8,1.8,0,0,1-1.739-1.362,25.765,25.765,0,0,0-2.721-6.562,1.8,1.8,0,0,1,.266-2.195l1.762-1.762a1.792,1.792,0,0,0,0-2.534l-4.8-4.8a1.792,1.792,0,0,0-2.534,0l-1.762,1.763a1.8,1.8,0,0,1-2.195.266,25.769,25.769,0,0,0-6.562-2.721,1.8,1.8,0,0,1-1.362-1.739v-2.489a1.791,1.791,0,0,0-1.792-1.792h-6.788a1.791,1.791,0,0,0-1.791,1.792v2.489a1.8,1.8,0,0,1-1.362,1.739,25.761,25.761,0,0,0-6.562,2.721,1.8,1.8,0,0,1-2.2-.266l-1.763-1.763a1.792,1.792,0,0,0-2.534,0l-4.8,4.8a1.792,1.792,0,0,0,0,2.534l1.762,1.762a1.8,1.8,0,0,1,.265,2.195,25.764,25.764,0,0,0-2.721,6.562,1.8,1.8,0,0,1-1.739,1.362h-2.489a1.791,1.791,0,0,0-1.791,1.792v6.788a1.791,1.791,0,0,0,1.791,1.792h2.489a1.8,1.8,0,0,1,1.739,1.362,25.757,25.757,0,0,0,2.721,6.562,1.8,1.8,0,0,1-.265,2.2l-1.762,1.763a1.792,1.792,0,0,0,0,2.534l4.8,4.8a1.792,1.792,0,0,0,2.534,0l1.763-1.762a1.8,1.8,0,0,1,2.2-.265,25.759,25.759,0,0,0,6.562,2.721,1.8,1.8,0,0,1,1.362,1.739v2.489a1.791,1.791,0,0,0,1.791,1.792h6.788a1.791,1.791,0,0,0,1.792-1.792v-2.489a1.8,1.8,0,0,1,1.362-1.739,25.767,25.767,0,0,0,6.562-2.721,1.8,1.8,0,0,1,2.195.265l1.762,1.762a1.792,1.792,0,0,0,2.534,0l4.8-4.8a1.792,1.792,0,0,0,0-2.534l-1.762-1.763a1.805,1.805,0,0,1-.266-2.2,25.759,25.759,0,0,0,2.721-6.562,1.8,1.8,0,0,1,1.739-1.362H584.6a1.791,1.791,0,0,0,1.792-1.792v-6.788A1.791,1.791,0,0,0,584.6,473.341Zm-30.158,21.252a16.089,16.089,0,1,1,16.9-16.9A16.148,16.148,0,0,1,554.439,494.593Z" transform="translate(-166.492 -109.666)" fill="#e6e6e6" stroke="#4d4d4d" stroke-linejoin="round" stroke-width="2.089"/>
    <path id="Path_95" data-name="Path 95" d="M635.995,433.127l-1.521-.1a1.1,1.1,0,0,1-1.007-.9,15.8,15.8,0,0,0-1.4-4.118,1.105,1.105,0,0,1,.25-1.33l1.148-1a1.1,1.1,0,0,0,.1-1.548L630.832,421a1.1,1.1,0,0,0-1.548-.1l-1.148,1.006a1.1,1.1,0,0,1-1.352.073,15.768,15.768,0,0,0-3.9-1.926,1.1,1.1,0,0,1-.762-1.117l.1-1.52a1.1,1.1,0,0,0-1.022-1.167l-4.146-.274a1.1,1.1,0,0,0-1.167,1.022l-.1,1.52a1.1,1.1,0,0,1-.9,1.007,15.769,15.769,0,0,0-4.118,1.4,1.1,1.1,0,0,1-1.33-.251l-1.005-1.148a1.1,1.1,0,0,0-1.548-.1l-3.125,2.738a1.1,1.1,0,0,0-.1,1.548l1,1.148a1.1,1.1,0,0,1,.074,1.351,15.789,15.789,0,0,0-1.927,3.9,1.1,1.1,0,0,1-1.117.762l-1.521-.1a1.1,1.1,0,0,0-1.167,1.022l-.274,4.146a1.1,1.1,0,0,0,1.022,1.166l1.521.1a1.1,1.1,0,0,1,1.007.9,15.787,15.787,0,0,0,1.4,4.118,1.105,1.105,0,0,1-.251,1.33l-1.148,1.006a1.1,1.1,0,0,0-.1,1.548l2.738,3.125a1.1,1.1,0,0,0,1.548.1l1.148-1.006a1.1,1.1,0,0,1,1.351-.073,15.768,15.768,0,0,0,3.9,1.926,1.1,1.1,0,0,1,.762,1.117l-.1,1.52a1.1,1.1,0,0,0,1.022,1.167l4.146.274a1.1,1.1,0,0,0,1.167-1.022l.1-1.52a1.1,1.1,0,0,1,.9-1.007,15.77,15.77,0,0,0,4.118-1.4,1.1,1.1,0,0,1,1.33.251l1.006,1.148a1.1,1.1,0,0,0,1.548.1l3.125-2.738a1.1,1.1,0,0,0,.1-1.548l-1-1.148a1.1,1.1,0,0,1-.074-1.352,15.769,15.769,0,0,0,1.927-3.9,1.1,1.1,0,0,1,1.117-.762l1.521.1a1.1,1.1,0,0,0,1.167-1.022l.274-4.146A1.1,1.1,0,0,0,635.995,433.127Zm-19.28,11.765a9.849,9.849,0,1,1,11.008-9.643A9.885,9.885,0,0,1,616.715,444.892Z" transform="translate(-196.927 -96.83)" fill="#e6e6e6" stroke="#4d4d4d" stroke-linejoin="round" stroke-width="2.089"/>
    <g id="Group_35" data-name="Group 35" transform="translate(116.261 333.179)">
      <circle id="Ellipse_6" data-name="Ellipse 6" cx="55.627" cy="55.627" r="55.627" transform="translate(41.72 41.72)" stroke-width="5.221" stroke="#4c4c4c" stroke-linecap="round" stroke-linejoin="round" fill="#d541f9"/>
      <circle id="Ellipse_7" data-name="Ellipse 7" cx="41.72" cy="41.72" r="41.72" transform="translate(38.346 97.348) rotate(-45)" stroke-width="5.221" stroke="#4d4d4d" stroke-linecap="round" stroke-linejoin="round" fill="#e5e5e5"/>
      <circle id="Ellipse_8" data-name="Ellipse 8" cx="27.814" cy="27.814" r="27.814" transform="translate(69.534 69.534)" stroke-width="5.221" stroke="#4c4c4c" stroke-linecap="round" stroke-linejoin="round" fill="#f941f9"/>
      <circle id="Ellipse_9" data-name="Ellipse 9" cx="13.907" cy="13.907" r="13.907" transform="matrix(0.922, -0.388, 0.388, 0.922, 79.133, 89.931)" stroke-width="5.221" stroke="#4d4d4d" stroke-linecap="round" stroke-linejoin="round" fill="#fff"/>
      <line id="Line_7" data-name="Line 7" x1="54.085" y1="54.085" transform="translate(34.418 34.418)" fill="#4d4d4d" stroke="#4d4d4d" stroke-linecap="round" stroke-linejoin="round" stroke-width="5.221"/>
      <path id="Path_96" data-name="Path 96" d="M259.018,572.617l-9.834,9.834,14.75,4.917Z" transform="translate(-170.515 -493.948)" fill="#4d4d4d" stroke="#4d4d4d" stroke-linecap="round" stroke-linejoin="round" stroke-width="5.221"/>
      <path id="Path_97" data-name="Path 97" d="M157.8,467.669V448l14.75,14.75v19.667Z" transform="translate(-133.215 -443.085)" fill="#fff" stroke="#4d4d4d" stroke-linecap="round" stroke-linejoin="round" stroke-width="5.221"/>
      <path id="Path_98" data-name="Path 98" d="M139.319,495.983h19.667l-14.75-14.75H124.568Z" transform="translate(-119.652 -456.648)" fill="#fff" stroke="#4d4d4d" stroke-linecap="round" stroke-linejoin="round" stroke-width="5.221"/>
      <path id="Path_99" data-name="Path 99" d="M149.492,459.361V439.694l9.834,9.834v19.667Z" transform="translate(-129.824 -439.694)" fill="#fff" stroke="#4d4d4d" stroke-linecap="round" stroke-linejoin="round" stroke-width="5.221"/>
      <path id="Path_100" data-name="Path 100" d="M126.094,482.758h19.667l-9.834-9.834H116.261Z" transform="translate(-116.261 -453.257)" fill="#fff" stroke="#4d4d4d" stroke-linecap="round" stroke-linejoin="round" stroke-width="5.221"/>
    </g>
    <g id="Group_45" data-name="Group 45" transform="translate(153.271 203.297)">
      <g id="Group_37" data-name="Group 37" transform="translate(0)">
        <g id="Group_36" data-name="Group 36">
          <path id="Path_101" data-name="Path 101" d="M218.608,220.237c21.987,0,39.813,15.376,39.813,34.35,0,11.389-6.427,21.48-16.32,27.727l5.607,14.184-13.742-10.215a45.152,45.152,0,0,1-15.358,2.648c-21.989,0-39.813-15.376-39.813-34.345S196.619,220.237,218.608,220.237Z" transform="translate(-178.795 -220.237)" fill="#8881b8" fill-rule="evenodd"/>
        </g>
      </g>
      <g id="Group_44" data-name="Group 44" transform="translate(17.003 29.625)">
        <g id="Group_39" data-name="Group 39" transform="translate(34.827)">
          <g id="Group_38" data-name="Group 38">
            <path id="Path_102" data-name="Path 102" d="M271.764,281.086a5.4,5.4,0,1,1,5.4-5.4A5.405,5.405,0,0,1,271.764,281.086Z" transform="translate(-266.37 -270.293)" fill="#fff" fill-rule="evenodd"/>
          </g>
        </g>
        <g id="Group_41" data-name="Group 41" transform="translate(17.415)">
          <g id="Group_40" data-name="Group 40">
            <path id="Path_103" data-name="Path 103" d="M242.345,281.086a5.4,5.4,0,1,1,5.395-5.4A5.406,5.406,0,0,1,242.345,281.086Z" transform="translate(-236.951 -270.293)" fill="#fff" fill-rule="evenodd"/>
          </g>
        </g>
        <g id="Group_43" data-name="Group 43">
          <g id="Group_42" data-name="Group 42">
            <path id="Path_104" data-name="Path 104" d="M212.924,281.086a5.4,5.4,0,1,1,5.392-5.4A5.41,5.41,0,0,1,212.924,281.086Z" transform="translate(-207.525 -270.293)" fill="#fff" fill-rule="evenodd"/>
          </g>
        </g>
      </g>
    </g>
    <path id="Path_105" data-name="Path 105" d="M511.775,371.251a3.442,3.442,0,0,0-.978-2.107L496,354.077a17.724,17.724,0,1,0-4.957,4.9l14.788,15.049a3.481,3.481,0,0,0,5.947-2.777Zm-29.44-16.38a10.736,10.736,0,1,1,9.678-11.706A10.749,10.749,0,0,1,482.336,354.871Z" transform="translate(-141.775 -60.302)" fill="#e6e6e6" stroke="#4d4d4d" stroke-linejoin="round" stroke-width="2.089"/>
    <g id="Group_46" data-name="Group 46" transform="translate(378.372 178.734)">
      <path id="Path_106" data-name="Path 106" d="M624,224.379h0a32.471,32.471,0,0,0-32.472,32.472h0a32.321,32.321,0,0,0,5.275,17.748,91.648,91.648,0,0,1,10.252,20.746h0a3.085,3.085,0,0,0,2.921,2.1h28.046a3.084,3.084,0,0,0,2.921-2.1h0A91.645,91.645,0,0,1,651.2,274.6a32.321,32.321,0,0,0,5.275-17.748h0A32.471,32.471,0,0,0,624,224.379Z" transform="translate(-572.361 -197.365)" fill="#ffff03" stroke="#4c4c4c" stroke-linejoin="round" stroke-width="2.797"/>
      <path id="Path_107" data-name="Path 107" d="M646.4,233.917a26.857,26.857,0,0,1,26.827,26.827" transform="translate(-594.755 -201.258)" fill="none" stroke="#4c4c4c" stroke-linecap="round" stroke-linejoin="round" stroke-width="2.797"/>
      <rect id="Rectangle_65" data-name="Rectangle 65" width="33.531" height="4.793" rx="2.396" transform="translate(34.877 105.152)" fill="#e6e6e6" stroke="#4d4d4d" stroke-linejoin="round" stroke-width="2.089"/>
      <rect id="Rectangle_66" data-name="Rectangle 66" width="28.921" height="4.793" rx="2.396" transform="translate(37.182 114.901)" fill="#e6e6e6" stroke="#4d4d4d" stroke-linejoin="round" stroke-width="2.089"/>
      <path id="Rectangle_67" data-name="Rectangle 67" d="M0,0H12.805a0,0,0,0,1,0,0V0A3.387,3.387,0,0,1,9.418,3.387H3.387A3.387,3.387,0,0,1,0,0V0A0,0,0,0,1,0,0Z" transform="translate(45.264 120.393)" fill="#e6e6e6" stroke="#4d4d4d" stroke-linejoin="round" stroke-width="2.089"/>
      <path id="Path_108" data-name="Path 108" d="M630.994,318.7V305.517a1.617,1.617,0,0,0-.14-.656l-8.792-19.782a1.616,1.616,0,0,1,2.23-2.086h0a1.615,1.615,0,0,0,2.1-.533l3.51-5.265a1.616,1.616,0,0,1,2.487-.246l8.036,8.036a1.616,1.616,0,0,0,2.487-.246l3.545-5.316a1.616,1.616,0,0,1,2.035-.565l2.724,1.288a1.617,1.617,0,0,1,.786,2.118l-10.043,22.6a1.608,1.608,0,0,0-.14.656V318.7" transform="translate(-584.763 -218.628)" fill="#fff" stroke="#4c4c4c" stroke-linejoin="round" stroke-width="2.797"/>
      <line id="Line_8" data-name="Line 8" y1="16.336" transform="translate(51.642)" fill="none" stroke="#4c4c4c" stroke-linecap="round" stroke-linejoin="round" stroke-width="2.797"/>
      <line id="Line_9" data-name="Line 9" y1="5.208" x2="3.007" transform="translate(73.29 16.929)" fill="none" stroke="#4c4c4c" stroke-linecap="round" stroke-linejoin="round" stroke-width="2.797"/>
      <line id="Line_10" data-name="Line 10" y1="8.168" x2="14.147" transform="translate(89.137 29.816)" fill="none" stroke="#4c4c4c" stroke-linecap="round" stroke-linejoin="round" stroke-width="2.797"/>
      <line id="Line_11" data-name="Line 11" x2="6.013" transform="translate(94.938 59.631)" fill="none" stroke="#4c4c4c" stroke-linecap="round" stroke-linejoin="round" stroke-width="2.797"/>
      <line id="Line_12" data-name="Line 12" x1="3.007" y1="5.208" transform="translate(26.988 16.929)" fill="none" stroke="#4c4c4c" stroke-linecap="round" stroke-linejoin="round" stroke-width="2.797"/>
      <line id="Line_13" data-name="Line 13" x1="14.147" y1="8.168" transform="translate(0 29.816)" fill="none" stroke="#4c4c4c" stroke-linecap="round" stroke-linejoin="round" stroke-width="2.797"/>
      <line id="Line_14" data-name="Line 14" x1="6.013" transform="translate(2.334 59.631)" fill="none" stroke="#4c4c4c" stroke-linecap="round" stroke-linejoin="round" stroke-width="2.797"/>
    </g>
  </g>
</svg>
