<svg xmlns="http://www.w3.org/2000/svg" xmlns:xlink="http://www.w3.org/1999/xlink" width="909.843" height="718.019" viewBox="0 0 909.843 718.019"><defs><linearGradient id="a" x1="0.263" y1="-0.064" x2="0.766" y2="0.858" gradientUnits="objectBoundingBox"><stop offset="0" stop-color="#1aa9ec"/><stop offset="0.144" stop-color="#1aa1e6"/><stop offset="0.363" stop-color="#1a8cd8"/><stop offset="0.628" stop-color="#1c6ac0"/><stop offset="0.928" stop-color="#1d3b9f"/><stop offset="1" stop-color="#1e2f97"/></linearGradient><linearGradient id="b" x1="0.405" y1="0.08" x2="0.712" y2="1.169" gradientUnits="objectBoundingBox"><stop offset="0" stop-color="#fff"/><stop offset="0.033" stop-color="#e4e4e4"/><stop offset="0.098" stop-color="#b4b4b4"/><stop offset="0.168" stop-color="#898989"/><stop offset="0.243" stop-color="#646464"/><stop offset="0.323" stop-color="#454545"/><stop offset="0.41" stop-color="#2b2b2b"/><stop offset="0.505" stop-color="#181818"/><stop offset="0.616" stop-color="#0a0a0a"/><stop offset="0.753" stop-color="#020202"/><stop offset="1"/></linearGradient><linearGradient id="c" x1="0.476" y1="0.247" x2="0.589" y2="1.399" gradientUnits="objectBoundingBox"><stop offset="0" stop-color="#fff"/><stop offset="0.28" stop-color="#b0b0b0"/><stop offset="0.634" stop-color="#525252"/><stop offset="0.882" stop-color="#161616"/><stop offset="1"/></linearGradient><linearGradient id="d" x1="0.331" y1="0.143" x2="0.688" y2="0.99" gradientUnits="objectBoundingBox"><stop offset="0" stop-color="#fff"/><stop offset="0.024" stop-color="#f4f4f4"/><stop offset="0.185" stop-color="#b4b4b4"/><stop offset="0.343" stop-color="#7d7d7d"/><stop offset="0.495" stop-color="#505050"/><stop offset="0.64" stop-color="#2d2d2d"/><stop offset="0.776" stop-color="#141414"/><stop offset="0.9" stop-color="#050505"/><stop offset="1"/></linearGradient></defs><g transform="translate(-813 -196)"><g transform="translate(813 196)"><path d="M801.57,681.457c-239.263-35.979-266.428,97.971-405.307,77.982C270.032,741.317,294.507,626.148,245.44,524.121c-14.455-29.956-35.209-58.818-68.068-83.734-44.251-33.625-70.758-70.04-83.628-105.584C55.356,228.4,139.255,130.26,235.2,141.817c102.192,12.376,192.5,135.157,308.373,2.025C576.762,105.726,614.384,80.7,652.23,65.148c64.564-26.506,129.841-25.358,174.97-14.3v.053c20.861,5.151,37.4,12.434,47.643,20.047,48.244,36.2,67.137,117.029-1.7,159.58-77.382,47.866-30.286,149.723,48.462,209.854C1027.25,521.054,1040.775,717.437,801.57,681.457Z" transform="translate(-84.227 -43.466)" fill="url(#a)"/><path d="M793.9,681.459c-239.263-35.979-266.428,97.971-405.307,77.982C225.23,736,314.281,550.081,169.7,440.388c-44.251-33.625-70.758-70.04-83.628-105.584-1.079-2.993,10.34-17.245,12.232-20.063,35.358-52.486,98.912-96.929,161.5-109.108,41.455-8.059,83.288,4.008,115.445,30.791,9.452,7.868,18.474,16.278,28.346,23.63,55.038,40.908,129.682,63.416,193.151,37.346,48.579-19.93,84.229-68.179,89.1-120.479,4.327-46.165-14.019-80.614-41.29-111.772,94.409-38.776,190.3-18.4,222.613,5.805,48.244,36.2,67.137,117.029-1.7,159.58C788.1,278.4,835.192,380.258,913.94,440.388,1019.582,521.055,1033.106,717.438,793.9,681.459Z" transform="translate(-76.558 -43.467)" opacity="0.47" fill="url(#b)" style="mix-blend-mode:overlay;isolation:isolate"/><path d="M648.407,380.053C409.144,344.073,381.979,478.024,243.1,458.035c-93.155-13.359-104.217-79.567-123.387-154.375a117.362,117.362,0,0,1,29.52-21.525c18.346-9.362,38.882-13.471,59.142-17.469q73.522-14.457,147.15-28.914c10.079,14.13,30.068,15.39,47.372,16.81,36.527,3.126,72.236,13.2,108.816,15.555a261.147,261.147,0,0,0,123.217-22.29c28.532-12.812,55.1-31.158,74.319-55.91C726.772,167.408,736.3,140.9,739.2,113.3a284.322,284.322,0,0,0,29.244,25.682C874.087,219.649,887.612,416.032,648.407,380.053Z" transform="translate(68.936 257.939)" opacity="0.47" fill="url(#c)" style="mix-blend-mode:overlay;isolation:isolate"/><path d="M670.683,675.418C431.42,639.439,404.254,773.389,265.376,753.4c-93.154-13.359-104.217-79.567-123.387-154.375-6.789-26.565-14.566-54.161-27.437-80.943,10.026-18.676,16.156-39.648,23.933-59.53C148.671,432.6,163.9,406.146,189.361,394.7c25.082-11.228,54.873-5.2,79.354,7.23,24.534,12.482,45.4,30.887,68.344,46.054,49.616,32.753,111.224,50.275,169.606,38.717,58.376-11.5,111.5-55.2,125.679-112.973,12.1-49.456-2.956-106.684,25.523-148.958,8.984-13.365,21.631-23.827,31.817-36.256,19.553-23.768,27.819-55.144,25.847-85.6a133.744,133.744,0,0,0-10.186-43.757c-1.914-4.545-5.364-9.367-9.032-14.3,20.86,5.151,37.4,12.434,47.643,20.047,48.244,36.2,67.137,117.029-1.7,159.58-67.2,41.567-40.53,123.876,19.218,184.172a284.3,284.3,0,0,0,29.244,25.682C896.363,515.015,909.887,711.4,670.683,675.418Z" transform="translate(46.661 -37.427)" opacity="0.47" fill="url(#d)" style="mix-blend-mode:overlay;isolation:isolate"/></g><g transform="translate(1109.113 451.358)"><rect width="314.505" height="207.719" rx="3.503" transform="translate(33.567)" fill="#1e2f97"/><path d="M495.569,226.67H130.143c-6.125,0-9.793-11.276-7.336-17.187v-.032l29.709-63.729c1.731-4.153,7.127-7.458,12.1-7.458H461.1c4.969,0,10.368,3.3,12.1,7.458l29.713,63.852a.1.1,0,0,1,.028.059C505.334,215.576,501.662,226.67,495.569,226.67Z" transform="translate(-122.035 78.246)" fill="#1e2f97"/><path d="M460.628,136.035H164.153c-4.977,0-10.38,3.3-12.1,7.458l-29,70.111c-2.453,5.928.485,10.85,6.622,10.85H495.105c6.133,0,9.075-4.922,6.618-10.85l-29-70.111C471.008,139.336,465.609,136.035,460.628,136.035Z" transform="translate(-121.572 71.684)" fill="#797df5"/><path d="M241.139,151.808H168.894a3.367,3.367,0,0,0-2.95,1.814l-7.067,17.085c-.6,1.447.118,2.646,1.613,2.646h89.049c1.495,0,2.213-1.2,1.613-2.646l-7.068-17.085A3.365,3.365,0,0,0,241.139,151.808Z" transform="translate(-14.196 118.118)" fill="#fefefe"/><rect width="305.728" height="188.865" rx="3.056" transform="translate(37.955 9.427)" fill="#4adfde"/><path d="M176.432,87.175a3.443,3.443,0,1,1-3.443-3.443A3.445,3.445,0,0,1,176.432,87.175Z" transform="translate(17.832 -82.291)" fill="#edc043"/><g transform="translate(23.245 215.867)"><path d="M225.723,147.184H208.67c-2.3,0-4.405-.615-4.7-1.373l-1.8-4.626c-.284-.73,1.309-1.321,3.557-1.321h16.671c2.248,0,4.35.592,4.689,1.321l2.165,4.626C229.6,146.569,228.023,147.184,225.723,147.184Z" transform="translate(90.521 -132.911)" fill="#fefefe"/><path d="M215.03,147.184H197.981c-2.3,0-4.33-.615-4.536-1.373l-1.234-4.626c-.2-.73,1.471-1.321,3.719-1.321H212.6c2.248,0,4.275.592,4.528,1.321l1.6,4.626C218.986,146.569,217.333,147.184,215.03,147.184Z" transform="translate(61.263 -132.911)" fill="#fefefe"/><path d="M204.348,147.184H187.295c-2.3,0-4.255-.615-4.366-1.373l-.67-4.626c-.1-.73,1.633-1.321,3.885-1.321H202.81c2.252,0,4.2.592,4.37,1.321l1.029,4.626C208.375,146.569,206.647,147.184,204.348,147.184Z" transform="translate(31.997 -132.911)" fill="#fefefe"/><path d="M193.664,147.184H176.615c-2.3,0-4.18-.615-4.2-1.373l-.1-4.626c-.016-.73,1.794-1.321,4.043-1.321h16.671c2.248,0,4.133.592,4.2,1.321l.465,4.626C197.77,146.569,195.968,147.184,193.664,147.184Z" transform="translate(2.729 -132.911)" fill="#fefefe"/><path d="M183.337,147.184H166.283c-2.3,0-4.106-.615-4.031-1.373l.465-4.626c.075-.73,1.956-1.321,4.2-1.321h16.671c2.248,0,4.058.592,4.042,1.321l-.1,4.626C187.517,146.569,185.636,147.184,183.337,147.184Z" transform="translate(-26.891 -132.911)" fill="#fefefe"/><path d="M173.084,147.184H156.035c-2.3,0-4.031-.615-3.861-1.373l1.025-4.626c.166-.73,2.122-1.321,4.37-1.321H174.24c2.248,0,3.987.592,3.881,1.321l-.67,4.626C177.34,146.569,175.383,147.184,173.084,147.184Z" transform="translate(-56.59 -132.911)" fill="#fefefe"/><path d="M239.873,150.348H204.5c-1.282,0-2.445-.355-2.6-.789l-2.189-6.271c-.146-.418.749-.757,2-.757h34.552c1.25,0,2.426.339,2.619.757l2.93,6.271C242.026,149.993,241.154,150.348,239.873,150.348Z" transform="translate(83.368 -125.06)" fill="#fefefe"/><path d="M215.911,150.348h-21.6c-1.282,0-2.406-.355-2.508-.789l-1.483-6.271c-.1-.418.836-.757,2.086-.757h21.1c1.25,0,2.37.339,2.5.757l1.972,6.271C218.116,149.993,217.189,150.348,215.911,150.348Z" transform="translate(55.708 -125.06)" fill="#fefefe"/><path d="M205.717,150.348h-21.6c-1.282,0-2.362-.355-2.418-.789l-.781-6.271c-.051-.418.919-.757,2.169-.757H204.19c1.25,0,2.331.339,2.418.757l1.266,6.271C207.965,149.993,206.994,150.348,205.717,150.348Z" transform="translate(28.045 -125.06)" fill="#fefefe"/><path d="M195.524,150.348h-21.6c-1.282,0-2.323-.355-2.331-.789l-.075-6.271c0-.418,1.006-.757,2.256-.757h21.1c1.25,0,2.3.339,2.335.757l.564,6.271C197.812,149.993,196.8,150.348,195.524,150.348Z" transform="translate(0.38 -125.06)" fill="#fefefe"/><path d="M185.8,150.348H164.2c-1.282,0-2.284-.355-2.24-.789l.627-6.271c.043-.418,1.089-.757,2.343-.757h21.1c1.25,0,2.256.339,2.248.757l-.142,6.271C188.13,149.993,187.085,150.348,185.8,150.348Z" transform="translate(-27.756 -125.06)" fill="#fefefe"/><path d="M176.142,150.348h-21.6c-1.282,0-2.244-.355-2.153-.789l1.333-6.271c.091-.418,1.175-.757,2.425-.757h21.1c1.254,0,2.22.339,2.165.757l-.844,6.271C178.509,149.993,177.424,150.348,176.142,150.348Z" transform="translate(-55.953 -125.06)" fill="#fefefe"/><path d="M217.778,153.749h-1.021c-3.467,0-6.7-.994-7.225-2.209L207.8,147.51c-.5-1.179,1.834-2.13,5.218-2.13h.994c3.388,0,6.574.95,7.127,2.13l1.881,4.031C223.592,152.755,221.245,153.749,217.778,153.749Z" transform="translate(107.013 -116.672)" fill="#fefefe"/><path d="M236.811,157.318h-24.57c-3.707,0-7.107-1.1-7.6-2.445l-1.507-4.161c-.473-1.305,2.074-2.358,5.691-2.358h23.959c3.613,0,7.032,1.053,7.643,2.358l1.948,4.161C243.007,156.218,240.515,157.318,236.811,157.318Z" transform="translate(93.312 -107.917)" fill="#fefefe"/><path d="M223.472,157.318H198.906c-3.707,0-6.961-1.1-7.261-2.445l-.935-4.161c-.292-1.305,2.4-2.358,6.014-2.358h23.959c3.617,0,6.89,1.053,7.32,2.358l1.373,4.161C229.822,156.218,227.179,157.318,223.472,157.318Z" transform="translate(56.828 -107.917)" fill="#fefefe"/><path d="M222.739,153.749H206.451c-3,0-5.715-.86-6.062-1.917l-1.5-4.61c-.335-1.018,1.771-1.842,4.7-1.842h15.9c2.93,0,5.64.824,6.05,1.842l1.865,4.61C227.827,152.889,225.74,153.749,222.739,153.749Z" transform="translate(80.858 -116.672)" fill="#fefefe"/><path d="M213.2,153.749H196.907c-3,0-5.628-.86-5.861-1.917l-1.037-4.61c-.229-1.018,1.96-1.842,4.89-1.842h15.9c2.926,0,5.549.824,5.861,1.842l1.392,4.61C218.374,152.889,216.2,153.749,213.2,153.749Z" transform="translate(54.78 -116.672)" fill="#fefefe"/><path d="M203.658,153.749H187.37c-3,0-5.541-.86-5.667-1.917l-.564-4.61c-.126-1.018,2.149-1.842,5.076-1.842h15.9c2.93,0,5.466.824,5.671,1.842l.923,4.61C208.923,152.889,206.664,153.749,203.658,153.749Z" transform="translate(28.699 -116.672)" fill="#fefefe"/><path d="M194.129,153.749H177.841c-3,0-5.454-.86-5.474-1.917l-.095-4.61c-.02-1.018,2.339-1.842,5.269-1.842h15.9c2.93,0,5.383.824,5.486,1.842l.454,4.61C199.481,152.889,197.131,153.749,194.129,153.749Z" transform="translate(2.611 -116.672)" fill="#fefefe"/><path d="M184.885,153.749H168.6c-3.005,0-5.368-.86-5.281-1.917l.379-4.61c.083-1.018,2.524-1.842,5.454-1.842h15.9c2.93,0,5.3.824,5.3,1.842l-.016,4.61C190.324,152.889,187.886,153.749,184.885,153.749Z" transform="translate(-23.762 -116.672)" fill="#fefefe"/><path d="M175.716,153.749H159.424c-3,0-5.277-.86-5.084-1.917l.848-4.61c.189-1.018,2.713-1.842,5.644-1.842h15.9c2.93,0,5.218.824,5.111,1.842l-.489,4.61C181.242,152.889,178.718,153.749,175.716,153.749Z" transform="translate(-50.211 -116.672)" fill="#fefefe"/><path d="M166.547,153.749H150.258c-3,0-5.19-.86-4.887-1.917l1.317-4.61c.292-1.018,2.9-1.842,5.829-1.842h15.9c2.93,0,5.135.824,4.922,1.842l-.958,4.61C172.163,152.889,169.548,153.749,166.547,153.749Z" transform="translate(-76.662 -116.672)" fill="#fefefe"/><path d="M166.482,150.348h-21.6c-1.282,0-2.2-.355-2.063-.789l2.035-6.271c.138-.418,1.258-.757,2.512-.757h21.1c1.25,0,2.181.339,2.078.757l-1.55,6.271C168.888,149.993,167.764,150.348,166.482,150.348Z" transform="translate(-84.15 -125.06)" fill="#fefefe"/><path d="M162.842,147.184H145.793c-2.3,0-3.956-.615-3.7-1.373l1.6-4.626c.252-.73,2.28-1.321,4.532-1.321h16.667c2.252,0,3.916.592,3.719,1.321l-1.234,4.626C167.176,146.569,165.145,147.184,162.842,147.184Z" transform="translate(-86.3 -132.911)" fill="#fefefe"/><path d="M278.146,157.318H162.578c-3.707,0-6.539-1.1-6.33-2.445l.655-4.161c.2-1.305,3.3-2.358,6.91-2.358h112.7c3.613,0,6.756,1.053,7.016,2.358l.832,4.161C284.638,156.218,281.85,157.318,278.146,157.318Z" transform="translate(-44.593 -107.917)" fill="#fefefe"/><path d="M165.969,157.318H154.117c-3.707,0-6.44-1.1-6.109-2.445l1.029-4.161c.323-1.305,3.514-2.358,7.131-2.358h11.56c3.613,0,6.358,1.053,6.125,2.358l-.737,4.161C172.875,156.218,169.676,157.318,165.969,157.318Z" transform="translate(-68.899 -107.917)" fill="#fefefe"/><path d="M157.592,157.318H145.74c-3.707,0-6.342-1.1-5.888-2.445l1.4-4.161c.438-1.305,3.723-2.358,7.34-2.358h11.56c3.613,0,6.263,1.053,5.912,2.358l-1.112,4.161C164.6,156.218,161.3,157.318,157.592,157.318Z" transform="translate(-92.98 -107.917)" fill="#fefefe"/><path d="M157.358,157.318H133.6c-3.707,0-6.2-1.1-5.569-2.445l1.944-4.161c.611-1.305,4.031-2.358,7.647-2.358h23.17c3.617,0,6.164,1.053,5.687,2.358l-1.518,4.161C164.468,156.218,161.061,157.318,157.358,157.318Z" transform="translate(-127.929 -107.917)" fill="#fefefe"/><path d="M172.944,153.749h-39c-3,0-5.032-.86-4.539-1.917l2.153-4.61c.477-1.018,3.238-1.842,6.168-1.842h38.063c2.926,0,5.036.824,4.705,1.842l-1.5,4.61C178.658,152.889,175.945,153.749,172.944,153.749Z" transform="translate(-123.796 -116.672)" fill="#fefefe"/><path d="M162.651,150.348H132.587c-1.282,0-2.153-.355-1.948-.789l2.93-6.271c.2-.418,1.369-.757,2.619-.757h29.37c1.25,0,2.142.339,1.988.757l-2.287,6.271C165.1,149.993,163.933,150.348,162.651,150.348Z" transform="translate(-120.042 -125.06)" fill="#fefefe"/><path d="M152.6,147.184H135.55c-2.3,0-3.877-.615-3.522-1.373l2.161-4.626c.343-.73,2.441-1.321,4.689-1.321H155.55c2.248,0,3.841.592,3.557,1.321l-1.8,4.626C157.009,146.569,154.9,147.184,152.6,147.184Z" transform="translate(-116.009 -132.911)" fill="#fefefe"/><path d="M152.379,142.053H137.325c-2.631,0-4.445-.678-4.054-1.518l.438-.935c.386-.828,2.808-1.5,5.407-1.5h14.861c2.6,0,4.449.671,4.125,1.5l-.367.935C157.407,141.374,155.009,142.053,152.379,142.053Z" transform="translate(-112.361 -138.101)" fill="#fefefe"/><path d="M162.308,142.053H147.254c-2.631,0-4.528-.678-4.24-1.518l.323-.935c.288-.828,2.623-1.5,5.222-1.5h14.865c2.6,0,4.528.671,4.307,1.5l-.252.935C167.254,141.374,164.939,142.053,162.308,142.053Z" transform="translate(-83.605 -138.101)" fill="#fefefe"/><path d="M172.243,142.053h-15.05c-2.635,0-4.614-.678-4.429-1.518l.209-.935c.185-.828,2.441-1.5,5.04-1.5h14.861c2.6,0,4.61.671,4.492,1.5l-.138.935C177.106,141.374,174.873,142.053,172.243,142.053Z" transform="translate(-54.854 -138.101)" fill="#fefefe"/><path d="M182.183,142.053h-15.05c-2.631,0-4.7-.678-4.614-1.518l.095-.935c.083-.828,2.256-1.5,4.855-1.5h14.865c2.6,0,4.689.671,4.67,1.5l-.02.935C186.963,141.374,184.818,142.053,182.183,142.053Z" transform="translate(-26.108 -138.101)" fill="#fefefe"/><path d="M222.275,142.053h-15.05c-2.635,0-5.032-.678-5.36-1.518l-.367-.935c-.319-.828,1.526-1.5,4.125-1.5h14.865c2.6,0,5.017.671,5.4,1.5l.438.935C226.72,141.374,224.906,142.053,222.275,142.053Z" transform="translate(88.546 -138.101)" fill="#fefefe"/><path d="M212.226,142.053H197.172c-2.631,0-4.946-.678-5.171-1.518l-.248-.935c-.225-.828,1.708-1.5,4.3-1.5h14.865c2.6,0,4.938.671,5.222,1.5l.323.935C216.754,141.374,214.857,142.053,212.226,142.053Z" transform="translate(59.91 -138.101)" fill="#fefefe"/><path d="M202.184,142.053H187.13c-2.631,0-4.863-.678-4.985-1.518l-.134-.935c-.122-.828,1.889-1.5,4.488-1.5h14.865c2.6,0,4.851.671,5.036,1.5l.209.935C206.794,141.374,204.815,142.053,202.184,142.053Z" transform="translate(31.266 -138.101)" fill="#fefefe"/><path d="M192.143,142.053h-15.05c-2.631,0-4.78-.678-4.8-1.518l-.02-.935c-.02-.828,2.074-1.5,4.673-1.5h14.861c2.6,0,4.772.671,4.855,1.5l.095.935C196.841,141.374,194.778,142.053,192.143,142.053Z" transform="translate(2.617 -138.101)" fill="#fefefe"/></g></g><g transform="translate(1111.427 435.928)"><path d="M435.2,90.1V266.218a10.643,10.643,0,0,1-10.672,10.641H133.264a10.6,10.6,0,0,1-8.61-4.425,10.243,10.243,0,0,1-2.031-6.216V90.1a10.637,10.637,0,0,1,10.641-10.645H424.532A10.644,10.644,0,0,1,435.2,90.1Z" transform="translate(-122.619 -79.452)" fill="#fff"/><rect width="312.584" height="20.316" rx="0.867" fill="#1e2f97"/><circle cx="3.174" cy="3.174" r="3.174" transform="translate(35.389 6.984)" fill="#fff"/><path d="M135.283,84.4a3.173,3.173,0,1,1-3.171-3.175A3.174,3.174,0,0,1,135.283,84.4Z" transform="translate(-104.031 -74.242)" fill="#fff"/><circle cx="3.174" cy="3.174" r="3.174" transform="translate(14.42 6.984)" fill="#fff"/><path d="M297.1,87.575H167.259a3.175,3.175,0,0,1-3.175-3.175h0a3.173,3.173,0,0,1,3.175-3.175H297.1a3.173,3.173,0,0,1,3.175,3.175h0A3.175,3.175,0,0,1,297.1,87.575Z" transform="translate(-0.562 -74.242)" fill="#fff"/></g><rect width="139.681" height="69.914" rx="1.503" transform="translate(1316.209 489.384)" opacity="0.1"/><g transform="translate(1307.195 485.304)"><rect width="139.681" height="69.914" rx="1.503" fill="#1e2f97"/><rect width="45.802" height="16.648" transform="translate(10.395 7.228)" fill="#fff"/><rect width="73.603" height="8.274" transform="translate(10.395 39.038)" fill="#fff"/><rect width="73.603" height="8.274" transform="translate(10.395 51.351)" fill="#fff"/><g transform="translate(93.15 7.869)"><path d="M234.233,148.146H195.879V93.969h38.354Zm-32.734-5.62h27.118V99.589H201.5Z" transform="translate(-195.879 -93.969)" fill="#fff"/></g></g><path d="M295.074,98.056V233.671a8.2,8.2,0,0,1-8.219,8.188h-162.2a10.243,10.243,0,0,1-2.031-6.216V89.841H286.855A8.205,8.205,0,0,1,295.074,98.056Z" transform="translate(988.808 387.052)" opacity="0.1"/><g transform="translate(1380.923 350.925)"><rect width="77.057" height="44.94" rx="1.453" fill="#4adfde"/><g transform="translate(9.283 13.846)"><path d="M196.447,61.412V68.3h7.273v-6.89h3.139v17.2H203.72v-7.58h-7.273v7.58h-3.139v-17.2Z" transform="translate(-193.308 -61.412)" fill="#fff"/><path d="M202.149,64.039h-4.9V61.412h12.987v2.627h-4.95V78.611h-3.139Z" transform="translate(-181.7 -61.412)" fill="#fff"/><path d="M215.88,71.6c-.1-2.22-.229-4.9-.205-7.221H215.6c-.56,2.09-1.278,4.413-2.043,6.582l-2.5,7.45h-2.422l-2.3-7.347c-.659-2.2-1.274-4.543-1.735-6.685h-.047c-.079,2.244-.181,4.973-.308,7.32l-.383,6.918h-2.934l1.148-17.2h4.133l2.248,6.918c.611,2.015,1.148,4.054,1.581,5.967h.075c.461-1.862,1.045-3.979,1.708-5.995l2.374-6.89h4.082l1,17.2h-3.064Z" transform="translate(-170.873 -61.412)" fill="#fff"/><path d="M206.393,61.412h3.139V75.981H216.6v2.631h-10.2Z" transform="translate(-154.787 -61.412)" fill="#fff"/></g></g><g transform="translate(1493.81 519.014)"><rect width="62.624" height="45.433" rx="1.392" fill="#7dd6f6"/><g transform="translate(10.354 13.713)"><path d="M235.565,121.154a11.022,11.022,0,0,1-4.492.773c-5.518,0-8.87-3.455-8.87-8.744,0-5.727,3.972-9.185,9.288-9.185a9.982,9.982,0,0,1,4.228.777l-.694,2.528a8.417,8.417,0,0,0-3.407-.67c-3.534,0-6.085,2.216-6.085,6.4,0,3.818,2.24,6.267,6.058,6.267a8.885,8.885,0,0,0,3.459-.643Z" transform="translate(-222.203 -103.998)" fill="#fff"/><path d="M226.779,118.216a8.808,8.808,0,0,0,4.2,1.108c2.039,0,3.175-.954,3.175-2.374,0-1.313-.88-2.09-3.1-2.891-2.863-1.029-4.7-2.552-4.7-5.056,0-2.836,2.374-5,6.141-5a9.192,9.192,0,0,1,4.181.879l-.777,2.552a7.406,7.406,0,0,0-3.455-.824c-2.011,0-2.891,1.085-2.891,2.09,0,1.341,1.006,1.96,3.329,2.863,3.017,1.136,4.488,2.658,4.488,5.159,0,2.788-2.114,5.21-6.6,5.21a10.3,10.3,0,0,1-4.693-1.081Z" transform="translate(-210.775 -103.998)" fill="#fff"/><path d="M230.18,118.216a8.783,8.783,0,0,0,4.2,1.108c2.035,0,3.171-.954,3.171-2.374,0-1.313-.876-2.09-3.1-2.891-2.863-1.029-4.693-2.552-4.693-5.056,0-2.836,2.374-5,6.141-5a9.161,9.161,0,0,1,4.177.879l-.773,2.552a7.411,7.411,0,0,0-3.459-.824c-2.011,0-2.891,1.085-2.891,2.09,0,1.341,1.01,1.96,3.333,2.863,3.017,1.136,4.488,2.658,4.488,5.159,0,2.788-2.118,5.21-6.6,5.21a10.328,10.328,0,0,1-4.7-1.081Z" transform="translate(-200.774 -103.998)" fill="#fff"/></g></g><rect width="46.585" height="33.796" rx="1.036" transform="translate(1502.592 417.004)" fill="#4adfde"/><g transform="translate(1515.653 423.382)"><path d="M225.116,84.748c1.621-.024,1.806-.9,1.806-1.641a17.625,17.625,0,0,0-.138-1.854,13.145,13.145,0,0,1-.166-1.877c0-2.177,1.392-3.1,3.451-3.1h.674v1.668h-.418c-1.2,0-1.621.67-1.621,1.806a8.429,8.429,0,0,0,.162,1.459c.047.509.138,1.065.138,1.668a2.235,2.235,0,0,1-1.85,2.591v.047A2.263,2.263,0,0,1,229,88.132a16.892,16.892,0,0,1-.138,1.688,8.472,8.472,0,0,0-.162,1.459c0,1.16.461,1.83,1.621,1.83h.418v1.645h-.674c-2.011,0-3.451-.832-3.451-3.171a12.778,12.778,0,0,1,.166-1.854,17.265,17.265,0,0,0,.138-1.83c0-.67-.185-1.621-1.806-1.645Z" transform="translate(-225.116 -76.273)" fill="#fff"/><path d="M235.381,86.255c-1.6.024-1.806.974-1.806,1.645a17.4,17.4,0,0,0,.162,1.83,17.281,17.281,0,0,1,.166,1.854c0,2.339-1.436,3.171-3.451,3.171h-.674V93.109h.418c1.16-.024,1.6-.67,1.6-1.83a10.862,10.862,0,0,0-.142-1.459,12.533,12.533,0,0,1-.138-1.688c-.024-1.621.67-2.343,1.83-2.619v-.047a2.239,2.239,0,0,1-1.83-2.591,12.5,12.5,0,0,1,.138-1.668,10.8,10.8,0,0,0,.142-1.459c0-1.136-.418-1.783-1.6-1.806h-.418V76.273h.674c2.059,0,3.451.927,3.451,3.1a17.8,17.8,0,0,1-.166,1.877,17.747,17.747,0,0,0-.162,1.854c0,.738.209,1.617,1.806,1.641Z" transform="translate(-211.395 -76.273)" fill="#fff"/></g><g transform="translate(1069.616 471.661)"><rect width="209.873" height="152.025" rx="2.081" fill="#1ba8ec"/><g transform="translate(22.762 16.622)"><path d="M117.792,104.937,139.314,94.49v4.086l-17.069,7.951v.091l17.069,7.99v4.042l-21.522-10.443Z" transform="translate(-117.792 -87.545)" fill="#fff"/><path d="M124.048,125.653,135.13,92.729h3.9l-11.082,32.924Z" transform="translate(-99.375 -92.729)" fill="#fff"/><path d="M150.063,108.3,128.541,118.65v-4.042l17.349-7.99v-.091l-17.349-7.994V94.49l21.522,10.357Z" transform="translate(-86.148 -87.545)" fill="#fff"/></g><rect width="28.029" height="5.266" transform="translate(22.761 67.428)" fill="#fff"/><rect width="28.029" height="5.266" transform="translate(22.761 81.421)" fill="#fff"/><rect width="28.029" height="5.266" transform="translate(22.761 95.414)" fill="#fff"/><rect width="28.029" height="5.266" transform="translate(22.761 109.407)" fill="#fff"/><rect width="28.029" height="5.266" transform="translate(22.761 123.399)" fill="#fff"/><rect width="84.757" height="5.266" transform="translate(59.385 67.428)" fill="#fff"/><rect width="84.757" height="5.266" transform="translate(59.385 81.421)" fill="#fff"/><rect width="84.757" height="5.266" transform="translate(59.385 95.414)" fill="#fff"/><rect width="84.757" height="5.266" transform="translate(59.385 109.407)" fill="#fff"/><rect width="84.757" height="5.266" transform="translate(59.385 123.399)" fill="#fff"/><rect width="42.378" height="5.266" transform="translate(155.769 67.428)" fill="#fff"/><rect width="42.378" height="5.266" transform="translate(155.769 81.421)" fill="#fff"/><rect width="42.378" height="5.266" transform="translate(155.769 95.414)" fill="#fff"/><rect width="42.378" height="5.266" transform="translate(155.769 109.407)" fill="#fff"/><rect width="42.378" height="5.266" transform="translate(155.769 123.399)" fill="#fff"/></g><g transform="translate(1346.566 525.521)" opacity="0.1"><path d="M249.991,125.206c-.631-.091-1.136-.154-1.333-.162l-3.123,8.227-19.262,1.278a39.334,39.334,0,0,0-11.571-4.177,13.179,13.179,0,0,1,0-3.7c1.542.032,2.8-.095,3.167-.493.686-.738,1.8-7.407,1.467-13.035,3.175-1.124,3.96-3.021,1.676-5.537-4.91-5.419-7.714-4.228-17.124-1.025-7.489,2.548-4.922,15.854.339,18.643a16.217,16.217,0,0,0,2.268,1,10.318,10.318,0,0,1-2.6,3.293l.442.126a13.084,13.084,0,0,0-6.129,1.8c-8.053,4.476-8.964,45.994-8.2,61.982a5.093,5.093,0,0,0,2.453,1.554,261.787,261.787,0,0,0,5.143,35.98l-12.3,56.22.927.272-1.089,1.053c-.118-.067-.213-.114-.339-.189-.939,1.077-2.481,3.084-2.56,4.587.611,1.144,15.91,3.613,16.127,2.6.114-1.507-3.987-3.676-5.9-4.618-.107-.008-.17-.028-.276-.039l.055-1.968,22.74-55.534L214.421,215c2.39,5.573,4.938,11.161,7.75,16.789l-.316,57.451.9.079-.71,1.045c-.13-.043-.237-.075-.375-.122-.694,1.238-1.783,3.5-1.546,4.989.84,1,16.34.473,16.34-.556-.2-1.5-4.673-2.836-6.736-3.388-.11.008-.177,0-.28.012l-.379-2.039,10.633-58.48-9.323-37.893a9.878,9.878,0,0,0,1.526-.876c-3.029-10.81-1.83-23.612-1.818-38.8,8.657-2.642,23.06-9.438,26.464-12.08l3.1-13.843c-.363-.126-.785-.252-1.227-.375l1.948-13.066,1.132-7.635-4.626-.962-2.489,7.17Z" transform="translate(-182.243 -97.181)"/><path d="M207.842,107.385a8.877,8.877,0,0,0-2.552-4.354,1.966,1.966,0,0,0-2.615-.623c-1.242.714.292,3.522-.517,4.772-1.278-.97-2.441.576.193,3.068l4.63.962A17.483,17.483,0,0,0,207.842,107.385Z" transform="translate(-127.71 -102.171)"/></g><g transform="translate(1510.923 628.907)"><g transform="translate(14.935)"><path d="M244.34,281.913c-2.039-23.707-26.156-70.75-12.439-76.37s28.589,4.551,35.014,22.8c0,0,11.382-13.784,3.5-31.437s-13.472-34.478-7.627-36.84,20.4,10.826,22.859,20.6c0,0,20.232-7.391,12.037-24.594-9.974-20.922-5.249-30.648,2.264-26.89s34.426,27.359,21.226,44.223-13.52,19.712-13.52,19.712,4.445,8.01,17.609,1.447,27.059,3.589,15.815,19.242-29.776,4.311-40.661,9.682-26.2,27.331-4.879,24.539,40.023,19.01,11.536,26.633S244.34,281.913,244.34,281.913Z" transform="translate(-227.704 -128.385)" fill="#797df5"/><path d="M265.466,167.18a1.363,1.363,0,0,1,1.526.623l6.227,9.777c1.617,2.536,3.451,5.415,3.968,8.42a19.452,19.452,0,0,1,.13,4.129,13.87,13.87,0,0,0,.3,4.33c11.674-24.212,19.858-47.784,18.742-59.2a.786.786,0,0,1,.994-.848,1.444,1.444,0,0,1,1.191,1.195c1.049,10.72-5.975,32-16.387,54.564l.339-.1a46,46,0,0,1,19.649-1.156l.808.122a15.071,15.071,0,0,0,4.587.268,10.512,10.512,0,0,0,4.618-2.5,1.217,1.217,0,0,1,1.546.292.969.969,0,0,1,.095,1.436,11.787,11.787,0,0,1-5.368,2.816,17.023,17.023,0,0,1-5.273-.272l-.793-.122a44.057,44.057,0,0,0-18.761,1.1l-.868.268c-.576.177-1.152.355-1.739.513-.028,0-.059-.008-.087,0-9.544,20.252-21.648,41.2-33.006,56.26,3.175-1.428,7.1-.958,10.9-.5a37.826,37.826,0,0,0,6.578.43,27.925,27.925,0,0,0,8.1-2.094l13.808-5.111a1.365,1.365,0,0,1,1.518.639.84.84,0,0,1-.3,1.317L274.706,248.9a29.333,29.333,0,0,1-8.641,2.2,39.871,39.871,0,0,1-6.977-.438c-3.719-.458-7.233-.887-10.136.469a3.713,3.713,0,0,1-2.895.379,94.513,94.513,0,0,1-12.475,13.543,1.147,1.147,0,0,1-1.416-.13c-.043-.035-.087-.075-.13-.114a.993.993,0,0,1-.138-1.447c4.95-4.208,10.451-10.6,16.1-18.335a.887.887,0,0,1,.012-.872c1.692-2.52,1.51-6.606-.5-11.209a65.992,65.992,0,0,0-4.035-7.391c-.966-1.609-1.932-3.214-2.8-4.851-2.84-5.324-3.83-9.781-2.946-13.251.134-.509.718-.706,1.309-.446a1.322,1.322,0,0,1,.836,1.392c-.769,3,.146,6.973,2.713,11.792.848,1.593,1.79,3.159,2.733,4.725a67.9,67.9,0,0,1,4.188,7.7,19.815,19.815,0,0,1,1.818,7.7,352.45,352.45,0,0,0,25.186-43.588c-1.53-2.414-1.479-4.843-1.388-7.194a17.465,17.465,0,0,0-.1-3.731c-.434-2.54-2.122-5.186-3.609-7.521l-6.231-9.773A.849.849,0,0,1,265.466,167.18Z" transform="translate(-216.103 -110.68)" fill="#fff"/></g><path d="M251.076,163.29c6.074,1.021,15.358,22.7,5.518,36.11l.039-.024.012-.02.016-.02c2.97-1.877,5.967-3.672,9.059-5.344,3.743-2.094,7.588-4,11.461-5.742a140.83,140.83,0,0,1,13.267-5.226c-4.279-4.681-4.09-26.578,2.287-32.565,5.166.872,13.2,20.141,3.285,30.861l.016,0c2.138-.611,4.319-1.16,6.476-1.637,2.725-.607,5.466-1.116,8.2-1.487a88.448,88.448,0,0,1,13.847-.911,9.478,9.478,0,0,1-1.2-2.844,29.091,29.091,0,0,1-.919-7c-.213-6.827,1.175-14.845,4.472-17.929,2.713.442,6.31,6.685,6.855,13.626a20.6,20.6,0,0,1-.146,4.922,15.1,15.1,0,0,1-5.076,9.363,69.733,69.733,0,0,1,18.643,3.676c-1.3-3.534-.891-11.832,1.767-14.308,2.556.418,6.622,10.376.939,15.306a60.2,60.2,0,0,1,8.337,4.027c.383.209.761.418,1.128.647l.02.016.008,0c9.382,2.118,10.4,15.748,7.75,17.665-4.579-1.4-9.907-11.39-9.856-15.74a60.429,60.429,0,0,0-11.749-5.312c3.652,3.163,5.415,8.172,5.813,12.36.323,3.463-.276,6.4-1.534,7.3a9.482,9.482,0,0,1-3.707-2.41c-5.4-5.1-10.227-16.237-8.452-19.337a79.135,79.135,0,0,0-24.7-.714c-1.183.138-2.362.308-3.553.5a17.886,17.886,0,0,1,6.827,3.076c8.2,5.928,12.029,17.6,9.737,20.8-5.411.126-13.425-5.731-18.824-11.713l.016-.02c-3.7-4.106-6.141-8.266-5.644-10.6-.43.11-.9.225-1.321.335-3.143.785-6.275,1.72-9.4,2.78a139.67,139.67,0,0,0-16.738,6.929c-.576.272-1.163.564-1.731.868.355.043.686.071,1.025.134a20.56,20.56,0,0,1,3.092.741.112.112,0,0,0,.055.008,23.5,23.5,0,0,1,6.042,3.025,30.192,30.192,0,0,1,4.607,4.015,32.8,32.8,0,0,1,3.743,4.784c3.411,5.257,5.17,10.936,4.969,14.561l-.016.02a6.839,6.839,0,0,1-.316,1.865l-.012.02-.032.036a2.506,2.506,0,0,1-.351.753l-.071.1c-.032,0-.051-.008-.083,0-.122,0-.26,0-.383,0a12.159,12.159,0,0,1-1.735-.166c-.107-.016-.233-.043-.339-.059a20.494,20.494,0,0,1-4.2-1.432,38.107,38.107,0,0,1-7.261-4.386c-.529-.371-1.065-.781-1.585-1.207l-1.021-.809c-.26-.213-.509-.446-.769-.659-.122-.118-.26-.213-.383-.331-1.424-1.234-2.8-2.532-4.1-3.861a48.928,48.928,0,0,1-6.283-7.9,15.382,15.382,0,0,1-2.252-5.143,168.917,168.917,0,0,0-16.178,10.558l-.012.02c-1.566,1.132-3.108,2.28-4.591,3.467-.552.406-1.085.824-1.582,1.238-3.317,2.658-6.515,5.4-9.544,8.239l-1.846-2.007a.411.411,0,0,1,.134-.11l.016-.02q4.673-4.384,9.848-8.464c.544-.442,1.089-.879,1.641-1.286.45-.387.927-.73,1.416-1.089.694-.568,1.428-1.112,2.185-1.637.761-.58,1.522-1.159,2.311-1.692.319-.248.659-.477,1-.71l.016-.008C243.019,201.431,242.7,171.162,251.076,163.29Z" transform="translate(-203.326 -66.196)" fill="#7dd6f6"/><g transform="translate(0 31.476)"><path d="M236.724,199.1c9.5,19.12,11.473,59.431,18.055,62.755a1.9,1.9,0,0,0,1.881-.047,1.033,1.033,0,0,0,.375-.181c4.157-2.749,4.05-2.524,11.934-58.693,7.868-56.181-18.114-72.185-33.918-64.924S220.68,166.816,236.724,199.1Z" transform="translate(-223.917 -136.366)" fill="#1ba8ec"/><g transform="translate(16.564 11.484)"><path d="M228.363,140.856c18.8,21.037,15.4,92.358,14.052,112.425a1.9,1.9,0,0,0,1.881-.047c1.471-20.552,4.954-91.822-14.545-113.636a.934.934,0,0,0-1.325-.083A.952.952,0,0,0,228.363,140.856Z" transform="translate(-228.117 -139.278)" fill="#fff"/></g></g></g><g transform="translate(1130.36 783.889)"><path d="M145.065,199.711c9.075,6.693,19.719,25.166,23.612,25.138a.985.985,0,0,0,.872-.473.515.515,0,0,0,.134-.174c1.294-2.3,1.294-2.165-8.538-30.463-9.848-28.3-25.919-29.559-31.595-22.338S129.739,188.408,145.065,199.711Z" transform="translate(-127.423 -167.682)" fill="#797df5"/><g transform="translate(7.222 6.758)"><path d="M129.578,170.356c13.91,5.352,29.508,39.691,33.708,49.449a.985.985,0,0,0,.872-.473c-4.259-10.014-19.806-44.349-34.229-49.9a.493.493,0,0,0-.643.284A.5.5,0,0,0,129.578,170.356Z" transform="translate(-129.254 -169.395)" fill="#fff"/></g></g><g transform="translate(1207.325 828.179)"><path d="M163.074,199.409c-5.809,4.283-12.62,16.1-15.113,16.087a.636.636,0,0,1-.556-.3.352.352,0,0,1-.087-.114c-.824-1.467-.828-1.384,5.466-19.491s16.584-18.915,20.216-14.3S172.878,192.172,163.074,199.409Z" transform="translate(-146.937 -178.912)" fill="#1ba8ec"/><g transform="translate(0.467 4.325)"><path d="M169.181,180.626c-8.9,3.423-18.879,25.4-21.569,31.642a.636.636,0,0,1-.556-.3c2.725-6.409,12.672-28.38,21.9-31.934a.316.316,0,0,1,.41.181A.324.324,0,0,1,169.181,180.626Z" transform="translate(-147.056 -180.009)" fill="#fff"/></g></g><g transform="translate(1336.971 518.468)"><g transform="translate(0 92.446)"><path d="M188.179,152.164l-.107,4.128-7.7-3.333,2.5-2.526Z" transform="translate(-178.16 -45.488)" fill="#e8a39c"/><path d="M180.585,229.216l6.831,2.071,22.863-58.121L208.8,123.823l-21.4,2.24c.248,13.457,2.3,28.526,5.5,44.613Z" transform="translate(-177.528 -123.823)" fill="#1e2f97"/><path d="M182.366,150.846c-.939,1.124-2.481,3.21-2.556,4.776.611,1.191,15.91,3.758,16.123,2.713.114-1.574-3.983-3.833-5.892-4.812A14.677,14.677,0,0,1,182.366,150.846Z" transform="translate(-179.81 -44.27)" fill="#4adfde"/></g><g transform="translate(39.096)"><path d="M227.72,103.514l-1.132,7.951-3.944,27.524c-3.66,2.962-12.262,5.1-20.524,7.292L190.462,134.99l22.8-2.836,7.336-22.177,2.493-7.462Z" transform="translate(-187.547 -94.103)" fill="#e8a39c"/><path d="M228.042,110.082,224.934,124.5c-3.66,2.962-20.149,11-28.408,13.188l-6.8-19.708,24.192-1.672,3.124-8.566A66.583,66.583,0,0,1,228.042,110.082Z" transform="translate(-189.723 -78.727)" fill="#7dd6f6"/><path d="M199.922,108.8c-2.638-2.6-1.475-4.2-.2-3.195.809-1.3-.722-4.228.521-4.969a1.914,1.914,0,0,1,2.615.647,9.336,9.336,0,0,1,2.552,4.532,18.935,18.935,0,0,1-.864,3.983Z" transform="translate(-164.376 -100.383)" fill="#e8a39c"/></g><path d="M185.3,115.259c2.394-2.019,3.565-5.068,4.295-8.491l7.209,1.968c-1.025,3.64-1.266,7.044,0,9.994Z" transform="translate(-163.648 -81.585)" fill="#e8a39c"/><path d="M187.894,122.527c-.627,1.246,11.354,3.155,12.676,1.676,1.061-1.191,3.21-17.29-.714-21.053l-4.95-.544a9.049,9.049,0,0,0-9.611,11.737Z" transform="translate(-164.941 -94.003)" fill="#e8a39c"/><g transform="translate(22.35 91.069)"><path d="M197.259,151.471l.723,4.065-8.214-1.721,1.94-2.976Z" transform="translate(-172.846 -42.912)" fill="#e8a39c"/><path d="M202.739,232.385l7.1.659,10.743-61.525-11.347-48.045-23.762,2.867c3.877,15.133,10.077,30.593,17.574,46.226Z" transform="translate(-185.477 -123.474)" fill="#1e2f97"/><path d="M190.99,151.355c-.694,1.286-1.787,3.644-1.55,5.19.84,1.041,16.344.493,16.344-.58-.2-1.562-4.674-2.95-6.74-3.53A14.712,14.712,0,0,1,190.99,151.355Z" transform="translate(-173.908 -41.395)" fill="#4adfde"/></g><path d="M181.941,175.494c3.478,5.19,34.809,3.9,41.9-1.475-4.054-15.074-.521-33.87-2.429-57.372-5.549-6.018-24.543-10.538-31.267-5.687C182.091,115.618,181.18,158.847,181.941,175.494Z" transform="translate(-174.175 -75.275)" fill="#7dd6f6"/><path d="M197.674,112.946c8.278-.426,11.674-2.95,8.239-6.9-4.91-5.64-7.714-4.4-17.128-1.069-7.486,2.654-4.922,16.509.343,19.412,5.963,3.289,7.86.848,7.02-1.96s-5.494-4.042-2.859-5.928,4.4,2.5,4.4,2.5l1.077-.9S195.536,113.056,197.674,112.946Z" transform="translate(-167.14 -95.185)" fill="#051a2d"/></g><g transform="translate(989.308 393.691)"><rect width="77.057" height="44.94" rx="1.453" fill="#140fe8"/><text transform="translate(13.152 35.698)" fill="#fff" font-size="46" font-family="MyriadPro-Regular, Myriad Pro"><tspan x="0" y="0">J S</tspan></text></g></g></svg>