<svg xmlns="http://www.w3.org/2000/svg" width="108.393" height="135.84" viewBox="0 0 108.393 135.84">
  <g id="Group_16" data-name="Group 16" transform="translate(-123.982 -231.922)">
    <g id="Laka_avatar" data-name="Laka avatar" transform="translate(124.007 232.019)">
      <path id="Path_1" data-name="Path 1" d="M9.45,80.09s-11-7.41-7.91,11.23c0,0,4.6,10,7.91,6.9Z" fill="#b3883b" stroke="#010101" stroke-miterlimit="10" stroke-width="1.99"/>
      <path id="Path_2" data-name="Path 2" d="M16.3,39.81c16.72,3.06,45.54,10.72,75.44,0,0,0,12.68,73-6,83.74S35,135.81,16.3,120.49s0-78.13,0-78.13Z" fill="#b3883b" stroke="#010101" stroke-miterlimit="10" stroke-width="1.99"/>
      <path id="Path_3" data-name="Path 3" d="M8,84s3.15,23.49,30,24.51c0,0,16.83-10.21,28.92,0,0,0,28.91-3.06,30-24.51,0,0,11.27,54.13-43.52,50.55S10.61,103.39,8,84Z" fill="#333" stroke="#010101" stroke-miterlimit="10" stroke-width="2.03"/>
      <path id="Path_4" data-name="Path 4" d="M9,81l8.35-39.3s51.32,14.3,74.83,0c0,0,6.66,38.3,5.13,39.32S105,76.43,105,81s7.66-58.72-4.59-61.27c0,0-27.07-32.68-74.56-11.75,0,0-35.74,5.11-21.44,71Z" fill="#171919" stroke="#010101" stroke-miterlimit="10" stroke-width="2"/>
      <path id="Path_5" data-name="Path 5" d="M98.51,79.66s8.85-4.43,8.68,7c0,0-3.74,13.1-8.68,11.91Z" fill="#b3883b" stroke="#010101" stroke-miterlimit="10" stroke-width="1.99"/>
      <path id="Path_6" data-name="Path 6" d="M88.68,34.77A14.36,14.36,0,0,1,81,34.43a13.79,13.79,0,0,0,6.45-2.73,6.46,6.46,0,0,1-5.35-1.09,11.27,11.27,0,0,0,7.11-3,10.54,10.54,0,0,1-7.3-1.1,25.05,25.05,0,0,0,9.31-2.59,18.32,18.32,0,0,1-9.48-2,54.12,54.12,0,0,0,6.57-2.13,10.34,10.34,0,0,1-9.59-3.54A25,25,0,0,1,62.49,29.53,27.45,27.45,0,0,0,69,31a19.43,19.43,0,0,1-4.83,2.5,15.32,15.32,0,0,1,6.74,1,21.47,21.47,0,0,1-15,3.4,61.5,61.5,0,0,0,16.85,1.19l-3,2.24c2-1.35,6.25-1.3,8.63-2.17Q83.6,37.17,88.68,34.77Z" fill="#333" stroke="#010101" stroke-miterlimit="10" stroke-width="2"/>
      <path id="Path_7" data-name="Path 7" d="M8,27.72a34.83,34.83,0,0,0-3.38,22,8.78,8.78,0,0,1,3.32-7A10.21,10.21,0,0,0,7.24,48,10.3,10.3,0,0,1,9.6,43.64l-.36,2.61a48,48,0,0,1,1.82-7.48c.69-2.1,1.82-4.43,4-5a9.65,9.65,0,0,0-4,4.76,8.29,8.29,0,0,1,5-9,5.85,5.85,0,0,0-2.78,1A15.33,15.33,0,0,1,24,24.41L17.16,25a22.24,22.24,0,0,1,11.49-5.64,7.55,7.55,0,0,1-3.38-.61c-.48-.2-1-.56-1-1.09s.51-.85,1-1.1a61.4,61.4,0,0,1,7.5-3.48c-4.6.5-9.42,1.39-12.94,4.4s-5.46,8-9.68,10.14c-1.25.62-2.9,1.31-2.85,2.7" fill="#333" stroke="#010101" stroke-miterlimit="10" stroke-width="2"/>
      <path id="Path_8" data-name="Path 8" d="M29.12,69.67a17.61,17.61,0,0,1,1.45-1.76,8,8,0,0,1,6-2.34,15.52,15.52,0,0,1,3,.52l4.64,1.12" fill="none" stroke="#010101" stroke-miterlimit="10" stroke-width="2"/>
      <path id="Path_9" data-name="Path 9" d="M68.63,67.24A8.69,8.69,0,0,1,74.9,65.4c3.22.34,5.94,2.43,8.44,4.48" fill="none" stroke="#010101" stroke-miterlimit="10" stroke-width="2"/>
      <path id="Path_10" data-name="Path 10" d="M50.72,88.72a5.52,5.52,0,0,0-3,3.21c-.85,1.85-1.29,4.13-.22,5.86a5.32,5.32,0,0,0,1.85,1.71A8.14,8.14,0,0,0,61.5,93.85" fill="none" stroke="#010101" stroke-miterlimit="10" stroke-width="2"/>
      <path id="Path_11" data-name="Path 11" d="M44.21,117.67s10.09,10.73,19.92,0" fill="#fff" stroke="#010101" stroke-miterlimit="10" stroke-width="2"/>
      <path id="Path_12" data-name="Path 12" d="M30,46.17c0-.06-15.3,45.39-9.49,51L11.92,85.55l7.61-41.63h.33Z" fill="#d0c2a2" opacity="0.34"/>
    </g>
    <g id="single_eye" data-name="single eye" transform="translate(194 300)">
      <circle id="Ellipse_1" data-name="Ellipse 1" cx="4.6" cy="4.6" r="4.6" transform="translate(0 0)" fill="#010101"/>
      <path id="Path_23" data-name="Path 23" d="M4,1.54a3.17,3.17,0,0,0-2.51,1,3.11,3.11,0,0,0-.32,2.07,2.13,2.13,0,0,0,.22.89A2,2,0,0,0,3,6.15a1.46,1.46,0,0,0,.69,0,1.56,1.56,0,0,0,.65-.6,3.68,3.68,0,0,0,1-2.6A1.93,1.93,0,0,0,3.1,1.44" fill="#f7fcfe"/>
      <path id="Path_24" data-name="Path 24" d="M5.42,6.89c0-.34-.6-.34-.69,0a.73.73,0,0,0,.49.79.7.7,0,0,0,.4.09c.46,0,.57-.76.22-1.06a1.13,1.13,0,0,0-1.28,0" fill="#f7fcfe"/>
    </g>
    <g id="single_eye-2" data-name="single eye" transform="translate(157 300)">
      <circle id="Ellipse_1-2" data-name="Ellipse 1" cx="4.6" cy="4.6" r="4.6" transform="translate(0 0)" fill="#010101"/>
      <path id="Path_23-2" data-name="Path 23" d="M4,1.54a3.17,3.17,0,0,0-2.51,1,3.11,3.11,0,0,0-.32,2.07,2.13,2.13,0,0,0,.22.89A2,2,0,0,0,3,6.15a1.46,1.46,0,0,0,.69,0,1.56,1.56,0,0,0,.65-.6,3.68,3.68,0,0,0,1-2.6A1.93,1.93,0,0,0,3.1,1.44" fill="#f7fcfe"/>
      <path id="Path_24-2" data-name="Path 24" d="M5.42,6.89c0-.34-.6-.34-.69,0a.73.73,0,0,0,.49.79.7.7,0,0,0,.4.09c.46,0,.57-.76.22-1.06a1.13,1.13,0,0,0-1.28,0" fill="#f7fcfe"/>
    </g>
  </g>
</svg>
