<svg xmlns="http://www.w3.org/2000/svg" viewBox="0 0 283.93 217.83"><defs><style>.cls-1{fill:#605ce0;stroke:#e7c71e;}.cls-1,.cls-2,.cls-3,.cls-4,.cls-5,.cls-6,.cls-7,.cls-8{stroke-miterlimit:10;}.cls-2{fill:#f2f2f2;}.cls-2,.cls-3,.cls-4,.cls-5,.cls-6,.cls-7,.cls-8{stroke:#324793;}.cls-3{fill:#b036c1;}.cls-4{fill:#a33aa3;}.cls-5{fill:#ac58dd;}.cls-6{fill:#1c445d;}.cls-7{fill:#51b8e0;}.cls-8{fill:#c5e9fc;stroke-width:9px;}.cls-9{fill:#bfbfbf;opacity:0.16;}.cls-10{fill:#f3ff03;}.cls-11{fill:#1cf75f;}.cls-12{fill:#c61bef;}</style></defs><title>laptop-logo</title><g id="Layer_2" data-name="Layer 2"><g id="MAin_laptop_with_face" data-name="MAin laptop with face"><path class="cls-1" d="M15.59,191.7S-.24,196.05.53,199.88,22.23,213.67,73,215.45s91.91,2.3,92.68,1.53,101.87-2.8,100.34-8.68c0,0,36.76-7.67,3.32-16.6S15.59,191.7,15.59,191.7Z"/><polygon class="cls-2" points="59.33 18.81 59.33 124.81 216.91 124.81 216.91 17.58 59.33 18.81"/><path class="cls-3" d="M46.74,140.13h186a4,4,0,0,0,4-3.95V5.68a4,4,0,0,0-3.93-3.95L44.85.5a4,4,0,0,0-4,4V136.18a4,4,0,0,0,4,3.95Z"/><path class="cls-4" d="M25.24,182.77H260.65a3,3,0,0,0,2.21-5.08l-25.52-27.4a3,3,0,0,0-2.21-1H44.48A3,3,0,0,0,42,150.61L22.76,178A3,3,0,0,0,25.24,182.77Z"/><path class="cls-5" d="M17.89,194.12v-4.84a4.72,4.72,0,0,1,4.72-4.72H261.34a4.72,4.72,0,0,1,4.72,4.72v4.05a4.73,4.73,0,0,1-4.71,4.72l-238.72.79A4.71,4.71,0,0,1,17.89,194.12Z"/><polygon class="cls-6" points="48.27 167.71 233.12 167.71 226.48 158.01 54.4 158.01 48.27 167.71"/><polygon class="cls-6" points="111.33 179.32 169.8 179.32 167.51 170.13 114.27 170.13 111.33 179.32"/><path class="cls-7" d="M53.63,16.18V126a4,4,0,0,0,4,4H222.53a4,4,0,0,0,3.95-4V16.18a4,4,0,0,0-3.95-4H57.59A4,4,0,0,0,53.63,16.18ZM216.91,124.81H62.19a4,4,0,0,1-4-4V21.54a4,4,0,0,1,4-4H216.91a4,4,0,0,1,4,4v99.32A4,4,0,0,1,216.91,124.81Z"/><path class="cls-8" d="M53.63,19.05V123A6.34,6.34,0,0,0,60,129.38H218.17a6.34,6.34,0,0,0,6.35-6.34v-104a6.34,6.34,0,0,0-6.35-6.34H60a6.34,6.34,0,0,0-4.18,1.57h0A6.33,6.33,0,0,0,53.63,19.05Z"/><polygon class="cls-9" points="40.87 4.46 236.7 136.18 40.87 140.13 40.87 4.46"/><rect class="cls-10" x="64.52" y="67.38" width="75.57" height="5.75" rx="2.88"/><rect class="cls-11" x="74.5" y="84.19" width="122.55" height="9" rx="4.5"/><rect class="cls-12" x="64.52" y="99.01" width="75.57" height="5.75" rx="2.88"/><rect class="cls-10" x="64.52" y="112.81" width="75.57" height="5.75" rx="2.88"/></g></g></svg>