<svg xmlns="http://www.w3.org/2000/svg" viewBox="0 0 258.22 218.67"><defs><style>.cls-1,.cls-8{fill:#333;}.cls-1,.cls-11,.cls-2,.cls-3,.cls-7,.cls-8,.cls-9{stroke:#000;stroke-miterlimit:10;}.cls-1{stroke-width:2.23px;}.cls-2{fill:#cab4cc;}.cls-2,.cls-3,.cls-7{stroke-width:1.99px;}.cls-3{fill:#333233;}.cls-4{font-size:19px;fill:#fff;font-family:Raleway-Bold, Raleway;font-weight:700;}.cls-5{letter-spacing:0em;}.cls-6{fill:#f2e6f4;opacity:0.64;}.cls-7{fill:#b2873b;}.cls-11,.cls-8,.cls-9{stroke-width:2px;}.cls-9{fill:#171819;}.cls-10{fill:#f8fcff;}.cls-11{fill:none;}.cls-12{fill:#d0c2a2;opacity:0.34;}</style></defs><title>logo-avatar</title><g id="Layer_2" data-name="Layer 2"><g id="MAin_face" data-name="MAin face"><ellipse class="cls-1" cx="120.49" cy="149.66" rx="8.62" ry="4.6"/><ellipse class="cls-1" cx="120.49" cy="98.66" rx="8.62" ry="4.6"/><ellipse class="cls-2" cx="127.82" cy="96.71" rx="88.85" ry="95.72"/><rect class="cls-3" x="1" y="165.77" width="256.23" height="51.9" rx="20.06"/><text class="cls-4" transform="translate(43.13 200.58)">&lt; La<tspan class="cls-5" x="36.38" y="0">k</tspan><tspan x="46.87" y="0">shmi Mohan /&gt;</tspan></text><path class="cls-6" d="M66.09,134.19c-9.87-11.74-2.89-66.3-2.89-66.3H47s4.08,65.79,11.91,67.84S66.09,134.19,66.09,134.19Z"/><path class="cls-7" d="M88.41,66.7c16.71,3.06,45.53,10.72,75.43,0,0,0,12.69,73-6.05,83.74s-50.64,12.26-69.38-3.06,0-78.13,0-78.13Z"/><path class="cls-8" d="M80.45,108s3.06,23.49,29.1,24.51c0,0,16.34-10.21,28.09,0,0,0,28.08-3.06,29.1-24.51,0,0,10.95,54.13-42.27,50.55S83,127.37,80.45,108Z"/><path class="cls-9" d="M79.23,105,87.6,65.68s51.33,14.29,74.84,0c0,0,6.66,38.29,5.13,39.32s7.66-4.6,7.66,0,7.66-58.73-4.6-61.28c0,0-27.06-32.68-74.55-11.75,0,0-35.74,5.11-21.45,71Z"/><path class="cls-8" d="M158.94,58.74a14.46,14.46,0,0,1-7.69-.33,13.81,13.81,0,0,0,6.45-2.74,6.49,6.49,0,0,1-5.36-1.09,11.27,11.27,0,0,0,7.12-3,10.54,10.54,0,0,1-7.3-1.1,25,25,0,0,0,9.3-2.59,18.24,18.24,0,0,1-9.48-2,54.27,54.27,0,0,0,6.58-2.13A10.34,10.34,0,0,1,149,40.22,25.06,25.06,0,0,1,132.75,53.5a27.45,27.45,0,0,0,6.5,1.47,19.1,19.1,0,0,1-4.83,2.5,15.34,15.34,0,0,1,6.74,1,21.47,21.47,0,0,1-15,3.4A61.9,61.9,0,0,0,143,63l-3,2.24c2-1.36,6.25-1.31,8.63-2.18Q153.85,61.14,158.94,58.74Z"/><path class="cls-8" d="M78.21,51.69a34.83,34.83,0,0,0-3.38,22,8.77,8.77,0,0,1,3.32-7A10.21,10.21,0,0,0,77.5,72a10.19,10.19,0,0,1,2.36-4.37l-.36,2.61a48.23,48.23,0,0,1,1.81-7.48c.7-2.1,1.83-4.43,4-5a9.65,9.65,0,0,0-4,4.76,8.29,8.29,0,0,1,5-9,5.92,5.92,0,0,0-2.78,1,15.31,15.31,0,0,1,10.77-6.16L87.42,49a22.2,22.2,0,0,1,11.49-5.64,7.66,7.66,0,0,1-3.38-.6c-.48-.21-1-.57-1-1.1s.51-.85,1-1.1a60.71,60.71,0,0,1,7.5-3.48c-4.6.5-9.42,1.4-12.94,4.4s-5.46,8.05-9.68,10.14c-1.25.62-2.9,1.31-2.85,2.71"/><circle cx="106.92" cy="99.12" r="4.6"/><path class="cls-10" d="M104.85,96.81c-.76.53-1.6,1.19-1.66,2.12a3.1,3.1,0,0,0,.8,1.93,1.55,1.55,0,0,0,2.4.41,1.5,1.5,0,0,0,.57-.38,1.54,1.54,0,0,0,.25-.85,3.69,3.69,0,0,0-.52-2.72,1.93,1.93,0,0,0-2.69-.11"/><path class="cls-10" d="M108.82,100.65c-.16-.3-.69,0-.6.35a.88.88,0,0,0,1.22.3c.37-.28.09-1-.36-1a1.16,1.16,0,0,0-1.11.66"/><circle cx="145.54" cy="100.26" r="4.6"/><path class="cls-10" d="M147.88,98.08a3.14,3.14,0,0,0-2.1-1.55,3.32,3.32,0,0,0-1.94.71,2,2,0,0,0-.65.6,1.76,1.76,0,0,0,.21,1.6,1.47,1.47,0,0,0,.38.54,1.58,1.58,0,0,0,.84.23,3.94,3.94,0,0,0,2.73-.44,1.66,1.66,0,0,0,.14-2.47"/><path class="cls-10" d="M144,102.13c.3-.15,0-.68-.34-.6a.76.76,0,0,0-.44.83.68.68,0,0,0,.13.39c.27.37.94.1,1-.35a1.15,1.15,0,0,0-.65-1.11"/><path class="cls-11" d="M99.38,93.64a16.33,16.33,0,0,1,1.45-1.76,8.08,8.08,0,0,1,6-2.34,15.65,15.65,0,0,1,3,.52l4.64,1.12"/><path class="cls-11" d="M138.89,91.21a8.69,8.69,0,0,1,6.27-1.84c3.21.34,5.94,2.43,8.44,4.48"/><path class="cls-11" d="M121,112.69a5.53,5.53,0,0,0-3,3.21c-.86,1.85-1.29,4.13-.22,5.86a5.23,5.23,0,0,0,1.85,1.71,8.15,8.15,0,0,0,12.18-5.65"/><path class="cls-12" d="M100.25,70.14s-15.3,45.4-9.49,51l-8.58-11.65,7.61-41.63h.32Z"/><ellipse class="cls-1" cx="124.43" cy="141.79" rx="8.62" ry="4.6"/><path id="right_ear" data-name="right ear" class="cls-7" d="M168,104.65s8.85-4.42,8.68,7c0,0-3.74,13.11-8.68,11.92Z"/><path id="left_ear" data-name="left ear" class="cls-7" d="M79.71,105.08s-11-7.4-7.91,11.24c0,0,4.59,10,7.91,6.89Z"/></g></g></svg>