<svg xmlns="http://www.w3.org/2000/svg" width="55.616" height="43.698" viewBox="0 0 55.616 43.698">
  <g id="envelope" transform="translate(0 -54.82)">
    <g id="Group_104" data-name="Group 104" transform="translate(0 54.82)">
      <path id="Path_235" data-name="Path 235" d="M5.338,68.289q1.055.745,6.362,4.423t8.131,5.663q.31.218,1.319.947t1.676,1.18q.667.45,1.614,1.008a9.364,9.364,0,0,0,1.785.837,4.917,4.917,0,0,0,1.552.279h.063a4.922,4.922,0,0,0,1.552-.279,9.372,9.372,0,0,0,1.784-.837q.946-.559,1.614-1.008t1.676-1.18q1.008-.73,1.319-.947,2.855-1.986,14.524-10.087a14.743,14.743,0,0,0,3.786-3.817,8.2,8.2,0,0,0,1.521-4.686A5.008,5.008,0,0,0,50.65,54.82H4.965a4.432,4.432,0,0,0-3.678,1.614A6.265,6.265,0,0,0,0,60.468,7.249,7.249,0,0,0,1.707,64.7,15.4,15.4,0,0,0,5.338,68.289Z" transform="translate(0 -54.82)" fill="#878fb8"/>
      <path id="Path_236" data-name="Path 236" d="M52.512,187.137q-10.179,6.889-15.455,10.707-1.769,1.3-2.871,2.033a17.714,17.714,0,0,1-2.933,1.489,8.93,8.93,0,0,1-3.413.76h-.063a8.933,8.933,0,0,1-3.414-.76,17.723,17.723,0,0,1-2.933-1.489q-1.1-.729-2.871-2.033-4.19-3.072-15.425-10.707A16.439,16.439,0,0,1,0,184.437v24.641a4.78,4.78,0,0,0,1.459,3.507,4.781,4.781,0,0,0,3.507,1.459H50.65a4.981,4.981,0,0,0,4.965-4.966V184.437A17.114,17.114,0,0,1,52.512,187.137Z" transform="translate(0 -170.347)" fill="#878fb8"/>
    </g>
  </g>
</svg>
