<svg xmlns="http://www.w3.org/2000/svg" width="62.817" height="62.817" viewBox="0 0 62.817 62.817">
  <path id="linkedin" d="M31.409,0A31.409,31.409,0,1,0,62.817,31.409,31.412,31.412,0,0,0,31.409,0ZM22.282,47.481H14.632V24.468h7.649ZM18.457,21.325h-.05a3.987,3.987,0,1,1,.1-7.952,3.988,3.988,0,1,1-.051,7.952ZM49.864,47.481H42.215V35.169c0-3.094-1.108-5.2-3.875-5.2a4.187,4.187,0,0,0-3.925,2.8,5.238,5.238,0,0,0-.252,1.867V47.481H26.515s.1-20.855,0-23.013h7.649v3.258a7.594,7.594,0,0,1,6.894-3.8c5.033,0,8.806,3.289,8.806,10.358Zm0,0" fill="#179bcc"/>
</svg>
