<svg xmlns="http://www.w3.org/2000/svg" xmlns:xlink="http://www.w3.org/1999/xlink" width="366.5" height="310.086" viewBox="0 0 366.5 310.086">
  <defs>
    <linearGradient id="linear-gradient" x1="0.422" y1="0.142" x2="0.649" y2="1.097" gradientUnits="objectBoundingBox">
      <stop offset="0" stop-color="#fff"/>
      <stop offset="0.085" stop-color="#f5f5f5"/>
      <stop offset="0.229" stop-color="#dadada"/>
      <stop offset="0.413" stop-color="#afafaf"/>
      <stop offset="0.631" stop-color="#747474"/>
      <stop offset="0.876" stop-color="#292929"/>
      <stop offset="1"/>
    </linearGradient>
    <linearGradient id="linear-gradient-2" x1="0" y1="0.5" x2="1" y2="0.5" xlink:href="#linear-gradient"/>
    <linearGradient id="linear-gradient-5" x1="0.417" y1="0.15" x2="0.733" y2="1.281" gradientUnits="objectBoundingBox">
      <stop offset="0" stop-color="#fff"/>
      <stop offset="0.178" stop-color="#cdcdcd"/>
      <stop offset="0.587" stop-color="#5f5f5f"/>
      <stop offset="0.869" stop-color="#1a1a1a"/>
      <stop offset="1"/>
    </linearGradient>
    <linearGradient id="linear-gradient-6" x1="0" y1="0.5" x2="1" y2="0.5" xlink:href="#linear-gradient-5"/>
    <linearGradient id="linear-gradient-7" x1="0.472" y1="0.07" x2="0.513" y2="0.711" xlink:href="#linear-gradient-5"/>
    <linearGradient id="linear-gradient-8" x1="0.445" y1="0.56" x2="0.72" y2="1.071" xlink:href="#linear-gradient-5"/>
    <linearGradient id="linear-gradient-9" x1="-0.085" y1="0.37" x2="0.8" y2="0.37" xlink:href="#linear-gradient-5"/>
    <linearGradient id="linear-gradient-10" x1="-0.015" y1="0.391" x2="1.088" y2="0.804" xlink:href="#linear-gradient-5"/>
    <linearGradient id="linear-gradient-11" x1="0.371" y1="0.243" x2="0.781" y2="1.241" xlink:href="#linear-gradient"/>
    <linearGradient id="linear-gradient-13" x1="0.46" y1="0.36" x2="0.581" y2="0.992" gradientUnits="objectBoundingBox">
      <stop offset="0" stop-color="#fff"/>
      <stop offset="0.102" stop-color="#ededed"/>
      <stop offset="0.305" stop-color="#bfbfbf"/>
      <stop offset="0.592" stop-color="#747474"/>
      <stop offset="0.948" stop-color="#0f0f0f"/>
      <stop offset="1"/>
    </linearGradient>
  </defs>
  <g id="Group_255" data-name="Group 255" transform="translate(-22.01 -23.671)">
    <g id="Group_222" data-name="Group 222" transform="translate(76.909 23.671)">
      <g id="Group_220" data-name="Group 220" transform="translate(0 234.785)">
        <path id="Path_509" data-name="Path 509" d="M345.566,165.134c.818,7.07-26.239,23.992-70.5,31.037-3.113.512-6.356.97-9.648,1.353-49.923,5.947-93.084-8.55-54.442-22.359,28.128-10.031-32.108-21.107-55.49-11.1-1.532.663-3.087,1.276-4.671,1.863-34.763,13.144-77.49,10.336-98.573,1.25-22.052-9.495,4.467-44.9,146-43.544C311.747,124.729,342.989,142.6,345.566,165.134Z" transform="translate(-45.375 -123.594)" fill="#f1eff8"/>
        <path id="Path_510" data-name="Path 510" d="M240.178,163.057c0,10.132-9.927,19.194-25.677,25.4-3.113.512-6.356.97-9.648,1.353-49.923,5.947-93.084-8.55-54.442-22.359,28.128-10.031-32.108-21.107-55.49-11.1-1.532.663-3.087,1.276-4.671,1.863,5.259-16.335,36.627-28.894,74.581-28.894C206.437,129.313,240.178,144.424,240.178,163.057Z" transform="translate(15.193 -115.875)" opacity="0.5" fill="url(#linear-gradient)" style="mix-blend-mode: overlay;isolation: isolate"/>
      </g>
      <g id="Group_221" data-name="Group 221" transform="translate(27.341)">
        <path id="Path_511" data-name="Path 511" d="M293.03,199.485c-1.123,1.172-2.272,2.321-3.419,3.393-9.547,9.011-18.633,14.676-25.524,15.418a9.7,9.7,0,0,1-8.118-2.376c-22.1-21.185-20.266-20.137-82.466-4.493h-.026c-2.451.639-5.028,1.278-7.707,1.941-39.46,9.826-71.85-3.292-88.211-21.824-12.66-14.394-15.672-32.082-4.772-44.82,10.642-12.481,8.931-26.645,3.623-41.22C67.6,81.308,49,55.988,60.841,35.339,78.579,4.432,162.783,48.869,192.11,49.454c3.6.078,7.07-.023,10.414-.254C256.2,45.321,283,4.585,316.614,34.677a65.134,65.134,0,0,1,5.028,4.951C365.111,86.846,327.718,164,293.03,199.485Z" transform="translate(-57.011 -23.671)" fill="#f1eff8"/>
        <path id="Path_512" data-name="Path 512" d="M201.339,193.9c-1.123,1.172-2.272,2.321-3.419,3.393a85.186,85.186,0,1,1,27-168.2,65.137,65.137,0,0,1,5.028,4.951C273.42,81.257,236.027,158.416,201.339,193.9Z" transform="translate(34.68 -18.082)" opacity="0.5" fill="url(#linear-gradient-2)" style="mix-blend-mode: overlay;isolation: isolate"/>
        <path id="Path_513" data-name="Path 513" d="M202.575,50.278a74.98,74.98,0,0,1-126.165,54.8C67.6,80.881,49,55.561,60.841,34.912,78.579,4,162.783,48.441,192.11,49.026c3.6.078,7.07-.024,10.414-.254A14.4,14.4,0,0,1,202.575,50.278Z" transform="translate(-57.011 -23.243)" opacity="0.5" fill="url(#linear-gradient-2)" style="mix-blend-mode: overlay;isolation: isolate"/>
        <path id="Path_514" data-name="Path 514" d="M164.992,124.513a49.77,49.77,0,0,1-3.292,17.815h-.026c-2.451.639-5.028,1.278-7.707,1.941-39.46,9.826-71.85-3.292-88.211-21.824a49.639,49.639,0,0,1,99.236,2.068Z" transform="translate(-45.208 45.429)" opacity="0.5" fill="url(#linear-gradient-2)" style="mix-blend-mode: overlay;isolation: isolate"/>
      </g>
    </g>
    <g id="Group_254" data-name="Group 254" transform="translate(22.01 82.953)">
      <g id="Group_232" data-name="Group 232" transform="translate(320.292 159.439)">
        <g id="Group_225" data-name="Group 225" transform="translate(0 18.203)">
          <g id="Group_224" data-name="Group 224">
            <path id="Path_515" data-name="Path 515" d="M183.486,153.074c-5.548-.93-13.139-6.4-12.688-9.131a.751.751,0,0,1,.106-.4c.028-.052.054-.08.08-.132,3.637-7.169-.345-7.806-6.955-10.273-6.635-2.469-7.432-7.46-2.653-8.494a5.1,5.1,0,0,1,3.078.211,2.441,2.441,0,0,1,.4.16c1.964.982,3.024,3.052,3.555,3.663,4.114,5.042,3.266,4.326,9.45,5.865C184.043,136.057,189.353,154.082,183.486,153.074Z" transform="translate(-158.324 -124.504)" fill="#f5eabd"/>
            <g id="Group_223" data-name="Group 223" transform="translate(5.583 3.991)">
              <path id="Path_516" data-name="Path 516" d="M178,148.288a5.859,5.859,0,0,1-4.57-5.04,12.125,12.125,0,0,1,.014-2.5,11.243,11.243,0,0,0,.019-2.366c-.371-2.773-2.768-4.786-4.713-5.994-.8-.491-1.642-.945-2.46-1.386a24.209,24.209,0,0,1-4.549-2.895,2.807,2.807,0,0,1-1.039-1.513.332.332,0,1,1,.651-.127,2.237,2.237,0,0,0,.822,1.137,23.833,23.833,0,0,0,4.429,2.815c.827.442,1.682.9,2.5,1.407,2.065,1.278,4.615,3.44,5.021,6.466a12.071,12.071,0,0,1-.014,2.507,11.331,11.331,0,0,0-.019,2.359,5.165,5.165,0,0,0,4.69,4.565.318.318,0,0,1,.305.357.332.332,0,0,1-.357.305A6.139,6.139,0,0,1,178,148.288Z" transform="translate(-160.7 -126.203)" fill="#fff"/>
            </g>
          </g>
          <path id="Path_517" data-name="Path 517" d="M180.021,152.871c-5.548-.93-13.139-6.4-12.688-9.131a.751.751,0,0,1,.106-.4c.028-.052.054-.08.08-.132a3.962,3.962,0,0,0,2.178-1.433,4.924,4.924,0,0,0,.557-3.212,9.532,9.532,0,0,0-1.142-3.691,6.3,6.3,0,0,0-.956-1.353,5.892,5.892,0,0,0-1.405-1.142c-.93-.557-2.018-.848-2.949-1.405a6.007,6.007,0,0,1-2.758-3.8,6.612,6.612,0,0,1-.054-2.521,2.439,2.439,0,0,1,.4.16c1.964.982,3.024,3.052,3.555,3.663,4.114,5.042,3.266,4.326,9.45,5.865C180.577,135.855,185.888,153.879,180.021,152.871Z" transform="translate(-154.858 -124.302)" opacity="0.5" fill="url(#linear-gradient-5)" style="mix-blend-mode: overlay;isolation: isolate"/>
        </g>
        <g id="Group_228" data-name="Group 228" transform="translate(10.878)">
          <g id="Group_227" data-name="Group 227">
            <path id="Path_518" data-name="Path 518" d="M178.963,163.555a12.494,12.494,0,0,1-3.1-2.1c-.16-.16-.32-.32-.479-.505a4.665,4.665,0,0,1-1.3-4.434,4.577,4.577,0,0,0,.106-1.591c-.345-4.3-5.707-10.2-9.61-16.086-4.38-6.692,1.382-8.868,2.415-13.008,1.01-4.168-3.795-8.442.956-9.051,1.673-.214,3.769.794,5.681,2.5,3.557,3.184,6.45,8.731,4.565,13.191-2.867,6.849,1.513,6.5,5.442,12.131C187.537,150.256,184.539,163.29,178.963,163.555Z" transform="translate(-162.953 -116.757)" fill="#f5eabd"/>
            <g id="Group_226" data-name="Group 226" transform="translate(6.258 3.63)">
              <path id="Path_519" data-name="Path 519" d="M174.466,152.074c-.186.8-.451,1.619-.717,2.415a12.451,12.451,0,0,0-.9,4.511v.265l-.266.054a1.359,1.359,0,0,1-.317.054.8.8,0,0,1-.24.052h-.054a.316.316,0,0,1-.317-.291.234.234,0,0,1,.132-.265.194.194,0,0,1,.16-.106c.054,0,.134-.026.24-.026a13.485,13.485,0,0,1,.928-4.46,24.1,24.1,0,0,0,.691-2.364,16.644,16.644,0,0,0,.16-5.679,9.292,9.292,0,0,0-.851-3.134,12.092,12.092,0,0,0-3.372-3.635c-.477-.4-.982-.822-1.459-1.248l-.24-.24c-1.671-1.645-3.026-4.088-2.15-6.318a6.032,6.032,0,0,1,.691-1.219c.106-.186.24-.374.345-.559,1.328-2.336,1.114-5.282.956-7.643-.08-1.3-.24-2.6-1.088-3.346a.337.337,0,0,1-.028-.477.305.305,0,0,1,.451-.026c1.062.928,1.248,2.387,1.328,3.795.16,2.469.371,5.522-1.062,8.017-.106.211-.24.4-.345.585a8.155,8.155,0,0,0-.637,1.114c-.743,1.8.32,3.849,1.727,5.31v.026c.157.186.343.345.5.5.451.425.956.825,1.433,1.222a12.961,12.961,0,0,1,3.557,3.849,10.745,10.745,0,0,1,.9,3.318A18.256,18.256,0,0,1,174.466,152.074Z" transform="translate(-165.617 -118.302)" fill="#fff"/>
            </g>
          </g>
          <path id="Path_520" data-name="Path 520" d="M174.021,162.106a12.494,12.494,0,0,1-3.1-2.1.8.8,0,0,1-.24.052h-.054a.316.316,0,0,1-.317-.291.234.234,0,0,1,.132-.266,4.665,4.665,0,0,1-1.3-4.434,4.577,4.577,0,0,0,.106-1.591,3.756,3.756,0,0,0,2.892-1.567c1.142-1.779.134-4.168-1.274-5.759-1.407-1.567-3.212-2.895-3.954-4.885a5.346,5.346,0,0,1-.214-2.655,6.116,6.116,0,0,1,.188-.743v-.026a4.384,4.384,0,0,1,.211-.559c.663-1.379,1.91-2.441,2.469-3.9,1.06-2.735-.771-5.656-1.461-8.522a11.4,11.4,0,0,1,.585-7.033c3.557,3.184,6.45,8.731,4.565,13.191-2.867,6.849,1.513,6.5,5.442,12.131C182.595,148.807,179.6,161.84,174.021,162.106Z" transform="translate(-158.011 -115.307)" opacity="0.5" fill="url(#linear-gradient-6)" style="mix-blend-mode: overlay;isolation: isolate"/>
        </g>
        <g id="Group_231" data-name="Group 231" transform="translate(23.969 19.189)">
          <g id="Group_230" data-name="Group 230">
            <path id="Path_521" data-name="Path 521" d="M184.611,137.96c-6.744,2.256-5.1,11.281-10.113,13.776-5.045,2.469-5.973-1.407-5.973-1.407a6.526,6.526,0,0,0,1.485-2.1c3.106-6.635-1.273-19.669,10.672-22.749,4.937-1.274,7.672-.237,8.839,1.727C191.512,130.554,188.857,136.527,184.611,137.96Z" transform="translate(-168.525 -124.924)" fill="#f5eabd"/>
            <g id="Group_229" data-name="Group 229" transform="translate(0.519 5.915)">
              <path id="Path_522" data-name="Path 522" d="M170.727,147.46a5.888,5.888,0,0,1-1.64.273.331.331,0,1,1-.014-.663,5.4,5.4,0,0,0,4.288-2.326c1.137-1.664,1.224-3.7,1.316-5.855a18.9,18.9,0,0,1,.5-4.225,10.838,10.838,0,0,1,7.329-7.157l.167-.052a.332.332,0,0,1,.2.634,1.3,1.3,0,0,1-.153.049,10.3,10.3,0,0,0-6.9,6.7,18.545,18.545,0,0,0-.475,4.074c-.092,2.155-.186,4.38-1.429,6.2A6.1,6.1,0,0,1,170.727,147.46Z" transform="translate(-168.746 -127.441)" fill="#fff"/>
            </g>
          </g>
          <path id="Path_523" data-name="Path 523" d="M184.611,136.647c-6.744,2.256-5.1,11.281-10.113,13.776-5.045,2.469-5.973-1.407-5.973-1.407a6.526,6.526,0,0,0,1.485-2.1,5.394,5.394,0,0,0,.851-.477c2.124-1.462,2.547-4.408,2.575-7.009.052-2.575.052-5.442,1.779-7.38a8.308,8.308,0,0,1,5.2-2.307,27.64,27.64,0,0,0,5.733-1.01,6.527,6.527,0,0,0,2.761-1.936c.266-.345.425-.637.611-.9C191.512,129.241,188.857,135.213,184.611,136.647Z" transform="translate(-168.525 -123.61)" opacity="0.5" fill="url(#linear-gradient-7)" style="mix-blend-mode: overlay;isolation: isolate"/>
        </g>
      </g>
      <g id="Group_238" data-name="Group 238" transform="translate(0 52.334)">
        <g id="Group_234" data-name="Group 234">
          <g id="Group_233" data-name="Group 233">
            <path id="Path_524" data-name="Path 524" d="M85.112,130.983c-4.255,2.415-6.849,6.483-8.379,9.956a65.926,65.926,0,0,0-3.47-15.456c11.875-6.339,22.418,1.577,28.527-4.812,3.409-3.564-6.986-18.41-19.272-11.443-6,3.4-8.856,9.909-10.1,13.875-1.57-4.316-3.435-8.769-5.425-13.438,8.976-7.629,19.46-2.822,23.5-9.42,2.251-3.682-9.4-14.441-18.607-6.2-4.213,3.771-5.566,9.37-5.987,13.043-1.431-3.348-2.9-6.852-4.368-10.494C64.284,85.7,74.679,81.806,73.171,74.017c-.9-4.664-18.367-4.765-19.735,8.776-.656,6.5,2.733,12.277,5.153,15.5,1.436,3.55,2.874,6.976,4.272,10.247a17.643,17.643,0,0,0-7.418-5.244c-11.673-4.053-18.273,10.367-14.777,12.895,6.26,4.528,14.07-3.929,25.273-.383a144.183,144.183,0,0,1,5.338,14.474c-2.5-3.238-7.613-8.6-14.653-9.662-13.964-2.11-18.36,15.473-13.9,17.58,8.153,3.858,15.292-7.843,29.195-5.587a42.784,42.784,0,0,1,.914,19.756c-1.257-3.3-4.662-10.437-11.464-13.388-12.286-5.329-20.59,9.714-17.016,12.73,6.544,5.526,15.95-3.5,28.168,2a41.63,41.63,0,0,1-2.639,7.611,102.058,102.058,0,0,0-4.946,13.191c-1.227-3.1-3.722-7.683-8.292-9.988-9.96-5.021-17.59,7.094-14.763,9.775,5.012,4.751,12.9-1.722,22.381,2.535a112.555,112.555,0,0,0-3.506,18.71,12.7,12.7,0,0,0-5.127-5.134c-7.688-3.877-13.576,5.475-11.4,7.542,3.677,3.487,9.363-.839,16.2,1.539-.216,3.536-.157,5.726-.148,6a1.68,1.68,0,0,0,1.563,1.621,1.425,1.425,0,0,0,.174,0,1.678,1.678,0,0,0,1.624-1.736,86.508,86.508,0,0,1,.693-11.344c8.012-2.763,13.543,3.374,17.982.181,2.441-1.755-2.133-11.814-10.275-9.009-3.849,1.325-6.245,4.711-7.474,6.957A109.184,109.184,0,0,1,69.649,170.9c10.5-3.764,17.724,4.328,23.513.162,3.163-2.275-2.763-15.308-13.311-11.673a17.5,17.5,0,0,0-8.527,7.1c.508-1.248,1.041-2.5,1.617-3.759a42.1,42.1,0,0,0,3.938-16.638c11.041-5.494,20.806,1.708,26.507-4.253C106.618,138.454,96.762,124.378,85.112,130.983Z" transform="translate(1.906 -71.174)" fill="#f69bc2"/>
            <path id="Path_525" data-name="Path 525" d="M83.667,164.8c-2.011,2.7-2.072,6.119-1.866,8.221a90.1,90.1,0,0,1-6.417-16.873c5.411-7.446,14.1-5.284,16.114-10.818,1.1-3.019-9-9.157-14.5-1.776a14.443,14.443,0,0,0-2.519,8.807c-.235-1.088-.453-2.192-.644-3.315a34.749,34.749,0,0,0-5.082-13.24c4.925-9.161,15.12-8.727,16.25-15.51.634-3.809-12.632-8.83-17.51,1.09-1.913,3.891-1.628,8.182-.954,11.337a53.766,53.766,0,0,0-9.793-9.237c5.155-9.845,16.027-9.345,17.225-16.542.67-4.016-13.323-9.314-18.466,1.149-2.512,5.111-1.438,10.877-.442,14.161-3.078-2.216-6.419-4.387-9.946-6.647,2.578-9.375,11.964-10.971,11.652-17.348-.176-3.557-13.123-5.484-15.576,4.42-1.123,4.53.559,8.98,1.976,11.68-2.531-1.619-5.162-3.325-7.855-5.129-3.181-8.713,2.1-16.2-2.549-20.813-2.784-2.766-14.746,5.284-9.387,15.158,2.573,4.739,7.571,7.105,10.719,8.182,2.629,1.755,5.2,3.423,7.679,5.007a14.548,14.548,0,0,0-7.5-.132c-9.847,2.66-7.648,15.564-4.088,15.665,6.375.179,7.775-9.22,17.066-12.007a118.954,118.954,0,0,1,10.367,7.392c-3.212-1.046-9.19-2.326-14.486.219-10.508,5.052-5.334,19.091-1.313,18.457,7.357-1.158,6.788-12.458,17.322-17.383a35.281,35.281,0,0,1,9.805,13.055c-2.392-1.671-8.031-4.953-14.044-3.806-10.858,2.075-9.533,16.2-5.693,16.6,7.035.728,9.258-9.8,20.151-11.725a34.435,34.435,0,0,1,1.736,6.419,84.291,84.291,0,0,0,2.756,11.3c-2.279-1.546-6.109-3.513-10.3-2.961-9.131,1.2-8.706,13.012-5.531,13.529,5.63.912,8.005-7.171,16.448-8.673a92.985,92.985,0,0,0,6.3,14.394,10.484,10.484,0,0,0-5.884-1.118c-7.047.93-6.718,10.045-4.267,10.442,4.126.67,6-4.923,11.762-6.476,1.5,2.512,2.554,3.978,2.688,4.159a1.384,1.384,0,0,0,1.819.381c.042-.026.08-.052.12-.08a1.386,1.386,0,0,0,.3-1.938,71.708,71.708,0,0,1-4.8-8.064c4.182-5.606,10.808-3.992,12.352-8.233C95.712,163.841,87.918,159.1,83.667,164.8Z" transform="translate(-22.01 -48.646)" fill="#fbcde0"/>
          </g>
        </g>
        <g id="Group_235" data-name="Group 235" transform="translate(52.044 78.625)">
          <path id="Path_526" data-name="Path 526" d="M98.013,136.408c-12.009,36.979-54.7,45.851-53.84,29.4.726-13.144,5-20.32,10.881-24.789,11.323-8.539,28.478-6.955,36.819-18.537,2.895-4.023,4.73-9.655,4.894-17.843C96.767,104.636,106.749,109.439,98.013,136.408Z" transform="translate(-44.159 -104.636)" fill="#f5eabd"/>
          <path id="Path_527" data-name="Path 527" d="M98.013,136.408c-12.009,36.979-54.7,45.851-53.84,29.4.726-13.144,5-20.32,10.881-24.789a19.317,19.317,0,0,1,5.844.686,53.231,53.231,0,0,0,5.58,1.57,17.808,17.808,0,0,0,6.842-.489,25.262,25.262,0,0,0,9.471-4.145c5.054-3.781,7.968-9.88,9.081-16.159,2.895-4.023,4.73-9.655,4.894-17.843C96.767,104.636,106.749,109.439,98.013,136.408Z" transform="translate(-44.159 -104.636)" opacity="0.5" fill="url(#linear-gradient-8)" style="mix-blend-mode: overlay;isolation: isolate"/>
        </g>
        <g id="Group_236" data-name="Group 236" transform="translate(19.267 116.372)">
          <path id="Path_528" data-name="Path 528" d="M60.417,145.488c-1.8-3.809-4.236-3.092-7.51-2.206-3.959,1.064-9.171,2.425-15.858-3.823-9.006-8.424-6.527-18.269-6.527-18.269,1.325-1.278,2.895.125,4.775,2.188,3.351,3.656,7.667,9.462,13.149,5.9,8.518-5.571,23.269.073,28.424,12.58C83.7,158.411,64.421,153.951,60.417,145.488Z" transform="translate(-30.21 -120.701)" fill="#f5eabd"/>
          <path id="Path_529" data-name="Path 529" d="M57.558,143.95c-1.8-3.809-4.236-3.092-7.51-2.206a7.039,7.039,0,0,1,.93-.848c.963-.684,2.082-1.123,3.052-1.774a3.653,3.653,0,0,0,1.83-2.834c-.047-1.891-2.246-2.989-4.119-3.36a15.856,15.856,0,0,0-3.626-.317c-1.335.068-2.657.343-3.978.479a12.649,12.649,0,0,1-7.26-1.187,8.4,8.4,0,0,1-4.394-5.686,13.618,13.618,0,0,1-.08-3.541,7.466,7.466,0,0,0,.033-.836c3.351,3.656,7.667,9.462,13.149,5.9,8.518-5.571,23.269.073,28.424,12.58C80.836,156.874,61.561,152.414,57.558,143.95Z" transform="translate(-27.35 -119.163)" opacity="0.5" fill="url(#linear-gradient-9)" style="mix-blend-mode: overlay;isolation: isolate"/>
        </g>
        <g id="Group_237" data-name="Group 237" transform="translate(45.091 70.807)">
          <path id="Path_530" data-name="Path 530" d="M67.727,172.6c-13.132,17.449-21.2.054-18.482-12.122a16.092,16.092,0,0,1,2.19-5.259c7.4-10.971-14.509-9.8-9.474-32.792,3.748-17.054,17.517-21.123,17.517-21.123A2.159,2.159,0,0,1,61.143,103c1.266,5.263-9.706,20.466,1.414,25.931C75.457,135.306,79.238,157.325,67.727,172.6Z" transform="translate(-41.2 -101.309)" fill="#f5eabd"/>
          <path id="Path_531" data-name="Path 531" d="M63.409,171.632c-13.132,17.449-21.2.054-18.482-12.122,5.529-.839,11.137-2.108,15.332-5.707a3.806,3.806,0,0,0,1.18-5.291c-2.324-5.529-6.687-9.909-10.313-14.718-3.621-4.777-6.617-10.719-5.421-16.6.928-4.511,4.14-8.184,7.366-11.448a52.358,52.358,0,0,1,3.755-3.715c1.266,5.263-9.706,20.466,1.414,25.931C71.139,134.333,74.92,156.352,63.409,171.632Z" transform="translate(-36.882 -100.336)" opacity="0.5" fill="url(#linear-gradient-10)" style="mix-blend-mode: overlay;isolation: isolate"/>
        </g>
      </g>
      <g id="Group_241" data-name="Group 241" transform="translate(161.387)">
        <path id="Path_532" data-name="Path 532" d="M278.337,52.367v9.772H90.695V52.367A3.477,3.477,0,0,1,94.161,48.9h180.71A3.432,3.432,0,0,1,278.337,52.367Z" transform="translate(-90.695 -48.901)" fill="#1b2c7b"/>
        <path id="Path_533" data-name="Path 533" d="M278.307,54.534v88.058a13,13,0,0,1-12.991,12.991H103.7a13,13,0,0,1-12.991-12.991V54.534Z" transform="translate(-90.677 -41.298)" fill="#fff"/>
        <g id="Group_239" data-name="Group 239" transform="translate(7.721 35.948)">
          <path id="Path_534" data-name="Path 534" d="M121.538,69.5H96.631a2.65,2.65,0,0,1-2.65-2.65h0a2.648,2.648,0,0,1,2.65-2.648h24.906a2.648,2.648,0,0,1,2.648,2.648h0A2.65,2.65,0,0,1,121.538,69.5Z" transform="translate(-93.981 -64.2)" fill="#e90566"/>
          <path id="Path_535" data-name="Path 535" d="M142.734,75.815h-46.1a2.65,2.65,0,0,1-2.65-2.65h0a2.65,2.65,0,0,1,2.65-2.65h46.1a2.65,2.65,0,0,1,2.65,2.65h0A2.65,2.65,0,0,1,142.734,75.815Z" transform="translate(-93.981 -55.678)" fill="#1b2c7b"/>
          <path id="Path_536" data-name="Path 536" d="M132.49,80.4H96.631a2.648,2.648,0,0,1-2.65-2.648h0a2.65,2.65,0,0,1,2.65-2.65H132.49a2.65,2.65,0,0,1,2.648,2.65h0A2.648,2.648,0,0,1,132.49,80.4Z" transform="translate(-93.981 -49.489)" fill="#e90566"/>
          <path id="Path_537" data-name="Path 537" d="M121.375,80.4h-5.122a2.648,2.648,0,0,1-2.65-2.648h0a2.65,2.65,0,0,1,2.65-2.65h5.122a2.65,2.65,0,0,1,2.65,2.65h0A2.648,2.648,0,0,1,121.375,80.4Z" transform="translate(-67.499 -49.489)" fill="#e90566"/>
          <path id="Path_538" data-name="Path 538" d="M153.331,84.985h-56.7a2.65,2.65,0,0,1-2.65-2.648h0a2.65,2.65,0,0,1,2.65-2.65h56.7a2.65,2.65,0,0,1,2.65,2.65h0A2.65,2.65,0,0,1,153.331,84.985Z" transform="translate(-93.981 -43.299)" fill="#1b2c7b"/>
          <rect id="Rectangle_182" data-name="Rectangle 182" width="31.795" height="5.299" rx="1.128" transform="translate(0 47.162)" fill="#e90566"/>
        </g>
        <g id="Group_240" data-name="Group 240" transform="translate(76.019 35.186)">
          <path id="Path_539" data-name="Path 539" d="M123.048,120.32c8.191-12.681,10.548-35.5,17.094-50.405,2.3-6.783,8.231-8.12,11.7-2.636h0c2.277,3.6,5.832,4.439,8.7,2.042l1.49-1.245c3.311-2.763,7.444-1.191,9.54,3.633l2.35,5.409c2.524,5.8,7.834,6.7,11.109,1.868l7.949-11.72c3.661-5.4,9.69-3.543,11.727,3.607l1.125,3.954a79.546,79.546,0,0,0,10.754,23.431l15.263,22.063Z" transform="translate(-123.048 -63.876)" fill="#ff8d67"/>
          <path id="Path_540" data-name="Path 540" d="M123.048,106.058l3.912-16.781c1.417-6.076,6.342-8.083,9.521-3.877l1.349,1.781c1.9,2.519,4.622,2.937,6.812,1.053l14.652-12.62c2.227-1.917,5-1.447,6.9,1.175l8.94,12.319c2.1,2.9,5.237,3.137,7.514.566h0c2.173-2.451,5.141-2.359,7.251.221l5.595,6.847c2.035,2.493,4.883,2.672,7.044.442l14.211-14.66c3-3.095,7.082-1.417,8.684,3.569l6.415,19.965Z" transform="translate(-123.048 -49.615)" fill="#e90566"/>
        </g>
        <path id="Path_541" data-name="Path 541" d="M252.842,79.84v37.292a13,13,0,0,1-12.991,12.991H109.576a37.571,37.571,0,0,1,11-4.236c12.176-3.012,24.606-4.979,36.6-8.628,12-3.675,23.739-9.19,32.493-18.172,7.272-7.453,12.531-17.279,21.694-22.233,6.405-3.445,14.063-4.032,21.26-2.986C239.595,74.889,246.256,77.314,252.842,79.84Z" transform="translate(-65.212 -15.837)" opacity="0.5" fill="url(#linear-gradient-11)" style="mix-blend-mode: overlay;isolation: isolate"/>
        <path id="Path_542" data-name="Path 542" d="M254.283,48.9a33.388,33.388,0,0,0-6.793,3.534,40.322,40.322,0,0,0-9.7,9.7,70.525,70.525,0,0,0-8.25,14.833c-4.02,9.5-6.931,19.411-11.784,28.49a29.855,29.855,0,0,1-6.029,8.041c-2.982,2.5-6.725,3.882-10.4,5.129a201.17,201.17,0,0,1-19.826,5.616c-8.94,2.009-18.09,3.4-27.172,2.425S136.168,122.1,130,115.375s-8.94-16.913-5.613-25.369c1.732-4.368,4.852-8.111,5.613-12.686,1.041-5.893-2.148-11.368-6.931-15.181A26.854,26.854,0,0,0,114.4,57.5c-7.627-2.357-15.736-2.011-23.708-3.05V52.367A3.477,3.477,0,0,1,94.161,48.9Z" transform="translate(-90.695 -48.901)" opacity="0.5" fill="url(#linear-gradient-2)" style="mix-blend-mode: overlay;isolation: isolate"/>
      </g>
      <g id="Group_242" data-name="Group 242" transform="translate(209.977 48.982)" opacity="0.1">
        <path id="Path_543" data-name="Path 543" d="M196.648,114.821c-1.123,1.172-2.272,2.321-3.419,3.393-9.547,9.011-18.633,14.676-25.524,15.418.052-4.366.254-9.063.51-13.912v-.075c-5.665,1.786-15.7,2.246-17.994,1.708a24.489,24.489,0,0,1-6.814-3.879l-.026-.026c-4.723-3.649-9.93-9.161-14.958-15.007v-.026l2.629-2.961,19.4,13.348,15.465-3.419,2.961-.665c.2-.1.435-.179.665-.28a33.7,33.7,0,0,1,9.239-2.347,14.511,14.511,0,0,0,.409-2.272,2.923,2.923,0,0,1-1.328-.435c-2.808-2.068-3.522-5.921-3.752-9.368a.935.935,0,0,1-.867-.611c-1.3-1.788-1.328-5.463-.663-6.892a9.257,9.257,0,0,0,7.5,0c2.35-.714,5.158,2.119,6.816,3.292,2.756,2.246,3.905,9.725-.155,13.478-.919.841-.764,1.147-2.4,1.454a7.066,7.066,0,0,0,.435.994c3.7.052,7.044.587,9.034,1.635C195.475,108.669,196.291,111.3,196.648,114.821Z" transform="translate(-88.365 -47.272)"/>
        <path id="Path_544" data-name="Path 544" d="M154.036,121.93s-2.169-3.09-2.871-3.1c-.39,0-.155.273.085.606L112.346,70.4c-.853-1.114-1.393-.7-.543.414l35.468,48.131c-.376,1.217-.562,2.749-.031,3.63,1.043,1.736,4.2,2.321,4.2,2.321Z" transform="translate(-111.375 -69.748)"/>
      </g>
      <path id="Path_545" data-name="Path 545" d="M78.09,177.275a32.031,32.031,0,0,1-32.007-32.033c0-15.238,11.384-35.221,21.976-31.88.026,0,.052.026.078.026a10.816,10.816,0,0,1,4.9,3.447c8.778,10.082,18.121,13.68,25.983,16.488a64.005,64.005,0,0,1,9.927,4.11c4.135,2.3,7.1,5.538,8.219,11.614C120.358,166.452,95.778,177.275,78.09,177.275Z" transform="translate(10.48 37.6)" fill="#e90566"/>
      <path id="Path_546" data-name="Path 546" d="M78.09,177.275a32.031,32.031,0,0,1-32.007-32.033c0-15.238,11.384-35.221,21.976-31.88.026,0,.052.026.078.026-.688,2.6-2.3,5.158-3.522,7.632a27.052,27.052,0,0,0-2.528,17.561,20.9,20.9,0,0,0,10.339,14.114c3.853,2.016,8.294,2.6,12.634,2.73a30.645,30.645,0,0,0,10-.994,20.684,20.684,0,0,0,13.452-14.091,17.77,17.77,0,0,0,.432-2.909c4.135,2.3,7.1,5.538,8.219,11.614C120.358,166.452,95.778,177.275,78.09,177.275Z" transform="translate(10.48 37.6)" opacity="0.5" fill="url(#linear-gradient-13)" style="mix-blend-mode: overlay;isolation: isolate"/>
      <g id="Group_249" data-name="Group 249" transform="translate(77.691 113.352)">
        <g id="Group_244" data-name="Group 244" transform="translate(8.381 6.866)">
          <g id="Group_243" data-name="Group 243">
            <path id="Path_547" data-name="Path 547" d="M98.928,102.654c-1.753,2.22-3.553,4.415-5.329,6.438a75.118,75.118,0,0,1-7.622,7.7l-.024.026a21.942,21.942,0,0,1-6.02,3.774c-2.613.714-16.3-1.382-19.312-4.119-1.431-1.283-2.246-2.368-1.9-3.233.395-.985,2.171-1.7,6.069-2.119,2.761.32,7.942.32,14.627,1.751l17.044-12.8Z" transform="translate(-58.641 -100.065)" fill="#ffbba4"/>
          </g>
        </g>
        <g id="Group_245" data-name="Group 245" transform="translate(5.795 51.818)">
          <path id="Path_548" data-name="Path 548" d="M91.47,133.867a4.017,4.017,0,0,0,2.011,1.182c1.382.381-2.263,6.391-2.263,6.391a4.993,4.993,0,0,1-2.477-2.636,5.675,5.675,0,0,0-1.7-2.578Z" transform="translate(-17.723 -99.396)" fill="#fbd783"/>
          <path id="Path_549" data-name="Path 549" d="M57.541,129.32c10.956,23.459,32.038,2.411,38.431,5.891,5.9,3.212,30.795,22.463,30.795,22.463,1.4-.078,4.7-3.51,5.078-5.221-11.5-12.218-27.59-25.278-32.261-28.379-5.277-3.473-20.618-11.229-32.223,5.31Z" transform="translate(-57.541 -119.197)" fill="#1b2c7b"/>
          <path id="Path_550" data-name="Path 550" d="M88.249,142.785A4.793,4.793,0,0,0,91.79,145.8c3.188-4.417,6.4-8.644,9.117-12.94-1.6-1.121-6.7,1.633-9.013,3.543A8.5,8.5,0,0,1,88.249,142.785Z" transform="translate(-16.096 -101.099)" fill="#1b2c7b"/>
        </g>
        <g id="Group_246" data-name="Group 246" transform="translate(1.649 49.36)">
          <path id="Path_551" data-name="Path 551" d="M81.6,143.951c.167.928-2.714.935-4.749.836-1.118-.042-1.978-.139-1.978-.139a4.856,4.856,0,0,1,.153-1.177,4.722,4.722,0,0,1,1.177-2.2c.122-.129.216-.24.31-.348a5.992,5.992,0,0,0,.649-.865,4.16,4.16,0,0,0,.644-1.417l4.018,2.993A4.023,4.023,0,0,0,81.6,143.951Z" transform="translate(-29.998 -90.492)" fill="#fbd783"/>
          <path id="Path_552" data-name="Path 552" d="M108.934,169.271a3.781,3.781,0,0,1-1.33.024,12.141,12.141,0,0,1-4.662-1.577,2.8,2.8,0,0,1-.489-.359,1.469,1.469,0,0,1-.4-.444l.74-33.889c-14.27,7.336-30.818,15.437-39.554,11.344-6.455-4.927-8.132-9.225-7.244-15.31,25.268-6.262,51.777-14,58.791-9.634C117.548,120.154,115.922,153.881,108.934,169.271Z" transform="translate(-55.776 -118.15)" fill="#1b2c7b"/>
          <path id="Path_553" data-name="Path 553" d="M89.929,147.812c-5.049-.616-10.242-1.708-15.578-2.7a4.8,4.8,0,0,1,1.2-4.5,3.054,3.054,0,0,0,.418.2,8.126,8.126,0,0,0,1.57.62,8.236,8.236,0,0,0,5-.141,2.162,2.162,0,0,0,.341-.092,21.5,21.5,0,0,1,3.247,1.931C88.242,144.668,90.145,146.548,89.929,147.812Z" transform="translate(-30.934 -87.831)" fill="#1b2c7b"/>
        </g>
        <path id="Path_554" data-name="Path 554" d="M80.677,146.108a64.215,64.215,0,0,1-7.672,2.813h-.049c-5.721,1.7-13.959,3.823-16.476,0-4.145-6.339,1.727-38.208,6.586-42.254,3.7-2.737,11.495-2.639,15.292,1.309a7.205,7.205,0,0,1,1.628,3.379c1.086,4.415.148,11.126-1.7,15.985-.049.122-.075.221-.125.32a10.619,10.619,0,0,0-.592,2.22C76.483,136.685,80.677,146.108,80.677,146.108Z" transform="translate(-55.075 -86.828)" fill="#ffbba4"/>
        <g id="Group_247" data-name="Group 247" transform="translate(31.264 20.978)">
          <path id="Path_555" data-name="Path 555" d="M90.02,126.3l-20.43-3.95a1.345,1.345,0,0,1-1.062-1.953l6.022-13.038a2.413,2.413,0,0,1,2.542-1.255l20.43,3.95a1.345,1.345,0,0,1,1.06,1.953l-6.02,13.038A2.417,2.417,0,0,1,90.02,126.3Z" transform="translate(-68.381 -106.071)" fill="#6db5cb"/>
          <path id="Path_556" data-name="Path 556" d="M96.148,112.258l-.919,2.018-3.626,7.86a2.393,2.393,0,0,1-2.552,1.252l-18.708-3.626a1.333,1.333,0,0,1-1.071-1.938l1.454-3.116,3.113-6.762a2.434,2.434,0,0,1,2.526-1.252L95.1,110.32A1.334,1.334,0,0,1,96.148,112.258Z" transform="translate(-67.373 -105.275)" fill="#fff"/>
          <path id="Path_557" data-name="Path 557" d="M95.228,110.064l-1.711,3.727L91.6,117.924a2.393,2.393,0,0,1-2.552,1.252L70.343,115.55a1.345,1.345,0,0,1-1.1-1.889c0-.026.026-.026.026-.049l1.454-3.116,5.947-.714,2.042,4.34,6.048-1.252,2.878-3.087,1.614,3.752L91.91,112Z" transform="translate(-67.372 -101.062)" fill="#b7d8df"/>
          <path id="Path_558" data-name="Path 558" d="M93.517,112.985,91.6,117.118a2.393,2.393,0,0,1-2.552,1.252l-18.708-3.626a1.345,1.345,0,0,1-1.1-1.889l4.415-.919,6.151,3.191,2.373-1.429,4.441,2.195,2.629-3.165,1.967-2.35s.28.334.688.818C92.368,111.707,92.982,112.4,93.517,112.985Z" transform="translate(-67.372 -100.256)" fill="#fe7235"/>
        </g>
        <g id="Group_248" data-name="Group 248" transform="translate(17.866 21.154)">
          <path id="Path_559" data-name="Path 559" d="M95.328,129.819v.023c-1.678.322-3.329.592-4.984.865a86.482,86.482,0,0,1-14.084,1.231l-.024-.023a21.607,21.607,0,0,1-7.007-1.109,6.111,6.111,0,0,1-1.924-2.763,57.8,57.8,0,0,1-3.057-8.929c0-.026-.026-.049-.026-.075a53.878,53.878,0,0,1-1.5-6.932c-.493-3.994,3.527-9.225,6.758-3.28.075.2.174.444.247.691,1.283,3.231,4.145,10.113,4.194,15.12l21.262,1.6v.023Z" transform="translate(-62.678 -106.146)" fill="#ffbba4"/>
          <path id="Path_560" data-name="Path 560" d="M76.657,119.218s2.592,1.746,4.314,1.114c1.833-.672,1.72-4.728.719-5.59s-2.512,1.311-2.871.8.531-1.088.035-1.48-2.343,1.593-2.343,1.593Z" transform="translate(-44.009 -95.538)" fill="#fbd783"/>
        </g>
        <path id="Path_561" data-name="Path 561" d="M74.786,103.857c-.049-1.158,1.1-2.587,1.57-3.461.087-.214,1.088-.55,1.154-.3a44.107,44.107,0,0,0,3.567-2.73c.486-.12.9.268.625.879l-2.282,2a8.881,8.881,0,0,1,.489,3.818,7.754,7.754,0,0,1-2.768,2.263Z" transform="translate(-28.473 -96.873)" fill="#fbd783"/>
        <path id="Path_562" data-name="Path 562" d="M60.406,108.359a10.361,10.361,0,0,0,1.125-5.042h4.7a17.213,17.213,0,0,0,.562,5.609C66.377,109.715,60.8,109.4,60.406,108.359Z" transform="translate(-47.879 -88.81)" fill="#fbd783"/>
        <path id="Path_563" data-name="Path 563" d="M60.1,110.619c2.674,1.513,5.583,3.717,7.4,2.721,3.219-2.38,4.359-9.38,4.85-13.24L61.261,98.264Z" transform="translate(-48.295 -95.63)" fill="#fbd783"/>
        <path id="Path_564" data-name="Path 564" d="M60.547,110.9c1.1,1.191.275,2.411,4.128,3.231,2.3.484,4.142-1.739,4.088-3.806-1.053-.938-2.352-1.9-2.267-2.808-.106-.8.524-1.238,1.292-1.447a5.182,5.182,0,0,1,1.2,1.826l.987-.945L69.555,104c2.469.526,6.039,3.038,6.713,1.666,2.665.261,8.76-4.739,5.933-8.527-2.594.794-8.666,0-13.442.2-2.27-.926-5.294,1.617-7.04,2.62A7.181,7.181,0,0,0,60.547,110.9Z" transform="translate(-50.41 -97.143)" fill="#022539"/>
      </g>
      <g id="Group_253" data-name="Group 253" transform="translate(207.632 33.176)">
        <g id="Group_250" data-name="Group 250" transform="translate(76.076 98.37)">
          <path id="Path_565" data-name="Path 565" d="M146.918,138.9a4.445,4.445,0,0,1-.207,2.568c-.533,1.492,7.216,2.009,7.216,2.009a5.511,5.511,0,0,0-.811-3.912,6.269,6.269,0,0,1-1.255-3.172Z" transform="translate(-137.449 -62.369)" fill="#fbd783"/>
          <path id="Path_566" data-name="Path 566" d="M163.494,106.3c-1.274,19.2-7.867,26.337-7.867,33.767s2.1,40.2,2.1,40.2c-.961,1.217-4.462,2.007-6.245,1.257-3.752-18.163-8.513-39.444-8.353-45.638a110.651,110.651,0,0,1,5.707-30.994Z" transform="translate(-142.249 -104.886)" fill="#1b2c7b"/>
          <path id="Path_567" data-name="Path 567" d="M159.763,139.223a5.3,5.3,0,0,1,.482,5.12c-6.018.08-11.878.3-17.491.033,0-2.159,5.729-5.026,8.926-5.9A9.4,9.4,0,0,0,159.763,139.223Z" transform="translate(-142.754 -59.558)" fill="#1b2c7b"/>
        </g>
        <g id="Group_251" data-name="Group 251" transform="translate(90.521 96.018)">
          <path id="Path_568" data-name="Path 568" d="M157.082,138.193a4.435,4.435,0,0,1,.322,2.556c-.216,1.57,7.474.5,7.474.5a5.51,5.51,0,0,0-1.593-3.663,6.268,6.268,0,0,1-1.875-2.853Z" transform="translate(-137.861 -62.255)" fill="#fbd783"/>
          <path id="Path_569" data-name="Path 569" d="M164.335,103.885c2.667,19.06-2.331,27.388-.818,34.66s10.118,38.969,10.118,38.969c-.691,1.389-3.614,2.679-5.512,2.31C160.745,162.808,151.539,143.1,150.432,137a110.743,110.743,0,0,1-.733-31.507Z" transform="translate(-148.902 -103.885)" fill="#1b2c7b"/>
          <path id="Path_570" data-name="Path 570" d="M169.473,136.857a5.3,5.3,0,0,1,1.516,4.916c-5.876,1.3-11.567,2.714-17.117,3.6-.439-2.115,4.584-6.09,7.535-7.6A9.4,9.4,0,0,0,169.473,136.857Z" transform="translate(-142.231 -59.384)" fill="#1b2c7b"/>
        </g>
        <path id="Path_571" data-name="Path 571" d="M145.336,134.992c1.793,1.01,4.913,1.588,8.44,1.821,7.46.463,16.739-.78,19.225-3.3-1.473-19.427,3.036-39.488-2.744-43.969C165.484,87,153.141,87.437,146,90.616a4.726,4.726,0,0,0-.665.289c-.174,2.514-.348,5-.463,7.43-.087,1.215-.143,2.371-.2,3.555C143.947,115.074,143.776,127.041,145.336,134.992Z" transform="translate(-64.812 -29.444)" fill="#f269a3"/>
        <path id="Path_572" data-name="Path 572" d="M155.1,91.245a11.479,11.479,0,0,1-1.245-5.573h-4.443a19.068,19.068,0,0,1-.606,6.2C149.264,92.742,154.656,92.4,155.1,91.245Z" transform="translate(-58.517 -32.449)" fill="#fbd783"/>
        <path id="Path_573" data-name="Path 573" d="M158.117,93.488c-2.824,1.271-5.672,2.585-7.406,1.412-3.912-2.888-3.781-9.2-3.912-13.118l11.3-.808Z" transform="translate(-61.219 -38.789)" fill="#fbd783"/>
        <path id="Path_574" data-name="Path 574" d="M160.638,96.56c-1.215,1.093-.538,1.295-4.486,1.758-2.35.273-3.663-3.428-3.416-5.5,1.147-.841,2.54-1.682,2.54-2.608.181-.8-.411-1.292-1.163-1.574a5.264,5.264,0,0,0-1.377,1.722l-.9-1.041.7-2.918c-2.528.3-4.847,1.722-5.395.282-1.323-1.8-1.33-5.456-.667-6.894a9.1,9.1,0,0,0,7.484,0c2.366-.719,5.165,2.117,6.823,3.287C163.54,85.334,164.7,92.8,160.638,96.56Z" transform="translate(-62.248 -40.548)" fill="#022539"/>
        <path id="Path_575" data-name="Path 575" d="M150.961,116.037h0c-.658.5-1.849.038-2.634-1.029L110.8,64.091c-.851-1.114-.31-1.527.543-.414l39.31,49.547C151.48,114.263,151.619,115.537,150.961,116.037Z" transform="translate(-110.377 -63.021)" fill="#1b2c7b"/>
        <g id="Group_252" data-name="Group 252" transform="translate(35.534 47.389)">
          <path id="Path_576" data-name="Path 576" d="M149.211,107.122c2.918.691,18.191-.221,21.377-3.372l-2.7-9.241-18.445,4.074-19.4-13.356-2.618,2.986c5.031,5.848,10.23,11.363,14.953,15.012l.026.014A23.938,23.938,0,0,0,149.211,107.122Z" transform="translate(-122.901 -80.437)" fill="#f269a3"/>
          <path id="Path_577" data-name="Path 577" d="M130.028,90.952s-3.153-.583-4.2-2.321c-1.111-1.852.893-6.588,1.295-5.186.273.959,2.152,4.525,2.977,2.841.258-.526-1.048-1.407-.345-1.4s2.869,3.1,2.869,3.1Z" transform="translate(-125.5 -83.189)" fill="#fbd783"/>
        </g>
      </g>
    </g>
  </g>
</svg>
