<svg xmlns="http://www.w3.org/2000/svg" viewBox="0 0 336.83 286.46"><defs><style>.cls-1{isolation:isolate;}.cls-2,.cls-3{fill:#e5dcff;}.cls-3{opacity:0.8;}.cls-3,.cls-4,.cls-66,.cls-68,.cls-75,.cls-78,.cls-79,.cls-80,.cls-81,.cls-83,.cls-85,.cls-86,.cls-90,.cls-91,.cls-94,.cls-96,.cls-98{mix-blend-mode:multiply;}.cls-5{fill:#fff;}.cls-6{fill:#fefefe;}.cls-7{fill:#fdfdfd;}.cls-8{fill:#fcfcfc;}.cls-9{fill:#fbfbfb;}.cls-10{fill:#fafafa;}.cls-11{fill:#f9f9fa;}.cls-12{fill:#f8f8f9;}.cls-13{fill:#f7f8f8;}.cls-14{fill:#f6f7f7;}.cls-15{fill:#f5f6f6;}.cls-16{fill:#f4f5f5;}.cls-17{fill:#f3f4f4;}.cls-18{fill:#f2f3f3;}.cls-19{fill:#f1f2f2;}.cls-20{fill:#f0f1f1;}.cls-21{fill:#eff0f0;}.cls-22{fill:#eeefef;}.cls-23{fill:#edeeef;}.cls-24{fill:#ecedee;}.cls-25{fill:#ebeced;}.cls-26{fill:#eaebec;}.cls-27{fill:#e9eaeb;}.cls-28{fill:#e8e9ea;}.cls-29{fill:#e8e9e9;}.cls-30{fill:#e7e8e8;}.cls-31{fill:#e6e7e7;}.cls-32{fill:#e5e6e6;}.cls-33{fill:#e4e5e5;}.cls-34{fill:#e3e4e4;}.cls-35{fill:#e2e3e4;}.cls-36{fill:#e1e2e3;}.cls-37{fill:#e0e1e2;}.cls-38{fill:#dfe0e1;}.cls-39{fill:#dedfe0;}.cls-40{fill:#dddedf;}.cls-41{fill:#dcddde;}.cls-42{fill:#dbdcdd;}.cls-43{fill:#dadbdc;}.cls-44{fill:#d9dadb;}.cls-45{fill:#d8dada;}.cls-46{fill:#d7d9d9;}.cls-47{fill:#d6d8d9;}.cls-48{fill:#d5d7d8;}.cls-49{fill:#d4d6d7;}.cls-50{fill:#d3d5d6;}.cls-51{fill:#d2d4d5;}.cls-52{fill:#d1d3d4;}.cls-53{fill:#6136c9;}.cls-54,.cls-98{fill:#b38ff7;}.cls-55,.cls-68{fill:#ffce55;}.cls-56{fill:#db3931;}.cls-57,.cls-85{fill:#00a79d;}.cls-58{fill:#5fc8d7;}.cls-59{fill:#f7941d;}.cls-60{fill:#ef4065;}.cls-61,.cls-86{fill:#f16680;}.cls-62{fill:#8cecf4;}.cls-63{fill:#006838;}.cls-64{fill:#f8e4d2;}.cls-65,.cls-66{fill:#bb4738;}.cls-66,.cls-68,.cls-75,.cls-78,.cls-79,.cls-80,.cls-81,.cls-83,.cls-85,.cls-86,.cls-89,.cls-90,.cls-91,.cls-94,.cls-96,.cls-98{opacity:0.5;}.cls-67,.cls-81{fill:#ffbba6;}.cls-69{fill:#fffdeb;}.cls-70,.cls-80{fill:#fee0cf;}.cls-71,.cls-78{fill:#0b5f99;}.cls-72{fill:#647fa0;}.cls-73,.cls-75{fill:#7991b4;}.cls-74{fill:#a2c4ed;}.cls-76{fill:#ffe7c4;}.cls-77{fill:#ffc9ae;}.cls-79{fill:#f4e0cb;}.cls-82,.cls-83{fill:#be1e2d;}.cls-84{fill:#00998a;}.cls-87,.cls-90{fill:#594a42;}.cls-88,.cls-91{fill:#877f7d;}.cls-89{fill:#fc957a;}.cls-92,.cls-94{fill:#ddc2bf;}.cls-93{fill:#fce2e0;}.cls-95,.cls-96{fill:#9d2e24;}.cls-97{fill:#8c67e8;}.cls-99{fill:#a59c9a;}</style></defs><title>Asset 1</title><g class="cls-1"><g id="Layer_2" data-name="Layer 2"><g id="OBJECTS"><path class="cls-2" d="M150.3,32.05c13.31,9.55,29.48,17.14,45.14,13.29,21.43-5.27,34.7-30,56-35.84,21.67-6,43.71,9.84,57,28.93,9.81,14.09,16.9,32.58,11,48.95-6.56,18.27-27.66,29.39-29,48.88-1,14.61,9.75,26.86,20,36.72S332,194.09,332.5,208.73c.41,10.88-5.44,21-12.53,28.86-14.55,16.16-37,25.94-57.18,19.53-21.16-6.72-38-29.81-59.92-27.22-13.22,1.55-23.55,12.19-34,20.94a151.94,151.94,0,0,1-87.75,35.39c-13.71.85-28.14-.44-39.83-8.09C24.42,267.09,16.62,242.65,23.72,223c6.54-18.07,23.52-28.41,29.85-46.57,6.44-18.49-2.79-36.68-15.49-49C28.67,118.25,9.51,106,16.58,89.66,21.92,77.3,38.75,75.74,36.7,59.25c-1.08-8.61-7.1-15.82-5.86-24.87C33,18.4,48.74,7.32,62.31,3.2c16.93-5.13,38.09-4.36,53.94,4.26C128.52,14.14,138.93,23.9,150.3,32.05Z"/><ellipse class="cls-2" cx="24.13" cy="164.78" rx="24.13" ry="25.57"/><ellipse class="cls-2" cx="319.15" cy="138.07" rx="17.67" ry="15.34"/><ellipse class="cls-3" cx="55.17" cy="260.49" rx="22.59" ry="5.75"/><path class="cls-3" d="M284.89,253.47c0,3.17-10.11,5.75-22.58,5.75s-22.59-2.58-22.59-5.75,10.11-5.75,22.59-5.75S284.89,250.29,284.89,253.47Z"/><path class="cls-3" d="M180,242.82c-10,0-18.55,1-21.49,2.28-2.69-.9-8.85-1.53-16-1.53-9.65,0-17.47,1.14-17.47,2.55s7.82,2.55,17.47,2.55c7.17,0,13.33-.63,16-1.53,2.94,1.32,11.45,2.28,21.49,2.28,12.48,0,22.59-1.48,22.59-3.3S192.5,242.82,180,242.82Z"/><g class="cls-4"><rect class="cls-5" x="60.69" y="91.57" width="199.49" height="120.84" rx="12.12"/><rect class="cls-6" x="60.89" y="91.38" width="199.49" height="120.84" rx="12.12"/><rect class="cls-7" x="61.08" y="91.18" width="199.49" height="120.84" rx="12.12"/><rect class="cls-8" x="61.28" y="90.98" width="199.49" height="120.84" rx="12.12"/><rect class="cls-9" x="61.48" y="90.78" width="199.49" height="120.84" rx="12.12"/><rect class="cls-10" x="61.68" y="90.59" width="199.49" height="120.84" rx="12.12"/><rect class="cls-11" x="61.87" y="90.39" width="199.49" height="120.84" rx="12.12"/><rect class="cls-12" x="62.07" y="90.19" width="199.49" height="120.84" rx="12.12"/><rect class="cls-13" x="62.27" y="89.99" width="199.49" height="120.84" rx="12.12"/><rect class="cls-14" x="62.46" y="89.8" width="199.49" height="120.84" rx="12.12"/><rect class="cls-15" x="62.66" y="89.6" width="199.49" height="120.84" rx="12.12"/><rect class="cls-16" x="62.86" y="89.4" width="199.49" height="120.84" rx="12.12"/><rect class="cls-17" x="63.06" y="89.21" width="199.49" height="120.84" rx="12.12"/><rect class="cls-18" x="63.25" y="89.01" width="199.49" height="120.84" rx="12.12"/><rect class="cls-19" x="63.45" y="88.81" width="199.49" height="120.84" rx="12.12"/><rect class="cls-20" x="63.65" y="88.61" width="199.49" height="120.84" rx="12.12"/><rect class="cls-21" x="63.85" y="88.42" width="199.49" height="120.84" rx="12.12"/><rect class="cls-22" x="64.04" y="88.22" width="199.49" height="120.84" rx="12.12"/><rect class="cls-23" x="64.24" y="88.02" width="199.49" height="120.84" rx="12.12"/><rect class="cls-24" x="64.44" y="87.83" width="199.49" height="120.84" rx="12.12"/><rect class="cls-25" x="64.63" y="87.63" width="199.49" height="120.84" rx="12.12"/><rect class="cls-26" x="64.83" y="87.43" width="199.49" height="120.84" rx="12.12"/><rect class="cls-27" x="65.03" y="87.23" width="199.49" height="120.84" rx="12.12"/><rect class="cls-28" x="65.23" y="87.04" width="199.49" height="120.84" rx="12.12"/><rect class="cls-29" x="65.42" y="86.84" width="199.49" height="120.84" rx="12.12"/><rect class="cls-30" x="65.62" y="86.64" width="199.49" height="120.84" rx="12.12"/><rect class="cls-31" x="65.82" y="86.44" width="199.49" height="120.84" rx="12.12"/><rect class="cls-32" x="66.02" y="86.25" width="199.49" height="120.84" rx="12.12"/><rect class="cls-33" x="66.21" y="86.05" width="199.49" height="120.84" rx="12.12"/><rect class="cls-34" x="66.41" y="85.85" width="199.49" height="120.84" rx="12.12"/><rect class="cls-35" x="66.61" y="85.66" width="199.49" height="120.84" rx="12.12"/><rect class="cls-36" x="66.8" y="85.46" width="199.49" height="120.84" rx="12.12"/><rect class="cls-37" x="67" y="85.26" width="199.49" height="120.84" rx="12.12"/><rect class="cls-38" x="67.2" y="85.06" width="199.49" height="120.84" rx="12.12"/><rect class="cls-39" x="67.4" y="84.87" width="199.49" height="120.84" rx="12.12"/><rect class="cls-40" x="67.59" y="84.67" width="199.49" height="120.84" rx="12.12"/><rect class="cls-41" x="67.79" y="84.47" width="199.49" height="120.84" rx="12.12"/><rect class="cls-42" x="67.99" y="84.27" width="199.49" height="120.84" rx="12.12"/><rect class="cls-43" x="68.18" y="84.08" width="199.49" height="120.84" rx="12.12"/><rect class="cls-44" x="68.38" y="83.88" width="199.49" height="120.84" rx="12.12"/><rect class="cls-45" x="68.58" y="83.68" width="199.49" height="120.84" rx="12.12"/><rect class="cls-46" x="68.78" y="83.49" width="199.49" height="120.84" rx="12.12"/><rect class="cls-47" x="68.97" y="83.29" width="199.49" height="120.84" rx="12.12"/><rect class="cls-48" x="69.17" y="83.09" width="199.49" height="120.84" rx="12.12"/><rect class="cls-49" x="69.37" y="82.89" width="199.49" height="120.84" rx="12.12"/><rect class="cls-50" x="69.57" y="82.7" width="199.49" height="120.84" rx="12.12"/><rect class="cls-51" x="69.76" y="82.5" width="199.49" height="120.84" rx="12.12"/><rect class="cls-52" x="69.96" y="82.3" width="199.49" height="120.84" rx="12.12"/></g><rect class="cls-53" x="69.96" y="82.3" width="199.49" height="120.84" rx="12.12"/><rect class="cls-54" x="85.95" y="88.75" width="172.85" height="107.95" rx="6.04"/><path class="cls-54" d="M82.15,142.72a4.06,4.06,0,1,1-4.06-4.06A4.06,4.06,0,0,1,82.15,142.72Z"/><rect class="cls-5" x="93.93" y="95.49" width="157.86" height="93.81" rx="5.3"/><path class="cls-55" d="M246.49,95.49H99.23a5.3,5.3,0,0,0-5.3,5.3v8.93H251.79v-8.93A5.3,5.3,0,0,0,246.49,95.49Z"/><path class="cls-56" d="M222.3,137c-6.12.15-10.66-5.51-16.3-7.88-7.2-3-16-.17-21.27,5.58-2.49,2.7-4.73,6.21-8.35,6.84-5.17.9-9.34-4.63-14.55-5.21-7.7-.86-12.68,8.93-20.33,10.17-6.94,1.13-14.11-5.13-20.58-2.38-2.81,1.2-4.68,3.85-7,5.87s-5.77,3.48-8.33,1.81v10.13H240.83V127.28C234.56,130.09,229.17,136.82,222.3,137Z"/><path class="cls-55" d="M115.69,174.2a4.84,4.84,0,1,1-4.84-4.84A4.83,4.83,0,0,1,115.69,174.2Z"/><rect class="cls-55" x="119.97" y="171.62" width="46.88" height="5.17"/><rect class="cls-57" x="193.95" y="167.06" width="46.88" height="2.59"/><rect class="cls-57" x="193.95" y="172.91" width="46.88" height="2.59"/><rect class="cls-57" x="193.95" y="178.76" width="46.88" height="2.59"/><rect class="cls-57" x="105.62" y="115.59" width="23.64" height="8.4"/><path class="cls-58" d="M245.09,102.6a2.75,2.75,0,1,1-2.75-2.75A2.75,2.75,0,0,1,245.09,102.6Z"/><path class="cls-59" d="M222.89,102.6a2.75,2.75,0,1,1-2.75-2.75A2.75,2.75,0,0,1,222.89,102.6Z"/><path class="cls-60" d="M234.14,102.6a2.75,2.75,0,1,1-2.74-2.75A2.75,2.75,0,0,1,234.14,102.6Z"/><path class="cls-61" d="M231.21,217h-1.83a6.77,6.77,0,0,0-.55-1.33l1.29-1.29a1.23,1.23,0,0,0,0-1.74l-1.27-1.27a1.23,1.23,0,0,0-1.74,0l-1.29,1.29a7,7,0,0,0-1.33-.55v-1.83a1.23,1.23,0,0,0-1.23-1.23h-1.8a1.23,1.23,0,0,0-1.23,1.23v1.83a7,7,0,0,0-1.33.55l-1.29-1.29a1.22,1.22,0,0,0-1.73,0l-1.28,1.27a1.23,1.23,0,0,0,0,1.74l1.29,1.29a7.44,7.44,0,0,0-.55,1.33h-1.83a1.23,1.23,0,0,0-1.22,1.23V220a1.23,1.23,0,0,0,1.22,1.23h1.83a8.1,8.1,0,0,0,.55,1.33l-1.29,1.29a1.22,1.22,0,0,0,0,1.73l1.28,1.28a1.22,1.22,0,0,0,1.73,0l1.29-1.29a7.76,7.76,0,0,0,1.33.55V228a1.23,1.23,0,0,0,1.23,1.23h1.8a1.23,1.23,0,0,0,1.23-1.23v-1.82a7.76,7.76,0,0,0,1.33-.55l1.29,1.29a1.23,1.23,0,0,0,1.74,0l1.27-1.28a1.22,1.22,0,0,0,0-1.73l-1.29-1.29a7.31,7.31,0,0,0,.55-1.33h1.83a1.23,1.23,0,0,0,1.22-1.23v-1.8A1.23,1.23,0,0,0,231.21,217Zm-8.85,5.61a3.48,3.48,0,1,1,3.48-3.48A3.48,3.48,0,0,1,222.36,222.61Z"/><rect class="cls-54" x="105.76" y="212.43" width="18.65" height="18.65" rx="2.78"/><path class="cls-5" d="M113.93,225.78l-3.5-3.5a1.05,1.05,0,0,1,1.49-1.49l2,2,4.76-4.76a1.05,1.05,0,0,1,1.49,1.49Z"/><path class="cls-55" d="M264.84,51.91l-5.38,13.77a15.34,15.34,0,0,0,19.81-10.6Z"/><path class="cls-61" d="M264.72,50.62l14.81,3.25a14.76,14.76,0,0,0,.24-2.68,15.32,15.32,0,0,0-27.2-9.67Z"/><path class="cls-57" d="M263.7,51.41l-11.87-8.89a15.31,15.31,0,0,0,6.47,22.71Z"/><rect class="cls-58" x="262.45" y="91.88" width="27.66" height="17.4"/><polygon class="cls-62" points="262.45 91.89 276.28 101.4 290.11 91.89 262.45 91.89"/><g class="cls-4"><rect class="cls-5" x="175.02" y="127.36" width="100.31" height="72.42" rx="4.79"/><rect class="cls-6" x="175.16" y="127.21" width="100.31" height="72.42" rx="4.79"/><rect class="cls-7" x="175.31" y="127.07" width="100.31" height="72.42" rx="4.79"/><rect class="cls-8" x="175.46" y="126.92" width="100.31" height="72.42" rx="4.79"/><rect class="cls-9" x="175.61" y="126.77" width="100.31" height="72.42" rx="4.79"/><rect class="cls-10" x="175.76" y="126.62" width="100.31" height="72.42" rx="4.79"/><rect class="cls-11" x="175.9" y="126.47" width="100.31" height="72.42" rx="4.79"/><rect class="cls-12" x="176.05" y="126.33" width="100.31" height="72.42" rx="4.79"/><rect class="cls-13" x="176.2" y="126.18" width="100.31" height="72.42" rx="4.79"/><rect class="cls-14" x="176.35" y="126.03" width="100.31" height="72.42" rx="4.79"/><rect class="cls-15" x="176.5" y="125.88" width="100.31" height="72.42" rx="4.79"/><rect class="cls-16" x="176.64" y="125.74" width="100.31" height="72.42" rx="4.79"/><rect class="cls-17" x="176.79" y="125.59" width="100.31" height="72.42" rx="4.79"/><rect class="cls-18" x="176.94" y="125.44" width="100.31" height="72.42" rx="4.79"/><rect class="cls-19" x="177.09" y="125.29" width="100.31" height="72.42" rx="4.79"/><rect class="cls-20" x="177.23" y="125.14" width="100.31" height="72.42" rx="4.79"/><rect class="cls-21" x="177.38" y="125" width="100.31" height="72.42" rx="4.79"/><rect class="cls-22" x="177.53" y="124.85" width="100.31" height="72.42" rx="4.79"/><rect class="cls-23" x="177.68" y="124.7" width="100.31" height="72.42" rx="4.79"/><rect class="cls-24" x="177.83" y="124.55" width="100.31" height="72.42" rx="4.79"/><rect class="cls-25" x="177.97" y="124.4" width="100.31" height="72.42" rx="4.79"/><rect class="cls-26" x="178.12" y="124.26" width="100.31" height="72.42" rx="4.79"/><rect class="cls-27" x="178.27" y="124.11" width="100.31" height="72.42" rx="4.79"/><rect class="cls-28" x="178.42" y="123.96" width="100.31" height="72.42" rx="4.79"/><rect class="cls-29" x="178.57" y="123.81" width="100.31" height="72.42" rx="4.79"/><rect class="cls-30" x="178.71" y="123.67" width="100.31" height="72.42" rx="4.79"/><rect class="cls-31" x="178.86" y="123.52" width="100.31" height="72.42" rx="4.79"/><rect class="cls-32" x="179.01" y="123.37" width="100.31" height="72.42" rx="4.79"/><rect class="cls-33" x="179.16" y="123.22" width="100.31" height="72.42" rx="4.79"/><rect class="cls-34" x="179.3" y="123.07" width="100.31" height="72.42" rx="4.79"/><rect class="cls-35" x="179.45" y="122.93" width="100.31" height="72.42" rx="4.79"/><rect class="cls-36" x="179.6" y="122.78" width="100.31" height="72.42" rx="4.79"/><rect class="cls-37" x="179.75" y="122.63" width="100.31" height="72.42" rx="4.79"/><rect class="cls-38" x="179.9" y="122.48" width="100.31" height="72.42" rx="4.79"/><rect class="cls-39" x="180.04" y="122.33" width="100.31" height="72.42" rx="4.79"/><rect class="cls-40" x="180.19" y="122.19" width="100.31" height="72.42" rx="4.79"/><rect class="cls-41" x="180.34" y="122.04" width="100.31" height="72.42" rx="4.79"/><rect class="cls-42" x="180.49" y="121.89" width="100.31" height="72.42" rx="4.79"/><rect class="cls-43" x="180.64" y="121.74" width="100.31" height="72.42" rx="4.79"/><rect class="cls-44" x="180.78" y="121.59" width="100.31" height="72.42" rx="4.79"/><rect class="cls-45" x="180.93" y="121.45" width="100.31" height="72.42" rx="4.79"/><rect class="cls-46" x="181.08" y="121.3" width="100.31" height="72.42" rx="4.79"/><rect class="cls-47" x="181.23" y="121.15" width="100.31" height="72.42" rx="4.79"/><rect class="cls-48" x="181.38" y="121" width="100.31" height="72.42" rx="4.79"/><rect class="cls-49" x="181.52" y="120.86" width="100.31" height="72.42" rx="4.79"/><rect class="cls-50" x="181.67" y="120.71" width="100.31" height="72.42" rx="4.79"/><rect class="cls-51" x="181.82" y="120.56" width="100.31" height="72.42" rx="4.79"/><rect class="cls-52" x="181.97" y="120.41" width="100.31" height="72.42" rx="4.79"/></g><rect class="cls-5" x="181.97" y="120.41" width="100.31" height="72.42" rx="4.79"/><rect class="cls-61" x="190.26" y="142.07" width="83.73" height="42.48"/><path class="cls-55" d="M200.28,130.4a5,5,0,1,1-5-5A5,5,0,0,1,200.28,130.4Z"/><rect class="cls-57" x="205.86" y="125.81" width="35.18" height="3.42"/><rect class="cls-55" x="205.86" y="133.51" width="58.19" height="1.49"/><polygon class="cls-5" points="239.96 163.31 226.67 156.78 226.67 169.85 239.96 163.31"/><rect class="cls-58" x="74.77" y="53.1" width="3.33" height="3.09"/><rect class="cls-58" x="72.95" y="50.65" width="6.96" height="2.45"/><circle class="cls-57" cx="76.43" cy="66.47" r="11.15"/><circle class="cls-62" cx="76.43" cy="66.47" r="9.49"/><path class="cls-56" d="M84.31,68.56h-.07a.28.28,0,0,1-.21-.34,8.51,8.51,0,0,0,.19-1.74A7.8,7.8,0,0,0,78,58.84a.29.29,0,0,1-.22-.34.29.29,0,0,1,.34-.23,8.38,8.38,0,0,1,6.67,8.2,8.29,8.29,0,0,1-.21,1.86A.28.28,0,0,1,84.31,68.56Z"/><circle class="cls-56" cx="76.43" cy="66.47" r="1.13"/><path class="cls-56" d="M76.43,66.75a.28.28,0,0,1-.29-.28V57.78a.29.29,0,0,1,.58,0v8.69A.28.28,0,0,1,76.43,66.75Z"/><path class="cls-56" d="M82.49,69.5a.27.27,0,0,1-.12,0l-6.06-2.74a.29.29,0,0,1-.14-.38.27.27,0,0,1,.38-.14L82.61,69a.29.29,0,0,1,.14.38A.28.28,0,0,1,82.49,69.5Z"/><path class="cls-63" d="M76.83,74.74a.4.4,0,1,1-.8,0,.4.4,0,0,1,.8,0Z"/><circle class="cls-63" cx="70.58" cy="72.32" r="0.4"/><circle class="cls-63" cx="68.16" cy="66.47" r="0.4"/><circle class="cls-63" cx="70.58" cy="60.62" r="0.4"/><circle class="cls-63" cx="82.28" cy="72.32" r="0.4"/><path class="cls-61" d="M71,53.57H43.36l23.32,2.84A11.42,11.42,0,0,1,71,54Z"/><path class="cls-61" d="M49.73,59.42l13.18,2.77a13.91,13.91,0,0,1,1.26-2.77Z"/><path class="cls-61" d="M62.27,65.26H54.44L62.27,68c0-.44-.06-.9-.06-1.35S62.23,65.7,62.27,65.26Z"/><path class="cls-61" d="M58.33,71.11l5.84,2.67A13.75,13.75,0,0,1,63,71.11Z"/><rect class="cls-61" x="32.93" y="158.91" width="3.44" height="9.07"/><path class="cls-61" d="M50.12,160.07a1.56,1.56,0,0,0-1.45-1L42,158.82c.92-1,1-3.61,1-4.85a.69.69,0,0,0-.69-.69h0a.69.69,0,0,0-.63.41A7.8,7.8,0,0,1,40,156.13a15.22,15.22,0,0,0-2.17,2.78V168h8.32a1.79,1.79,0,0,0,1.79-1.83c0-.24,0-.48,0-.73,0-1.33,2.65-2.47,2.65-3.51A6.32,6.32,0,0,0,50.12,160.07Z"/><polygon class="cls-55" points="70.53 99.59 48.9 99.59 48.9 142.01 81.65 142.01 81.65 110.72 70.53 99.59"/><polygon class="cls-59" points="70.53 99.59 81.65 110.72 70.53 110.72 70.53 99.59"/><rect class="cls-5" x="53.56" y="105.82" width="11.72" height="2.13"/><rect class="cls-5" x="53.56" y="115.49" width="23.32" height="2.13"/><rect class="cls-5" x="53.56" y="121.16" width="23.32" height="2.13"/><rect class="cls-5" x="53.56" y="126.83" width="23.32" height="2.13"/><rect class="cls-5" x="53.56" y="132.5" width="23.32" height="2.13"/><path class="cls-64" d="M141.83,238.27a9.25,9.25,0,0,0-1.89,2.92c-.32,1.25-.49,1.74-1,1.6a62.66,62.66,0,0,1-6.9-3.21c-1.42-.89,3.36-.73,5.32-.51s3.25-1.81,3.25-1.81Z"/><path class="cls-63" d="M139.94,241.19a4.18,4.18,0,0,1,.27-.68,1.56,1.56,0,0,0-1.3-.17c-1.07.46-3.39-.85-4.18-1.43-1.88,0-3.66.08-2.72.67a62.66,62.66,0,0,0,6.9,3.21C139.45,242.93,139.62,242.44,139.94,241.19Z"/><path class="cls-65" d="M181.45,218.4s-.13,7.91-13.91,7.28c-8.5-.18-12.75-1.81-12.75-1.81s-7.83,10.9-13.49,15.22l-1.76-1s9.72-18.4,12.4-19.95c2.06-1.11,20.49-1.6,20.49-1.6Z"/><path class="cls-66" d="M149,221.78a38.91,38.91,0,0,1,.84,8.52c2.84-3.45,5-6.43,5-6.43a19.63,19.63,0,0,0,2.11.61c.22-1.62.67-4.83.82-5.28a7.37,7.37,0,0,0,.24-1.94,24.88,24.88,0,0,0-6,.89A14.27,14.27,0,0,0,149,221.78Z"/><path class="cls-64" d="M150.6,239.68a9.16,9.16,0,0,0-.33,3.47c.29,1.25.36,1.77-.17,1.9a64.12,64.12,0,0,1-7.61.33c-1.67-.13,2.64-2.19,4.48-2.91s2.05-3.1,2.05-3.1Z"/><path class="cls-65" d="M182.88,218.7s2.15,5.17-1.56,7.81-23.36-2.4-23.36-2.4-.15,8.48-7.48,16.79l-2.06-.64s4.25-18.3,6.89-22.11c4.59-1.66,17.12-1.6,17.12-1.6Z"/><path class="cls-63" d="M150.27,243.15a4.08,4.08,0,0,1-.08-.73,1.54,1.54,0,0,0-1.22.45c-.75.91-3.41.82-4.37.66-1.69.83-3.22,1.76-2.11,1.85a64.12,64.12,0,0,0,7.61-.33C150.63,244.92,150.56,244.4,150.27,243.15Z"/><path class="cls-66" d="M181.32,226.51c3.71-2.64,1.56-7.81,1.56-7.81l-10.45-2.15s-1.12,0-2.79,0c.09.46,5.6,4,6.06,6.13s-16.16.22-17.74,1.4C158,224.11,177.6,229.15,181.32,226.51Z"/><path class="cls-67" d="M157.3,208.39a2.65,2.65,0,0,1-1.24.06c-.46-.16-1.28-.73-2-.55s-1.62,1.65-2,2.11,1.08,0,1.79-.48,1.21.68,2,.57,1.86-.36,1.86-.36Z"/><path class="cls-55" d="M175.92,191.47a3.74,3.74,0,0,0-4.55,3c-.17,1-.35,2-.55,2.92-.24,1.12-.51,2.23-.82,3.25-.15.51-.32,1-.48,1.4l-.12.29c-.24.59-.57.75-1.13,1.05s-1,.52-1.54.77c-1,.5-2.14,1-3.24,1.44-2.2.93-4.46,1.8-6.71,2.63l.48,2c2.43-.33,4.84-.71,7.26-1.15,1.21-.23,2.43-.47,3.65-.75.62-.14,1.23-.3,1.86-.48.32-.1.63-.18,1-.29l.5-.17.25-.09.45-.26a5.09,5.09,0,0,0,.84-.62l.51-.53.25-.28.18-.24.36-.48a21.35,21.35,0,0,0,1.14-1.82c.67-1.19,1.23-2.35,1.75-3.52.46-1,.88-2,1.29-3A3.74,3.74,0,0,0,175.92,191.47Z"/><path class="cls-68" d="M173.54,205.72l.25-.32.18-.27.36-.55c.44-.73.81-1.42,1.14-2.1.67-1.36,1.23-2.69,1.75-4,.46-1.15.88-2.29,1.29-3.44a5.56,5.56,0,0,0,.19-.7,3.74,3.74,0,0,0-7.33.14c-.17,1-.35,2-.55,2.92-.24,1.12-.51,2.23-.82,3.25-.15.51-.32,1-.48,1.4l-.12.29c-.24.59-.57.75-1.13,1.05h0a25.64,25.64,0,0,1,.77,4.72c.34-.09.67-.16,1-.26s.63-.18,1-.29l.5-.17.25-.09.45-.26a3.15,3.15,0,0,0,.33-.22,4.11,4.11,0,0,0,.51-.46Z"/><path class="cls-67" d="M161.91,213.29a2.65,2.65,0,0,1-1.24.06c-.46-.16-1.29-.73-2-.55s-1.63,1.65-2,2.11,1.07,0,1.78-.48,1.22.69,2,.57,1.86-.35,1.86-.35Z"/><path class="cls-57" d="M191.32,235.81v-8h1.34v-1.22H164.21a4.19,4.19,0,0,0-4.19,4.18v2.12a4.19,4.19,0,0,0,4.19,4.18h28.45v-1.22Z"/><path class="cls-55" d="M182.25,207.56a54,54,0,0,0,.19-10.4c-.32-2.64-1.84-5.47-4.62-6.12a4.84,4.84,0,0,0-3.8.68,20,20,0,0,0-1.74,1.19c-2.09,1.55-4.87,4.76-4.2,7.81a8.07,8.07,0,0,0,1.88,3.72,7.55,7.55,0,0,1,1.57,4.66c0,.51-.89,6-1.62,7a.28.28,0,0,0,.07.39c2.48,1.81,8.21,5.86,14.06,3.59C184.27,218.05,181.86,213,182.25,207.56Z"/><path class="cls-69" d="M164.79,227.77a3.29,3.29,0,0,0-3.3,3.29v1.46a3.29,3.29,0,0,0,3.3,3.29H192v-8Z"/><path class="cls-65" d="M166.45,245v-6.75h-1.33V237h28.44a4.2,4.2,0,0,1,4.19,4.19v.83a4.19,4.19,0,0,1-4.19,4.18H165.12V245Z"/><path class="cls-70" d="M193,238.26a3.29,3.29,0,0,1,3.3,3.29v.16A3.3,3.3,0,0,1,193,245H165.75v-6.75Z"/><path class="cls-67" d="M172.35,179.54c-2,.07-4.21,1-4.27,2.82-.07,2.47.74,3.17.73,4a14.42,14.42,0,0,1-.35,1.84c0,.24,1.21-.11,1.36.13s1.4,1.9,2.48,1.8c1.42-.12,2.8-1.55,3.5-2.6,1.32-2,1.75-6.09-.74-7.46A5.57,5.57,0,0,0,172.35,179.54Z"/><path class="cls-67" d="M177,191.36a7.42,7.42,0,0,1-1.8-5s-2.29.08-1.8,1.34.08,4.22.08,4.22-3,2.43-1.25,2.9c1.5.41,3.84-1.45,4.81-2.67A.65.65,0,0,0,177,191.36Z"/><path class="cls-71" d="M167.12,183.61s.11.69,3.74.53c1.22-.22,1.08,1.59,1.45,2.85.28,1,.72-.53,1.59-1.76s1.72,1.11.62,1.81.85,3.66-2.44,5c1.42.65,4.61-.29,6.94-2.07s-.71-9.1-2.42-10.81S166.45,176.68,167.12,183.61Z"/><rect class="cls-72" x="150.13" y="216.22" width="16.62" height="1.65"/><polygon class="cls-73" points="140.99 206.99 151.54 206.99 157.46 217.87 146.91 217.87 140.99 206.99"/><path class="cls-74" d="M149.61,212.49c.28.73.11,1.33-.39,1.33s-1.13-.6-1.42-1.33-.12-1.33.38-1.33S149.32,211.75,149.61,212.49Z"/><path class="cls-75" d="M146.91,217.87h10.55L156,215.21a16.72,16.72,0,0,1-12.29-3.2Z"/><polygon class="cls-76" points="171.97 231.69 174.37 231.69 173.24 232.7 171.97 231.69"/><polygon class="cls-77" points="181.43 239.88 183.83 239.88 182.71 240.9 181.43 239.88"/><polygon class="cls-76" points="184.01 232.7 187.78 232.7 186.01 234.29 184.01 232.7"/><polygon class="cls-77" points="169.73 240.84 173.49 240.84 171.72 242.43 169.73 240.84"/><polygon class="cls-76" points="164.74 229.17 167.85 229.17 166.39 230.49 164.74 229.17"/><polygon class="cls-77" points="189.27 242.86 192.38 242.86 190.92 244.17 189.27 242.86"/><path class="cls-68" d="M174,196.55s.37,5.61.88,8.34c.39,2.14-1.42,3.73-3.36,4.67-.09.7-.31,2-.59,3.35,3.1-.62,8.95-1.85,9-2.3,0-.61.95-6.65.52-8S174.61,196.48,174,196.55Z"/><path class="cls-68" d="M182.25,207.56c0-.12,0-.24,0-.36a4.78,4.78,0,0,0-1.77-.17c-.25.22-6.11,6.85-8,7.73,0,0,7.07-1.36,8-.82s2.36,4.05,1.93,6.56a8.81,8.81,0,0,0,1.61-.45C184.27,218.05,181.86,213,182.25,207.56Z"/><path class="cls-55" d="M181.91,201.54c-.21-1.7-.46-3.35-.75-5a3.65,3.65,0,1,0-7,1.86c.5,1.47,1,2.95,1.39,4.41a39.91,39.91,0,0,1,.94,3.94c.07.32.1.61.14.9s0,.55.07.78v.18s0,0,0,.07v.08a6.12,6.12,0,0,1-.95.56c-.56.26-1.18.5-1.81.73-1.29.44-2.65.81-4,1.14-2.77.66-5.64,1.19-8.48,1.6l.14,2.44c3,0,5.93,0,8.93-.27,1.5-.12,3-.29,4.56-.56.77-.15,1.56-.31,2.38-.55a9.74,9.74,0,0,0,2.68-1.21,4.53,4.53,0,0,0,1.59-1.89,3.55,3.55,0,0,0,.19-.52l.12-.46.11-.46,0-.36a10.86,10.86,0,0,0,.13-1.41c0-.44,0-.88,0-1.28A43.85,43.85,0,0,0,181.91,201.54Z"/><path class="cls-78" d="M175.7,183.24c-.35-1.4-1.38-1.4-3.56-.21-1.64.9-4,.09-5-.39a6.41,6.41,0,0,0,0,1s.11.69,3.74.53c1.22-.22,1.08,1.59,1.45,2.85.28,1,.72-.53,1.59-1.76s1.72,1.11.62,1.81.85,3.66-2.44,5c1.42.65,4.61-.29,6.94-2.07,1-.79,1-2.67.51-4.67C177.89,187,176,184.59,175.7,183.24Z"/><path class="cls-79" d="M161.49,231.06v1.46a3.28,3.28,0,0,0,1.4,2.68c-1.16-3.42.2-4.9,1.85-4.9H192v-2.53H164.79A3.29,3.29,0,0,0,161.49,231.06Z"/><path class="cls-80" d="M193,238.26H165.75v1.62h26.63a4,4,0,0,1,3.45,3.47,3.25,3.25,0,0,0,.45-1.64v-.16A3.29,3.29,0,0,0,193,238.26Z"/><path class="cls-67" d="M196.06,72.73v-.31a1.38,1.38,0,0,0-2.41-.92l-5.5,6.16a2.26,2.26,0,0,1-.63.4,3.12,3.12,0,0,1-.48.15l-.58.17-6,1.91a3.45,3.45,0,0,1-1.69.12,4.63,4.63,0,0,1-.89-.25c-.77-.33-1.1-.66-1.64-.51s-2.7,1.13-2.88,2.07,2.11-.53,2.66-.48.8.9,1.53.8,7.07-.8,7.07-.8L187,81l.6-.06c.2,0,.37,0,.69-.1a5.28,5.28,0,0,0,1.56-.59,6.58,6.58,0,0,0,.7-.47l.49-.38.95-.74,1.91-1.48h0A6.35,6.35,0,0,0,196.06,72.73Z"/><path class="cls-81" d="M194.63,71.76c-.22-.17-.46-.33-.7-.49a1,1,0,0,0-.28.23l-3.6,4a10.67,10.67,0,0,1,0,3.32c-.34.59-2.3,1.44-3.72,2.2L187,81l.6-.06c.2,0,.37,0,.69-.1a5.28,5.28,0,0,0,1.56-.59,6.58,6.58,0,0,0,.7-.47l.49-.38.95-.74,1.91-1.48a6.05,6.05,0,0,0,1.67-2.31C195.39,73.55,195.11,72.11,194.63,71.76Z"/><path class="cls-82" d="M185.49,62.1s4.34-3,8-.34c3.25,2.31,5.4-1.09,7.7-.44s1.82,4.13,4.17,5.42a8.27,8.27,0,0,0,4.72,1.2c1.65-.13,3.21-.57,4.35,1a8.07,8.07,0,0,1,1.36,4.69c0,2.15-1.49,3.52-3.41,4.22-2.42.88-5.06,1.14-7-.8-2.12-2.1-1.62-3.21-4.55-4s-7.6,3.24-11-.65c-2.13-1.88-.75-6.42-1.79-7.61S184.7,63.64,185.49,62.1Z"/><path class="cls-83" d="M214.46,68.9c-1.14-1.53-2.7-1.09-4.35-1a5.8,5.8,0,0,1-1.32,0,2.8,2.8,0,0,1-1,2.77c-2.15,1.58-5.57-2.86-6.78-4.14s-3.33-1.34-5.66,1.2c-1.71,1.89-4.74,3.16-6.2,3.7a2.93,2.93,0,0,0,.7.94c3.41,3.89,8.08-.12,11,.65s2.43,1.88,4.55,4c2,1.94,4.6,1.68,7,.8,1.92-.7,3.4-2.07,3.41-4.22A8.07,8.07,0,0,0,214.46,68.9Z"/><path class="cls-67" d="M242.54,81.21a5.23,5.23,0,0,0,2-1c.5-.59,1-1.06,1.36-.59a26.69,26.69,0,0,0,3,3.7c.58.31,1.32,1.27,1,1.65s-2.22-.44-3.35-1.41-3.74-.94-3.74-.94Z"/><path class="cls-67" d="M234.86,67.43a5.28,5.28,0,0,0,.69-2.11c-.07-.77-.05-1.46.53-1.38a28,28,0,0,0,4.77.39c.63-.2,1.84-.07,1.86.45s-1.86,1.29-3.35,1.42-3.27,2-3.27,2Z"/><path class="cls-84" d="M208.25,79.66s4.09-4.61,19.7-.88c.2-4.1,6.87-11.88,6.87-11.88l2.16.72s-6.19,13.92-7.54,16.17c-2.06.38-12.77,1.9-20.82.76C207.37,83,208.25,79.66,208.25,79.66Z"/><path class="cls-57" d="M243,80.79l-2.84.11h0a46.14,46.14,0,0,0-6.5-.47,41.06,41.06,0,0,0-5.11.92s-8.39-4.06-12.52-4.81a11.47,11.47,0,0,0-7.21,1c-.81,2.16-1.09,5.2-.19,7,3,1.12,16.69.37,19.65.37s15.17-1.69,15.17-1.69Z"/><path class="cls-85" d="M237.43,84s-12,.24-15,0-11.31-1-11.41-2.67a18.12,18.12,0,0,0-1.14-4.27,7.43,7.43,0,0,0-1.1.48c-.81,2.16-1.09,5.2-.19,7,3,1.12,16.69.37,19.65.37C229.82,84.92,233.89,84.46,237.43,84Z"/><path class="cls-61" d="M194.42,68.53s-2.26,1.3-2.43,3-2.17,7.2,0,7.9,3.47-1,5.21.87,5.21,3.55,11.89,4.6c.7-2.26.95-4.17,0-7.9-1.39-.61-3.21-.44-6.51-3.48S196.85,67,194.42,68.53Z"/><path class="cls-67" d="M186.56,62.92c-1.38.78-2.53,2.2-1.84,3.58.91,1.82,1.73,2,2.05,2.63a10.91,10.91,0,0,1,.47,1.46c.12.16.8-.52,1-.4s1.7.88,2.41.42c.93-.59,1.33-2.13,1.4-3.14.13-1.92-1.16-5-3.41-5.15A4,4,0,0,0,186.56,62.92Z"/><path class="cls-67" d="M194.35,69.29A6.54,6.54,0,0,1,191,67s-1.33.94-.55,1.49A8.71,8.71,0,0,1,192.18,71s-.93,3.65.27,3.25,2.13-3.35,2.23-4.46A.44.44,0,0,0,194.35,69.29Z"/><path class="cls-82" d="M183.73,67.09s1.42,1.06,3.45-.55c.5-.56,1.48.57,1.85,1.7s.31-1,.37-1.85,2,.71,1.08,2.09c.46.43,1.15.79,2.13-.24s.3-3.19-.56-4.73-2.46-3.27-5.11-2.16S182.12,64.56,183.73,67.09Z"/><rect class="cls-58" x="170.22" y="83.38" width="13.13" height="1.27"/><polygon class="cls-58" points="165.65 71.67 167.15 71.67 171.67 84.65 170.17 84.65 165.65 71.67"/><path class="cls-86" d="M209.09,84.94c.16-.53.3-1,.41-1.57-2.41-.24-8.79-2.21-9.15-5.21C200.18,73,197.68,71,197.68,71l-1,7.49s.51,1.14,1.09,2.37C199.7,82.51,203.1,84,209.09,84.94Z"/><path class="cls-67" d="M198.16,71.79a5.31,5.31,0,0,0-.48-.75,1.73,1.73,0,0,0-2.77,0c-.68,1.25-.57,3-.51,4.4.09,1.86.7,3.7.68,5.55-.54.07-2.62.43-3.13.47-1.07.08-2.14.2-3.2.33s-2.35.44-3.5.47a5.85,5.85,0,0,1-2-.27c-.71-.3-1-.61-1.53-.47s-2.51,1-2.68,1.93,2-.5,2.48-.45.75.84,1.43.75,1.91-.39,2.32-.39a56.92,56.92,0,0,0,11.32.57,1.69,1.69,0,0,0,1.59-1.32C198.87,79.59,199.79,74.82,198.16,71.79Z"/><path class="cls-81" d="M197,82.5c-1.25,1.11-6.61,1.43-6.69,1.43,2.55.13,4.93.09,6.33,0a1.69,1.69,0,0,0,1.59-1.32c.67-3,1.59-7.82,0-10.85a5.31,5.31,0,0,0-.48-.75S199.56,79.31,197,82.5Z"/><path class="cls-61" d="M118.38,60.51c-1.92-3.46-10.1-3.15-10.1-3.15s-8.19-.31-10.1,3.15c-1.37,2.47,1.29,11,2,16.31a61,61,0,0,0,8.12.86,61,61,0,0,0,8.12-.86C117.08,71.53,119.75,63,118.38,60.51Z"/><path class="cls-86" d="M100.46,64.3c-.78.3-1.47,1.68-2,3.39.58,3.09,1.41,6.51,1.75,9.13a61,61,0,0,0,8.12.86,61,61,0,0,0,8.12-.86c.2-1.53.56-3.34.94-5.19-.82-.62-2.77-1.4-7.36-2.31C101.65,67.67,100.46,64.3,100.46,64.3Z"/><path class="cls-61" d="M117.48,59.46s3.24,2.78,4.67,10.11c1.24,6.35-3.79,6.94-5.75,7.62-1.36.25-.26-3.17-.26-3.17l2.62-1.75s-2.08-5.82-2.7-8S117.48,59.46,117.48,59.46Z"/><path class="cls-86" d="M119.45,72c-.62-.08-1.52-2.09-1.53-2.1.47,1.34.84,2.37.84,2.37L116.14,74a13.13,13.13,0,0,0-.33,1.34,7.17,7.17,0,0,0,4-2.53C120.06,72.74,120.06,72.09,119.45,72Z"/><path class="cls-61" d="M99.06,59.46s-3.24,2.78-4.67,10.11c-1.24,6.35,3.79,6.94,5.76,7.62,1.35.25.25-3.17.25-3.17l-2.62-1.75s2.09-5.82,2.7-8S99.06,59.46,99.06,59.46Z"/><path class="cls-86" d="M97.1,72c.61-.08,1.52-2.09,1.52-2.1-.47,1.34-.84,2.37-.84,2.37L100.4,74a10.64,10.64,0,0,1,.33,1.34,7.17,7.17,0,0,1-4-2.53C96.48,72.74,96.48,72.09,97.1,72Z"/><path class="cls-87" d="M121.38,99.78a3.41,3.41,0,0,0,2.28,2.65c2.09.76,3.19.52,3.38,1.35s0,.89,0,.89a64.38,64.38,0,0,1-6.89,0c-1.42-.24-.53-4.64-.53-4.64Z"/><path class="cls-87" d="M95.39,99.78a3.41,3.41,0,0,1-2.28,2.65c-2.09.76-3.19.52-3.38,1.35s0,.89,0,.89a64.38,64.38,0,0,0,6.89,0c1.42-.24.53-4.64.53-4.64Z"/><path class="cls-88" d="M122.56,82.54A5.14,5.14,0,0,0,119.24,78a32.41,32.41,0,0,0-3.86-1.16l-7.1-.74-7.1.74A32.86,32.86,0,0,0,97.31,78,5.15,5.15,0,0,0,94,82.54c-.24,5,.3,14.26.48,17.93a5.07,5.07,0,0,0,3.08.53,63.72,63.72,0,0,0,1.89-13.11c.54-3.91,2.92-5.42,8.84-5.42s8.29,1.51,8.84,5.42A63.29,63.29,0,0,0,119,101a5.1,5.1,0,0,0,3.09-.53C122.26,96.8,122.81,87.58,122.56,82.54Z"/><path class="cls-67" d="M110,57.22c-.59-.37-.73-2.16-.73-2.16s-1.49-.31-1.88,0a3.52,3.52,0,0,1-.69,2.16c-1.29,1.47.71,2.24,1.65,2.24a2.45,2.45,0,0,0,2.23-1.16C110.84,57.64,110,57.22,110,57.22Z"/><path class="cls-81" d="M107.43,55.06a2.91,2.91,0,0,1-.15,1.09,7.76,7.76,0,0,0,2.55.86,5.26,5.26,0,0,1-.52-1.95S107.82,54.75,107.43,55.06Z"/><path class="cls-67" d="M112.11,47.56c-1.48-2.63-6.09-2.65-7.58,0a5.65,5.65,0,0,0-.08,4,6.56,6.56,0,0,0,3,4.07,2.31,2.31,0,0,0,1.54.09c1.6-.54,2.48-2.17,3-3.74a6,6,0,0,0,.12-4.34Z"/><path class="cls-67" d="M111.94,51.45s.85-1,1.38-.41-.61,2.28-1.2,2.32S111.42,52.47,111.94,51.45Z"/><path class="cls-67" d="M104.7,51.45s-.85-1-1.37-.41.6,2.28,1.2,2.32S105.23,52.47,104.7,51.45Z"/><path class="cls-87" d="M105.38,48.74s5.31,2.51,7.71,1.4c1.53-.79,2.18-4,1.58-4.56s-1.07-.44-1.81-.35-1.34-.79-1.76-1.29-.32-.14-1.16.27-2,.06-2.92.21a4.25,4.25,0,0,0-3.35,3.37,5.55,5.55,0,0,0-.11,2.53c.06.3,1.33,2.91,1.47,2.73C105.77,52.13,105.77,50.92,105.38,48.74Z"/><path class="cls-87" d="M111.3,49.44s-.61,2.88.3,3.62a7,7,0,0,0,1.15-3.37C112.75,48.64,111.3,49.44,111.3,49.44Z"/><path class="cls-89" d="M109.3,52.68c-.17-.34-.56-1-.8-1.4a.15.15,0,0,0-.28,0c-.18.58-.48,1.7-.22,1.75S109.53,53.18,109.3,52.68Z"/><path class="cls-90" d="M113.09,50.14c1.06-.55,1.7-2.25,1.79-3.43-.46,1-1.5,2.59-3.28,2.43-2.51-.22-3.86-1.27-5-1.6s-2,.34-2.12,1.61c-.06.73-.54.77-1,.64,0,.18,0,.36.07.53s1.33,2.91,1.47,2.73c.74-.92.74-2.13.35-4.31C105.38,48.74,110.69,51.25,113.09,50.14Z"/><path class="cls-91" d="M119.13,98.89c-.67-.9-.67-8.56-.88-10.85s-.49-2.62.51-3.32-1-.58-1.83-.71-2.11-1.59-3.26-2.1-3.13-.51-2.67-1,1.78-.7,1.07-.89-1.53-.7-.76-1,5.62-1.29,5.62-1.29.7-.09.8-.22c-1.33-.41-2.35-.64-2.35-.64l-7.1-.74-7.1.74s-1,.23-2.35.64c.1.13.67.11.8.22s4.85,1,5.62,1.29-.07.83-.77,1,.61.38,1.07.89-1.52.52-2.67,1-2.42,2-3.25,2.1-2.84,0-1.84.71.72,1,.51,3.32-.21,9.95-.88,10.85c-.44.59-1.79.62-3,.69,0,.32,0,.62,0,.89a5.07,5.07,0,0,0,3.08.53,63.72,63.72,0,0,0,1.89-13.11c.54-3.91,2.92-5.42,8.84-5.42s8.29,1.51,8.84,5.42A63.29,63.29,0,0,0,119,101a5.1,5.1,0,0,0,3.09-.53c0-.27,0-.57,0-.89C120.93,99.51,119.57,99.48,119.13,98.89Z"/><polygon class="cls-92" points="116.6 77.68 99.95 77.68 98.3 67.99 118.25 67.99 116.6 77.68"/><path class="cls-93" d="M109.92,73.39a1.73,1.73,0,0,1-1.64.84,1.76,1.76,0,0,1-1.65-.84c-.26-.67.44-1.39,1.65-1.39S110.18,72.72,109.92,73.39Z"/><path class="cls-94" d="M100,77.68H116.6l.17-1c-8.65.1-15.16-4.57-18.23-7.29Z"/><g class="cls-4"><path class="cls-5" d="M59.43,159.82H125.8a5.09,5.09,0,0,1,5.09,5.09V207a5.1,5.1,0,0,1-5.1,5.1H59.43A5.09,5.09,0,0,1,54.34,207V164.92A5.1,5.1,0,0,1,59.43,159.82Z"/><path class="cls-6" d="M59.52,159.74h66.37a5.09,5.09,0,0,1,5.09,5.09v42.09a5.1,5.1,0,0,1-5.1,5.1H59.52a5.1,5.1,0,0,1-5.1-5.1V164.83A5.1,5.1,0,0,1,59.52,159.74Z"/><path class="cls-7" d="M59.6,159.65H126a5.09,5.09,0,0,1,5.09,5.09v42.09a5.1,5.1,0,0,1-5.1,5.1H59.6a5.1,5.1,0,0,1-5.1-5.1V164.75a5.1,5.1,0,0,1,5.1-5.1Z"/><path class="cls-8" d="M59.69,159.56h66.37a5.09,5.09,0,0,1,5.09,5.09v42.09a5.1,5.1,0,0,1-5.1,5.1H59.69a5.1,5.1,0,0,1-5.1-5.1V164.66A5.1,5.1,0,0,1,59.69,159.56Z"/><path class="cls-9" d="M59.78,159.48h66.37a5.09,5.09,0,0,1,5.09,5.09v42.09a5.1,5.1,0,0,1-5.1,5.1H59.78a5.09,5.09,0,0,1-5.09-5.09V164.57A5.1,5.1,0,0,1,59.78,159.48Z"/><path class="cls-10" d="M59.86,159.39h66.37a5.09,5.09,0,0,1,5.09,5.09v42.09a5.1,5.1,0,0,1-5.1,5.1H59.86a5.1,5.1,0,0,1-5.1-5.1V164.49A5.1,5.1,0,0,1,59.86,159.39Z"/><path class="cls-11" d="M59.95,159.3h66.37a5.09,5.09,0,0,1,5.09,5.09v42.09a5.1,5.1,0,0,1-5.1,5.1H59.95a5.1,5.1,0,0,1-5.1-5.1V164.4a5.1,5.1,0,0,1,5.1-5.1Z"/><path class="cls-12" d="M60,159.22H126.4a5.09,5.09,0,0,1,5.09,5.09V206.4a5.1,5.1,0,0,1-5.1,5.1H60a5.09,5.09,0,0,1-5.09-5.09V164.31A5.1,5.1,0,0,1,60,159.22Z"/><path class="cls-13" d="M60.12,159.13h66.37a5.09,5.09,0,0,1,5.09,5.09v42.09a5.1,5.1,0,0,1-5.1,5.1H60.12A5.09,5.09,0,0,1,55,206.31V164.23A5.1,5.1,0,0,1,60.12,159.13Z"/><path class="cls-14" d="M60.21,159h66.37a5.09,5.09,0,0,1,5.09,5.09v42.09a5.1,5.1,0,0,1-5.1,5.1H60.21a5.09,5.09,0,0,1-5.09-5.09V164.14A5.1,5.1,0,0,1,60.21,159Z"/><path class="cls-15" d="M60.3,159h66.37a5.09,5.09,0,0,1,5.09,5.09v42.09a5.1,5.1,0,0,1-5.1,5.1H60.3a5.09,5.09,0,0,1-5.09-5.09V164.05A5.1,5.1,0,0,1,60.3,159Z"/><path class="cls-16" d="M60.38,158.87h66.37a5.09,5.09,0,0,1,5.09,5.09v42.09a5.1,5.1,0,0,1-5.1,5.1H60.38a5.1,5.1,0,0,1-5.1-5.1V164A5.1,5.1,0,0,1,60.38,158.87Z"/><path class="cls-17" d="M60.47,158.79h66.37a5.09,5.09,0,0,1,5.09,5.09V206a5.1,5.1,0,0,1-5.1,5.1H60.47A5.09,5.09,0,0,1,55.37,206V163.88a5.1,5.1,0,0,1,5.1-5.1Z"/><path class="cls-18" d="M60.55,158.7h66.37a5.1,5.1,0,0,1,5.1,5.1v42.09a5.1,5.1,0,0,1-5.1,5.1H60.55a5.09,5.09,0,0,1-5.09-5.09V163.79A5.1,5.1,0,0,1,60.55,158.7Z"/><path class="cls-19" d="M60.64,158.61H127a5.09,5.09,0,0,1,5.09,5.09v42.09a5.1,5.1,0,0,1-5.1,5.1H60.64a5.1,5.1,0,0,1-5.1-5.1V163.71A5.1,5.1,0,0,1,60.64,158.61Z"/><path class="cls-20" d="M60.73,158.53H127.1a5.09,5.09,0,0,1,5.09,5.09v42.09a5.1,5.1,0,0,1-5.1,5.1H60.73a5.1,5.1,0,0,1-5.1-5.1V163.62A5.1,5.1,0,0,1,60.73,158.53Z"/><path class="cls-21" d="M60.81,158.44h66.37a5.1,5.1,0,0,1,5.1,5.1v42.09a5.1,5.1,0,0,1-5.1,5.1H60.81a5.09,5.09,0,0,1-5.09-5.09V163.54A5.1,5.1,0,0,1,60.81,158.44Z"/><path class="cls-22" d="M60.9,158.35h66.37a5.09,5.09,0,0,1,5.09,5.09v42.09a5.1,5.1,0,0,1-5.1,5.1H60.9a5.1,5.1,0,0,1-5.1-5.1V163.45A5.1,5.1,0,0,1,60.9,158.35Z"/><path class="cls-23" d="M61,158.27h66.37a5.1,5.1,0,0,1,5.1,5.1v42.09a5.09,5.09,0,0,1-5.09,5.09H61a5.09,5.09,0,0,1-5.09-5.09V163.36A5.1,5.1,0,0,1,61,158.27Z"/><path class="cls-24" d="M61.07,158.18h66.37a5.09,5.09,0,0,1,5.09,5.09v42.09a5.1,5.1,0,0,1-5.1,5.1H61.07A5.09,5.09,0,0,1,56,205.36V163.28A5.09,5.09,0,0,1,61.07,158.18Z"/><path class="cls-25" d="M61.16,158.09h66.37a5.09,5.09,0,0,1,5.09,5.09v42.09a5.1,5.1,0,0,1-5.1,5.1H61.16a5.09,5.09,0,0,1-5.09-5.09V163.19A5.1,5.1,0,0,1,61.16,158.09Z"/><path class="cls-26" d="M61.25,158h66.37a5.1,5.1,0,0,1,5.1,5.1v42.09a5.1,5.1,0,0,1-5.1,5.1H61.25a5.09,5.09,0,0,1-5.09-5.09V163.1A5.1,5.1,0,0,1,61.25,158Z"/><path class="cls-27" d="M61.33,157.92H127.7A5.09,5.09,0,0,1,132.8,163V205.1a5.1,5.1,0,0,1-5.1,5.1H61.33a5.09,5.09,0,0,1-5.09-5.09V163A5.1,5.1,0,0,1,61.33,157.92Z"/><path class="cls-28" d="M61.42,157.84h66.37a5.09,5.09,0,0,1,5.09,5.09V205a5.09,5.09,0,0,1-5.09,5.09H61.42a5.1,5.1,0,0,1-5.1-5.1V162.93A5.1,5.1,0,0,1,61.42,157.84Z"/><path class="cls-29" d="M61.51,157.75h66.37a5.09,5.09,0,0,1,5.09,5.09v42.08a5.1,5.1,0,0,1-5.1,5.1H61.51a5.09,5.09,0,0,1-5.09-5.09V162.84A5.1,5.1,0,0,1,61.51,157.75Z"/><path class="cls-30" d="M61.59,157.66H128a5.09,5.09,0,0,1,5.09,5.09v42.09a5.1,5.1,0,0,1-5.1,5.1H61.59a5.09,5.09,0,0,1-5.09-5.09V162.76A5.1,5.1,0,0,1,61.59,157.66Z"/><path class="cls-31" d="M61.68,157.58H128a5.09,5.09,0,0,1,5.09,5.09v42.09a5.1,5.1,0,0,1-5.1,5.1H61.68a5.09,5.09,0,0,1-5.09-5.09V162.67A5.09,5.09,0,0,1,61.68,157.58Z"/><path class="cls-32" d="M61.77,157.49h66.37a5.1,5.1,0,0,1,5.1,5.1v42.08a5.1,5.1,0,0,1-5.1,5.1H61.77a5.09,5.09,0,0,1-5.09-5.09V162.58A5.1,5.1,0,0,1,61.77,157.49Z"/><path class="cls-33" d="M61.85,157.4h66.37a5.09,5.09,0,0,1,5.09,5.09v42.09a5.1,5.1,0,0,1-5.1,5.1H61.85a5.1,5.1,0,0,1-5.1-5.1V162.5A5.1,5.1,0,0,1,61.85,157.4Z"/><path class="cls-34" d="M61.94,157.32h66.37a5.09,5.09,0,0,1,5.09,5.09V204.5a5.1,5.1,0,0,1-5.1,5.1H61.94a5.09,5.09,0,0,1-5.09-5.09V162.41A5.09,5.09,0,0,1,61.94,157.32Z"/><path class="cls-35" d="M62,157.23h66.37a5.1,5.1,0,0,1,5.1,5.1v42.08a5.1,5.1,0,0,1-5.1,5.1H62a5.09,5.09,0,0,1-5.09-5.09V162.32A5.1,5.1,0,0,1,62,157.23Z"/><path class="cls-36" d="M62.11,157.14h66.37a5.09,5.09,0,0,1,5.09,5.09v42.09a5.1,5.1,0,0,1-5.1,5.1H62.11a5.1,5.1,0,0,1-5.1-5.1V162.24A5.09,5.09,0,0,1,62.11,157.14Z"/><path class="cls-37" d="M62.2,157.06h66.37a5.1,5.1,0,0,1,5.1,5.1v42.08a5.1,5.1,0,0,1-5.1,5.1H62.2a5.09,5.09,0,0,1-5.09-5.09V162.15A5.1,5.1,0,0,1,62.2,157.06Z"/><path class="cls-38" d="M62.28,157h66.37a5.1,5.1,0,0,1,5.1,5.1v42.08a5.1,5.1,0,0,1-5.1,5.1H62.28a5.09,5.09,0,0,1-5.09-5.09V162.07A5.09,5.09,0,0,1,62.28,157Z"/><path class="cls-39" d="M62.37,156.88h66.37a5.09,5.09,0,0,1,5.09,5.09v42.08a5.1,5.1,0,0,1-5.1,5.1H62.37a5.09,5.09,0,0,1-5.09-5.09V162A5.09,5.09,0,0,1,62.37,156.88Z"/><path class="cls-40" d="M62.46,156.8h66.37a5.09,5.09,0,0,1,5.09,5.09V204a5.1,5.1,0,0,1-5.1,5.1H62.46A5.09,5.09,0,0,1,57.36,204V161.89A5.09,5.09,0,0,1,62.46,156.8Z"/><path class="cls-41" d="M62.54,156.71h66.37a5.09,5.09,0,0,1,5.09,5.09v42.08a5.1,5.1,0,0,1-5.1,5.1H62.54a5.1,5.1,0,0,1-5.1-5.1V161.81A5.09,5.09,0,0,1,62.54,156.71Z"/><path class="cls-42" d="M62.63,156.62H129a5.1,5.1,0,0,1,5.1,5.1V203.8A5.09,5.09,0,0,1,129,208.9H62.63a5.09,5.09,0,0,1-5.09-5.09V161.72A5.09,5.09,0,0,1,62.63,156.62Z"/><path class="cls-43" d="M62.72,156.54h66.37a5.1,5.1,0,0,1,5.1,5.1v42.08a5.1,5.1,0,0,1-5.1,5.1H62.72a5.09,5.09,0,0,1-5.09-5.09V161.63A5.1,5.1,0,0,1,62.72,156.54Z"/><path class="cls-44" d="M62.8,156.45h66.37a5.09,5.09,0,0,1,5.09,5.09v42.09a5.09,5.09,0,0,1-5.09,5.09H62.8a5.09,5.09,0,0,1-5.09-5.09V161.55A5.1,5.1,0,0,1,62.8,156.45Z"/><path class="cls-45" d="M62.89,156.37h66.37a5.09,5.09,0,0,1,5.09,5.09v42.08a5.1,5.1,0,0,1-5.1,5.1H62.89a5.1,5.1,0,0,1-5.1-5.1V161.46A5.09,5.09,0,0,1,62.89,156.37Z"/><path class="cls-46" d="M63,156.28h66.37a5.09,5.09,0,0,1,5.09,5.09v42.08a5.1,5.1,0,0,1-5.1,5.1H63a5.1,5.1,0,0,1-5.1-5.1V161.37A5.09,5.09,0,0,1,63,156.28Z"/><path class="cls-47" d="M63.06,156.19h66.37a5.09,5.09,0,0,1,5.09,5.09v42.08a5.1,5.1,0,0,1-5.1,5.1H63.06a5.1,5.1,0,0,1-5.1-5.1V161.29A5.09,5.09,0,0,1,63.06,156.19Z"/><path class="cls-48" d="M63.15,156.11h66.37a5.1,5.1,0,0,1,5.1,5.1v42.08a5.1,5.1,0,0,1-5.1,5.1H63.15a5.09,5.09,0,0,1-5.09-5.09V161.2A5.1,5.1,0,0,1,63.15,156.11Z"/><path class="cls-49" d="M63.24,156H129.6a5.09,5.09,0,0,1,5.09,5.09V203.2a5.1,5.1,0,0,1-5.1,5.1H63.23a5.09,5.09,0,0,1-5.09-5.09V161.11A5.1,5.1,0,0,1,63.24,156Z"/><path class="cls-50" d="M63.32,155.93h66.37a5.09,5.09,0,0,1,5.09,5.09v42.08a5.1,5.1,0,0,1-5.1,5.1H63.32a5.09,5.09,0,0,1-5.09-5.09V161A5.09,5.09,0,0,1,63.32,155.93Z"/><path class="cls-51" d="M63.41,155.85h66.37a5.1,5.1,0,0,1,5.1,5.1V203a5.1,5.1,0,0,1-5.1,5.1H63.41A5.09,5.09,0,0,1,58.31,203V160.94A5.1,5.1,0,0,1,63.41,155.85Z"/><path class="cls-52" d="M63.49,155.76h66.37a5.09,5.09,0,0,1,5.09,5.09v42.08a5.1,5.1,0,0,1-5.1,5.1H63.49a5.09,5.09,0,0,1-5.09-5.09V160.86A5.09,5.09,0,0,1,63.49,155.76Z"/></g><path class="cls-5" d="M63.48,155.76h66.37a5.09,5.09,0,0,1,5.09,5.09v42.08a5.1,5.1,0,0,1-5.1,5.1H63.48a5.09,5.09,0,0,1-5.09-5.09V160.86A5.09,5.09,0,0,1,63.48,155.76Z"/><path class="cls-57" d="M129.85,155.76H63.48a5.09,5.09,0,0,0-5.09,5.1V168h76.55v-7.11A5.09,5.09,0,0,0,129.85,155.76Z"/><circle class="cls-60" cx="72.8" cy="161.86" r="1.77"/><path class="cls-59" d="M67,161.86a1.77,1.77,0,1,1-1.76-1.76A1.76,1.76,0,0,1,67,161.86Z"/><path class="cls-58" d="M78.64,161.86a1.77,1.77,0,1,0,1.76-1.76A1.76,1.76,0,0,0,78.64,161.86Z"/><rect class="cls-56" x="64.07" y="175.35" width="4.53" height="20.96"/><rect class="cls-55" x="71.35" y="180.2" width="4.53" height="16.1"/><rect class="cls-58" x="78.64" y="177.69" width="4.53" height="18.62"/><rect class="cls-63" x="85.92" y="184.15" width="4.53" height="12.43"/><path class="cls-58" d="M108.81,178a5.63,5.63,0,1,1-5.63-5.63A5.63,5.63,0,0,1,108.81,178Z"/><rect class="cls-55" x="113.7" y="177.03" width="14.9" height="1.94"/><rect class="cls-88" x="98.8" y="185.62" width="29.8" height="1.94"/><rect class="cls-88" x="98.8" y="190" width="29.8" height="1.94"/><rect class="cls-88" x="98.8" y="194.37" width="29.8" height="1.94"/><rect class="cls-55" x="69" y="201.08" width="10.4" height="1.94"/><rect class="cls-56" x="64.07" y="200.12" width="3.86" height="3.86"/><rect class="cls-55" x="88.11" y="201.08" width="10.4" height="1.94"/><rect class="cls-58" x="83.17" y="200.12" width="3.86" height="3.86"/><path class="cls-87" d="M257.4,249.55a2.48,2.48,0,0,1-1.9,2.43c-1.95.52-3.34.67-3.57,1.33s0,.67,0,.67,6,0,7.19-.38c.39-.62.24-4,.24-4Z"/><path class="cls-87" d="M269.82,249.53a2,2,0,0,1-1.37,2.46c-1.84.56-3.19.73-3.29,1.4s.15.66.15.66,6-.12,7.11-.52c.25-.63-.63-4-.63-4Z"/><path class="cls-95" d="M255.62,207.25s-1.26,22.36-.85,26.75,2.33,16.05,2.33,16.05h2.61L259,233.31s2.06-11.25,3-13.17c1.72,3.43,2.83,13.94,2.83,13.94l4.65,16h3s-3.3-16.19-3.16-16.6,1.6-17.23-2-25.21C263.55,206.7,255.62,207.25,255.62,207.25Z"/><path class="cls-96" d="M255.38,211.74c1.75.76,6.41,2.69,9.1,2.78s4.54,5.23,5.22,8.68c-.09-4.82-.58-10.33-2.08-14.19-2.82.24-7.68.69-8.6,1-1.31.39-2.78-2.11-3.12-1.88l-.34.19C255.52,209.08,255.46,210.28,255.38,211.74Z"/><path class="cls-67" d="M277.25,211.49a10.87,10.87,0,0,1-1.78,2.46c-.9.8.45.45,1.22-.42.31-.31.41,1,.07,1.43a9.46,9.46,0,0,1-1.32,1,3.54,3.54,0,0,0,1.73-.57c-.31.59-1.56,1.2-1.46,1.4s1.5.21,2.58-.69.55-4.1.48-4.48S277.25,211.49,277.25,211.49Z"/><path class="cls-67" d="M253.16,174.08s2.26-.47,3.33-.66-.6-.42-1.62-.63c.07-.61,1.77-2.33,2.36-2.9s-.66-.11-1.41.56a6.74,6.74,0,0,1-.72.63,10.83,10.83,0,0,0,1-2.73c-.13-.42-2.35.78-2.95,1.36s-1.16,3.22-1.16,3.22Z"/><path class="cls-54" d="M278.79,197.23a12.18,12.18,0,0,0-.39-1.16,8.74,8.74,0,0,0-.68-1.22,18.12,18.12,0,0,0-1.29-1.69c-.86-1-1.73-1.92-2.61-2.81s-1.65-1.62-2.48-2.41l-.06,0c-1.47-2.26-8.83-2-8.83-2s-6.21.61-6.49.57c-1-.14-2.07-.32-3.05-.53,0-.06-2.83-.81-3-.88a1.46,1.46,0,0,1-.66-.35c-.4-.45.13-1.66.29-2.12a29.08,29.08,0,0,1,1.19-2.9,60.18,60.18,0,0,1,3.16-5.71l-2-1.51a60.62,60.62,0,0,0-4.21,5.47,28.65,28.65,0,0,0-1.84,3.07,9.53,9.53,0,0,0-1.22,4.12,4.2,4.2,0,0,0,.35,1.71,4,4,0,0,0,.54.87l.47.52a9.69,9.69,0,0,0,1.83,1.41,25,25,0,0,0,3.44,1.66c.88.35,1.74.65,2.6.94.14,2.86.9,6.45,1.08,9.53.3,5.24.33,9.25.33,9.25s7.72,2.47,13.57.16c.29-3.22,1-10.51,1.81-15.48.66.46,2.72,2.06,3,2.34s.16.2.27.28.17.33.27.49a28.29,28.29,0,0,1,1.59,6.36c.37,2.29.64,4.64.84,7l2.51,0c.2-2.43.32-4.82.34-7.26A32,32,0,0,0,278.79,197.23Zm-29.67-12.32s0-.11,0-.15,0,0,0,.06S249.13,185,249.12,184.91Z"/><path class="cls-67" d="M264.11,185.7a14.93,14.93,0,0,1-.14-2.36l-2,.3a3.54,3.54,0,0,1-1.06,2.64c-.33,1.47,1.3,1.86,2.87.53A1.18,1.18,0,0,0,264.11,185.7Z"/><path class="cls-97" d="M262.48,187.53s-.26-.78.25-1.14,1.24-.69,1.4-1.17a1.53,1.53,0,0,1,.57,1.15c0,.38-1.64,1.94-1.64,1.94Z"/><path class="cls-97" d="M261.47,185.59s-.33.71.16,1.06c.13.2.28,1.22-.27,1.55a3.53,3.53,0,0,1-1-1.66C260.28,185.94,261,185.5,261.47,185.59Z"/><circle class="cls-97" cx="262.02" cy="190.23" r="0.48"/><circle class="cls-97" cx="261.75" cy="193.27" r="0.48"/><path class="cls-98" d="M254.24,190c-.1-.58-5.67.26-8.33-3.18a8.07,8.07,0,0,1-.86-4,7.68,7.68,0,0,0-.46,2.39,4.2,4.2,0,0,0,.35,1.71,4,4,0,0,0,.54.87l.47.52a9.69,9.69,0,0,0,1.83,1.41,25,25,0,0,0,3.44,1.66c.88.35,1.74.65,2.6.94A9.19,9.19,0,0,0,254.24,190Z"/><path class="cls-81" d="M261.93,183.64a4.78,4.78,0,0,1-.16,1.19,3.84,3.84,0,0,0,2.27.27,16,16,0,0,1-.07-1.76Z"/><path class="cls-67" d="M267.94,178.15a3.48,3.48,0,0,0-.72-1.3,3.71,3.71,0,0,0-3.09-1.25c-2.2.26-3.3,2-4,3.87s-1.25,3-.31,3.87,3.33.72,5.27.15A4.45,4.45,0,0,0,267.94,178.15Z"/><path class="cls-95" d="M261.25,175.58s.05,2.29,3.95,3.68c.32.58-.37,1.88-1.51,2.29s.72.53,1.59,0,.75.94,0,1-1.67.74-1.48,1.19,1.76.58,3.6-.94,2.65-4,2.29-5.34a4.79,4.79,0,0,0-2.12-2.35c-1-.67-2.15-1-3.12-1.71-.19-.14-.66-.45-.62,0,.07.85-.29.32-.74,0s-.89-.31-.76.32-.08.31-.62.09S261.19,174.8,261.25,175.58Z"/><path class="cls-96" d="M268.7,181.36a1.62,1.62,0,0,1-1.5-2c.41-1.06-.07-1-2.5-1.43-2.11-.39-3.17-3-3.42-3.66a5.2,5.2,0,0,0,0,1.32s.05,2.29,3.95,3.68c.32.58-.37,1.88-1.51,2.29s.72.53,1.59,0,.75.94,0,1-1.67.74-1.48,1.19,1.76.58,3.6-.94A6.54,6.54,0,0,0,268.7,181.36Z"/><path class="cls-98" d="M275.44,199.37c-.18-.72.58-1.53.54-1.89s-1,.14-1.48-.4-3.41-4.67-3.55-4.29a5.34,5.34,0,0,0-1.64,3.36c-.32,2.3-1,7.83-2,8.73s-5.94,1.93-3.55,2.27,3.82.93,3.46,1.65-1.71,3.31-12.07,1.77V211s7.72,2.47,13.57.16c.29-3.22,1-10.51,1.81-15.48l.17.12.05,0,.15.12.07,0,.2.16,0,0,.27.21h0c.84.64,1.86,1.44,2.06,1.63s.16.2.27.28.17.33.27.49a28.84,28.84,0,0,1,1.59,6.36c.32,2,.55,4,.74,6,0,0,0,0,0-.05C276.71,208.3,275.62,200.09,275.44,199.37Z"/><path class="cls-96" d="M258.42,230.09a4.16,4.16,0,0,1-1.57,3.13c-.15.22,1.27.6,1.57,1.64s1.06,9.53,1.06,9.54L259,233.31s2.06-11.25,3-13.17a20.34,20.34,0,0,1-1.62-2C259.83,217.28,258.64,227.78,258.42,230.09Z"/><path class="cls-87" d="M68.17,259.54c-.53-.83-3.16-.24-4.55-1-1.09-.62-1-2.32-1-2.32l-2.19-.34a24.3,24.3,0,0,0-.63,4.16.93.93,0,0,0,.79.94,30.57,30.57,0,0,0,7.86.22A2,2,0,0,0,68.17,259.54Z"/><path class="cls-87" d="M54.55,258.37c-.51-.8-2.77-.77-4.12-1.53-1.06-.61-.75-2.21-.75-2.21l-2.1-.32a15.71,15.71,0,0,0-.89,4,.9.9,0,0,0,.77.9,65.14,65.14,0,0,0,7.33.76A1.93,1.93,0,0,0,54.55,258.37Z"/><path class="cls-57" d="M65.46,238.14,64,216l-12.39-.19a17.18,17.18,0,0,0-1.45,5.51c-.17,2.78.3,11.87.3,11.88l-.2,3,0-.29-3.27,18.95,2.67.64,5.66-18.38,0-.29,1.83-12.28,3,14.07-.21,18.06,2.72.24,2.67-18.33v-.47Z"/><path class="cls-85" d="M64,216l-12.32-.19h-.08a18.87,18.87,0,0,0-1.22,3.86c2.22.12,6.35.2,8.38,1.52,2.42,1.56,4.78,5.36,6.09,7.87Z"/><path class="cls-85" d="M54.86,227c-.89,1.78-.16,7.51-.78,8.45s-1.88.22-1,.94-1.4,13-1.4,13h0l3.76-12.2,0-.29,1.83-12.28A5.27,5.27,0,0,0,54.86,227Z"/><path class="cls-67" d="M62.09,179.25c-1-1.59-4-1.88-6.13-.3s-.44,5.75-.44,5.75c1.69,3.69,5.87,3.91,6.9,2.31S63.11,180.84,62.09,179.25Z"/><path class="cls-67" d="M60.15,186.94s-.35,3.05.72,4.81a12.93,12.93,0,0,1-3.07-.05c-1.31-.24.44-5.71.44-5.71A2.36,2.36,0,0,1,60.15,186.94Z"/><path class="cls-71" d="M61,176.12a12.74,12.74,0,0,0-5.33,1,3.44,3.44,0,0,0-2,3.58,14.59,14.59,0,0,0,2.09,6c1.2,1.73,4.61,2.2,5,1.22a2.4,2.4,0,0,0-.88-2.63c-.66-.55.13-2,.65-1.57s.79,2.08,1.27,1.6-1.7-3.49-.35-3.64a3.19,3.19,0,0,0,2.27-1.83,5.86,5.86,0,0,0,.67-2.15C64.62,175.9,62.22,176.17,61,176.12Z"/><path class="cls-99" d="M56.54,189.34a2.8,2.8,0,0,1,2-.28,19.52,19.52,0,0,1,2.4.79l.55,1.63a15.18,15.18,0,0,0-3.22-.45C57.1,191.08,55.87,191.1,56.54,189.34Z"/><path class="cls-67" d="M45.4,213.67A25,25,0,0,0,46.52,217c.38.59-.41.37-.85-.38s-.53-.28-.49,0a15.84,15.84,0,0,1,.23,2.28c0,.37-.28,0-.44-.65s-.29-1-.29-1,0,1.64-.36,1.79-1.14-1-1.42-1.69S44,213.59,44,213.59Z"/><path class="cls-67" d="M83.84,186s1.84-2.43,2.64-3.26S88.8,181,89,181.22s-1.05,1.11-1.26,1.48.62.62,1,1.39a1.61,1.61,0,0,1-.8,2c-.64.28-1.5.18-1.85.49s-1,.81-1,.81Z"/><path class="cls-88" d="M84.14,185.44c-1.78,1.56-3.35,3.29-5.17,4.78-.91.75-1.83,1.48-2.75,2.17-.46.35-.92.69-1.37,1a6.9,6.9,0,0,1-.64.39,2.54,2.54,0,0,1-.25.14.13.13,0,0,0-.09,0c-.1-.06-.56,0-1.08,0s-1-.08-1.58-.14c-1.1-.13-2.24-.31-3.37-.51-.72-.13-7.52-2.72-8.87-3a4.57,4.57,0,0,0-1,0c-2.84.16-4.75.74-5.88,1.79a3.25,3.25,0,0,0-.63.6c-.6.78-1.2,1.56-1.79,2.36a61.52,61.52,0,0,0-3.8,5.6,11.87,11.87,0,0,0-1.41,3.55,30.67,30.67,0,0,0-.54,3.4c-.22,2.22-.31,4.39-.31,6.59l2,.17a61.24,61.24,0,0,1,1.51-6.11,26,26,0,0,1,1-2.83,7.42,7.42,0,0,1,1.43-2.18c.38-.43.79-.86,1.21-1.29-.14,5.41-.53,12.11-.67,16.34,5.94,2.23,14.34.58,14.34.58s.09-9.91,1.06-13.58a40.18,40.18,0,0,0,1.08-5.8l.83,0c1.24-.07,2.47-.14,3.75-.28.65-.08,1.27-.14,2-.28a10.06,10.06,0,0,0,2.41-.67,7.2,7.2,0,0,0,.7-.42,5.55,5.55,0,0,0,.47-.37c.3-.24.52-.47.76-.69.47-.46.9-.91,1.32-1.36.83-.91,1.63-1.82,2.41-2.73,1.56-1.84,3.07-3.68,4.57-5.56Z"/><path class="cls-78" d="M59,180.72c-1.39.35-.58,3.33-2.35,3.34a6.14,6.14,0,0,1-2.23-.19,12.12,12.12,0,0,0,1.36,2.88c1.2,1.73,4.61,2.2,5,1.22a2.4,2.4,0,0,0-.88-2.63c-.66-.55.13-2,.65-1.57s.79,2.08,1.27,1.6-1.7-3.49-.35-3.64a3.19,3.19,0,0,0,2.27-1.83,5.86,5.86,0,0,0,.67-2.15S63.5,180.62,59,180.72Z"/><path class="cls-91" d="M75.27,196.55a33,33,0,0,1-9.8.62c-2.21.54-2.11,4.75-2.43,10.3s-.61,5.6-2.17,6.12-1.4,1.41,0,1.59S59.42,219,50.2,217.41c0,.27,0,.54,0,.79,5.94,2.23,14.34.58,14.34.58s.09-9.91,1.06-13.58a40.18,40.18,0,0,0,1.08-5.8l.83,0c1.24-.07,2.47-.14,3.75-.28.65-.08,1.27-.14,2-.28a10.06,10.06,0,0,0,2.41-.67,7.2,7.2,0,0,0,.7-.42,5.55,5.55,0,0,0,.47-.37c.3-.24.52-.47.76-.69.47-.46.9-.91,1.32-1.36.83-.91,1.63-1.82,2.41-2.73.49-.58,1-1.17,1.46-1.76C82.35,191.16,76.82,196.11,75.27,196.55Z"/><path class="cls-91" d="M47.06,203.28c-.37,1.27-.92,8.72-.92,8.72l0,0c.3-1.29.62-2.57,1-3.8a26,26,0,0,1,1-2.83,7.42,7.42,0,0,1,1.43-2.18c.38-.43.79-.86,1.21-1.29,0,0,.72-4.8.79-5.36S47.42,202,47.06,203.28Z"/></g></g></g></svg>