<svg xmlns="http://www.w3.org/2000/svg" xmlns:xlink="http://www.w3.org/1999/xlink" width="339.149" height="283.67" viewBox="0 0 339.149 283.67">
  <defs>
    <linearGradient id="linear-gradient" x1="0.036" y1="-0.065" x2="0.799" y2="0.916" gradientUnits="objectBoundingBox">
      <stop offset="0" stop-color="#1aa9ec"/>
      <stop offset="0.619" stop-color="#1c5eb8"/>
      <stop offset="1" stop-color="#1e2f97"/>
    </linearGradient>
    <linearGradient id="linear-gradient-2" x1="0.376" y1="0.034" x2="0.557" y2="1.008" gradientUnits="objectBoundingBox">
      <stop offset="0" stop-color="#fff"/>
      <stop offset="0.068" stop-color="#e5e5e5"/>
      <stop offset="0.268" stop-color="#a1a1a1"/>
      <stop offset="0.457" stop-color="#676767"/>
      <stop offset="0.63" stop-color="#3a3a3a"/>
      <stop offset="0.784" stop-color="#1a1a1a"/>
      <stop offset="0.912" stop-color="#070707"/>
      <stop offset="1"/>
    </linearGradient>
    <linearGradient id="linear-gradient-3" x1="0.279" y1="0.186" x2="0.807" y2="1.045" gradientUnits="objectBoundingBox">
      <stop offset="0" stop-color="#fff"/>
      <stop offset="0.121" stop-color="#d7d7d7"/>
      <stop offset="0.366" stop-color="#8b8b8b"/>
      <stop offset="0.586" stop-color="#4f4f4f"/>
      <stop offset="0.771" stop-color="#242424"/>
      <stop offset="0.915" stop-color="#090909"/>
      <stop offset="1"/>
    </linearGradient>
    <linearGradient id="linear-gradient-4" x1="0.476" y1="0.063" x2="0.556" y2="1.192" gradientUnits="objectBoundingBox">
      <stop offset="0" stop-color="#fff"/>
      <stop offset="0.422" stop-color="#8d8d8d"/>
      <stop offset="0.822" stop-color="#282828"/>
      <stop offset="1"/>
    </linearGradient>
  </defs>
  <g id="Web_Development_05" data-name="Web Development 05" transform="translate(-3.772 -26.429)">
    <g id="Group_258" data-name="Group 258" transform="translate(19.544 26.429)">
      <path id="Path_578" data-name="Path 578" d="M296.363,249.422c-38.085,18.052-16.027,33.969-51.134,53.688-17.877,10.006-36.525-3.164-79.392-27.591-42.891-24.454-65.023,5.909-100.418,9.443C28.75,288.64-1,256.829,17.961,226.048l.865-1.4c18.912-29.995,49.14-56.484,33.328-97.3-.792-2.035-1.586-4-2.378-5.837-7.449-17.486-14.706-26.242-20.3-31.958-8.6-8.755-13.36-10.348-9.228-25.335,9.108-32.841,62.43-29.383,93.858-9.443,21.41,13.564,50.774,16.507,72.089,3.065a51.728,51.728,0,0,0,7.352-5.591c7.185-6.573,13.792-12.607,20.809-17.193,13.936-9.1,29.58-12.484,54.835-2.82,29.724,11.38,52.5,44.245,22.947,63.719-34.481,22.76-17.132,31.393,15.692,67.25,12.472,13.637,19.871,25.286,23,35.441C337.837,221.487,323.3,236.668,296.363,249.422Z" transform="translate(-12.071 -26.429)" fill="url(#linear-gradient)"/>
      <path id="Path_579" data-name="Path 579" d="M296.363,249.422c-38.085,18.052-16.027,33.969-51.134,53.688-17.877,10.006-36.525-3.164-79.392-27.591-42.891-24.454-65.023,5.909-100.418,9.443C28.75,288.64-1,256.829,17.961,226.048c18.815-30.584,50.246-57.244,34.193-98.693C43.864,105.92,35.67,95.888,29.471,89.56,61.262,73.643,98.916,69.719,129.96,86.079c4.278,2.257,8.41,4.855,13.073,6.082,3.965,1.054,8.121,1.03,12.231.982,13.625-.2,27.584-.835,40.105-6.255,12.543-5.394,23.525-16.6,25.085-30.411.938-8.242-1.73-15.109-6.1-21.412,13.936-9.1,29.58-12.484,54.835-2.82,29.724,11.38,52.5,44.245,22.947,63.719-34.481,22.76-17.132,31.393,15.692,67.25C348.315,207.482,335.266,231,296.363,249.422Z" transform="translate(-12.071 -26.429)" opacity="0.47" fill="url(#linear-gradient-2)" style="mix-blend-mode: overlay;isolation: isolate"/>
      <path id="Path_580" data-name="Path 580" d="M296.363,249.422c-38.085,18.052-16.027,33.969-51.134,53.688-17.877,10.006-36.525-3.164-79.392-27.591-42.891-24.454-65.023,5.909-100.418,9.443C28.75,288.64-1,256.829,17.961,226.048c18.815-30.584,50.246-57.244,34.193-98.693-.792-2.035-1.586-4-2.378-5.837a130.483,130.483,0,0,1,33.76,13.81c14.371,8.363,27.756,19.178,43.735,23.544,21.649,5.885,46.328-1.987,60.841-19.449,14.49-17.438,18.094-43.583,8.842-64.431a76.656,76.656,0,0,0-10.763-17.144,51.727,51.727,0,0,0,7.352-5.591c7.185-6.573,13.792-12.607,20.809-17.193,13.936-9.1,29.58-12.484,54.835-2.82,29.724,11.38,52.5,44.245,22.947,63.719-34.481,22.76-17.132,31.393,15.692,67.25C348.315,207.482,335.266,231,296.363,249.422Z" transform="translate(-12.071 -26.429)" opacity="0.47" fill="url(#linear-gradient-3)" style="mix-blend-mode: overlay;isolation: isolate"/>
      <path id="Path_581" data-name="Path 581" d="M296.363,170.8c-38.085,17.057-16.027,32.1-51.134,50.729-17.877,9.455-36.525-2.989-79.392-26.07-42.891-23.106-65.023,5.584-100.418,8.923C28.75,207.857-1,177.8,17.961,148.715l.865-1.321c2.018,1.53,4.012,3.037,6.127,4.426,7.762,5.076,16.7,8.3,25.759,10.591,39.5,9.964,83.383,2.5,116.951-19.907,15.859-10.589,29.557-24.332,46.736-32.861,36.43-18.075,82.277-8.714,116.423,13.187C337.837,144.4,323.3,158.749,296.363,170.8Z" transform="translate(-12.071 55.338)" opacity="0.47" fill="url(#linear-gradient-4)" style="mix-blend-mode: overlay;isolation: isolate"/>
    </g>
    <g id="Group_295" data-name="Group 295" transform="translate(3.772 35.053)">
      <g id="Group_259" data-name="Group 259" transform="translate(287.104 73.206)">
        <rect id="Rectangle_189" data-name="Rectangle 189" width="52.045" height="68.394" rx="1.529" fill="#7dd6f6"/>
        <rect id="Rectangle_190" data-name="Rectangle 190" width="17.348" height="59.947" transform="translate(3.633 4.632)" fill="#fff"/>
        <rect id="Rectangle_191" data-name="Rectangle 191" width="13.306" height="5.995" transform="translate(26.023 4.632)" fill="#fff"/>
        <rect id="Rectangle_192" data-name="Rectangle 192" width="21.89" height="2.521" transform="translate(26.023 16.077)" fill="#fff"/>
        <rect id="Rectangle_193" data-name="Rectangle 193" width="21.89" height="2.52" transform="translate(26.023 20.402)" fill="#fff"/>
        <rect id="Rectangle_194" data-name="Rectangle 194" width="21.89" height="2.521" transform="translate(26.023 31.182)" fill="#fff"/>
        <rect id="Rectangle_195" data-name="Rectangle 195" width="21.89" height="2.52" transform="translate(26.023 35.508)" fill="#fff"/>
        <rect id="Rectangle_196" data-name="Rectangle 196" width="21.89" height="2.52" transform="translate(26.023 46.288)" fill="#fff"/>
        <rect id="Rectangle_197" data-name="Rectangle 197" width="21.89" height="2.521" transform="translate(26.023 50.614)" fill="#fff"/>
      </g>
      <g id="Group_260" data-name="Group 260" transform="translate(15.786 74.274)">
        <rect id="Rectangle_198" data-name="Rectangle 198" width="43.784" height="95.176" rx="1.39" fill="#4adfde"/>
        <rect id="Rectangle_199" data-name="Rectangle 199" width="34.143" height="40.335" transform="translate(4.511 10.261)" fill="#fff"/>
        <path id="Path_582" data-name="Path 582" d="M19.1,92.062V80.4a1.609,1.609,0,0,1,2.222-1.488l14.149,5.832a1.609,1.609,0,0,1,0,2.974L21.325,93.55A1.609,1.609,0,0,1,19.1,92.062Z" transform="translate(-5.753 -55.804)" fill="#1e2f97"/>
        <rect id="Rectangle_200" data-name="Rectangle 200" width="34.143" height="4.599" transform="translate(4.511 56.345)" fill="#fff"/>
        <rect id="Rectangle_201" data-name="Rectangle 201" width="34.143" height="4.6" transform="translate(4.511 65.721)" fill="#fff"/>
        <rect id="Rectangle_202" data-name="Rectangle 202" width="11.853" height="4.6" transform="translate(26.801 79.431)" fill="#fff"/>
      </g>
      <path id="Path_583" data-name="Path 583" d="M126.081,37.964l-21,8.819,6.145,1.629-8.929,8.929H81L66.649,71.7l4.408,4.407,12.531-12.53h21.29l10.755-10.756,1.631,6.148Z" transform="translate(57.924 -24.667)" fill="#7dd6f6"/>
      <g id="Group_262" data-name="Group 262" transform="translate(56.535 38.435)">
        <rect id="Rectangle_203" data-name="Rectangle 203" width="31.452" height="18.343" rx="1.23" fill="#4adfde"/>
        <g id="Group_261" data-name="Group 261" transform="translate(3.79 5.652)">
          <path id="Path_584" data-name="Path 584" d="M35.693,54.165v2.813h2.969V54.165h1.281v7.02H38.661V58.091H35.693v3.094H34.412v-7.02Z" transform="translate(-34.412 -54.165)" fill="#fff"/>
          <path id="Path_585" data-name="Path 585" d="M39.751,55.237h-2V54.165h5.3v1.072h-2.02v5.948H39.751Z" transform="translate(-31.404 -54.165)" fill="#fff"/>
          <path id="Path_586" data-name="Path 586" d="M46.969,58.321c-.042-.907-.093-2-.084-2.948h-.03c-.228.853-.521,1.8-.834,2.687L45,61.1h-.988l-.937-3c-.272-.9-.521-1.853-.709-2.727h-.021c-.032.916-.072,2.03-.125,2.988l-.156,2.824h-1.2l.468-7.02h1.688l.918,2.822c.249.823.468,1.655.644,2.436h.032c.188-.76.426-1.623.7-2.446l.967-2.813h1.667l.407,7.02H47.1Z" transform="translate(-28.6 -54.165)" fill="#fff"/>
          <path id="Path_587" data-name="Path 587" d="M45.495,54.165h1.281v5.947h2.885v1.074H45.495Z" transform="translate(-24.432 -54.165)" fill="#fff"/>
        </g>
      </g>
      <g id="Group_264" data-name="Group 264" transform="translate(265.706 34.881)">
        <rect id="Rectangle_204" data-name="Rectangle 204" width="25.377" height="18.41" rx="1.171" fill="#4adfde"/>
        <g id="Group_263" data-name="Group 263" transform="translate(4.912 3.476)">
          <path id="Path_588" data-name="Path 588" d="M140.168,56.545c1.032-.015,1.15-.576,1.15-1.047a11,11,0,0,0-.087-1.18,8.242,8.242,0,0,1-.1-1.193c0-1.385.886-1.975,2.2-1.975h.428v1.06h-.266c-.766,0-1.03.428-1.03,1.15a5.281,5.281,0,0,0,.1.929c.029.323.087.678.087,1.06A1.427,1.427,0,0,1,141.466,57v.03a1.441,1.441,0,0,1,1.178,1.665c0,.4-.059.753-.087,1.076a5.281,5.281,0,0,0-.1.929c0,.737.293,1.165,1.03,1.165h.266v1.047h-.428c-1.283,0-2.2-.532-2.2-2.02a8.088,8.088,0,0,1,.1-1.18,10.69,10.69,0,0,0,.087-1.165c0-.426-.118-1.03-1.15-1.045Z" transform="translate(-140.168 -51.15)" fill="#fff"/>
          <path id="Path_589" data-name="Path 589" d="M149.893,57.5c-1.017.015-1.15.62-1.15,1.045a10.768,10.768,0,0,0,.1,1.165,10.945,10.945,0,0,1,.1,1.18c0,1.488-.914,2.02-2.2,2.02h-.428V61.867h.266c.735-.015,1.017-.428,1.017-1.165a6.836,6.836,0,0,0-.089-.929,7.8,7.8,0,0,1-.087-1.076,1.441,1.441,0,0,1,1.163-1.665V57a1.427,1.427,0,0,1-1.163-1.651,7.8,7.8,0,0,1,.087-1.06,6.836,6.836,0,0,0,.089-.929c0-.722-.264-1.135-1.017-1.15h-.266V51.15h.428c1.311,0,2.2.589,2.2,1.975a11.14,11.14,0,0,1-.1,1.193,11.086,11.086,0,0,0-.1,1.18c0,.471.133,1.032,1.15,1.047Z" transform="translate(-134.623 -51.15)" fill="#fff"/>
        </g>
      </g>
      <g id="Group_266" data-name="Group 266" transform="translate(85.419 90.999)">
        <g id="Group_265" data-name="Group 265">
          <path id="Path_590" data-name="Path 590" d="M228.522,81.823V199.782a4.93,4.93,0,0,1-4.92,4.92H51.981a4.929,4.929,0,0,1-4.685-3.389v-.029a5.208,5.208,0,0,1-.236-1.5V81.823a4.936,4.936,0,0,1,4.92-4.951l169.085-3.094h.03l1.739-.028c.029-.03.029,0,.029,0a.04.04,0,0,1,.059,0c.03-.03.03,0,.03,0l.855-.03C226.519,73.719,228.522,79.082,228.522,81.823Z" transform="translate(-43.908 -73.719)" fill="#1e2f97"/>
          <path id="Path_591" data-name="Path 591" d="M226.863,78.639v117.99a4.93,4.93,0,0,1-4.92,4.92H50.322a5.336,5.336,0,0,1-1.532-.236v-.029a3.357,3.357,0,0,1-1.032-.5,4.838,4.838,0,0,1-2.357-4.154V78.639a4.93,4.93,0,0,1,4.92-4.92H221.943a4.108,4.108,0,0,1,.618.059h.03A4.924,4.924,0,0,1,226.863,78.639Z" transform="translate(-45.402 -73.719)" fill="#fff"/>
          <rect id="Rectangle_205" data-name="Rectangle 205" width="181.458" height="17.357" rx="1.42" transform="translate(0.006 0.01)" fill="#1e2f97"/>
          <path id="Path_592" data-name="Path 592" d="M55.766,79.239a2,2,0,1,1-2-2A2,2,0,0,1,55.766,79.239Z" transform="translate(-39.671 -70.55)" fill="#fff"/>
          <path id="Path_593" data-name="Path 593" d="M59.68,79.239a2,2,0,1,1-2-2A2,2,0,0,1,59.68,79.239Z" transform="translate(-36.147 -70.55)" fill="#fff"/>
          <circle id="Ellipse_56" data-name="Ellipse 56" cx="2.001" cy="2.001" r="2.001" transform="translate(26.971 6.688)" fill="#fff"/>
        </g>
        <path id="Rectangle_206" data-name="Rectangle 206" d="M2.179,0H47.863a2.18,2.18,0,0,1,2.18,2.18v99.106a2.18,2.18,0,0,1-2.18,2.18H2.18A2.18,2.18,0,0,1,0,101.285V2.179A2.179,2.179,0,0,1,2.179,0Z" transform="translate(5.642 17.367)" fill="#7dd6f6"/>
        <circle id="Ellipse_57" data-name="Ellipse 57" cx="14.37" cy="14.37" r="14.37" transform="translate(11.887 31.906) rotate(-22.5)" fill="#fff"/>
        <rect id="Rectangle_207" data-name="Rectangle 207" width="19.921" height="3.381" transform="translate(11.052 62.675)" fill="#fff"/>
        <rect id="Rectangle_208" data-name="Rectangle 208" width="37.869" height="3.381" transform="translate(11.052 68.762)" fill="#fff"/>
        <rect id="Rectangle_209" data-name="Rectangle 209" width="37.869" height="3.381" transform="translate(11.052 74.848)" fill="#fff"/>
        <rect id="Rectangle_210" data-name="Rectangle 210" width="100.922" height="71.682" rx="3.64" transform="translate(74.264 43.487)" fill="#797df5"/>
        <rect id="Rectangle_211" data-name="Rectangle 211" width="33.457" height="5.439" transform="translate(84.942 55.377)" fill="#fff"/>
        <rect id="Rectangle_212" data-name="Rectangle 212" width="33.457" height="10.947" transform="translate(84.942 63.915)" fill="#fff"/>
        <rect id="Rectangle_213" data-name="Rectangle 213" width="81.151" height="5.439" transform="translate(84.942 89.233)" fill="#fff"/>
        <rect id="Rectangle_214" data-name="Rectangle 214" width="81.151" height="5.439" transform="translate(84.942 99.138)" fill="#fff"/>
      </g>
      <g id="Group_268" data-name="Group 268" transform="translate(284.581 188.801)">
        <rect id="Rectangle_215" data-name="Rectangle 215" width="41.711" height="20.877" rx="0.932" fill="#4adfde"/>
        <rect id="Rectangle_216" data-name="Rectangle 216" width="13.677" height="4.971" transform="translate(3.104 2.158)" fill="#fff"/>
        <rect id="Rectangle_217" data-name="Rectangle 217" width="21.979" height="2.471" transform="translate(3.104 11.657)" fill="#fff"/>
        <rect id="Rectangle_218" data-name="Rectangle 218" width="21.979" height="2.471" transform="translate(3.104 15.334)" fill="#fff"/>
        <g id="Group_267" data-name="Group 267" transform="translate(27.816 2.35)">
          <path id="Path_594" data-name="Path 594" d="M173.606,141.694H162.152V125.515h11.454Zm-9.776-1.678h8.1V127.193h-8.1Z" transform="translate(-162.152 -125.515)" fill="#fff"/>
        </g>
      </g>
      <g id="Group_270" data-name="Group 270" transform="translate(176.082 60.726)">
        <rect id="Rectangle_219" data-name="Rectangle 219" width="24.187" height="17.547" rx="1.116" fill="#7dd6f6"/>
        <g id="Group_269" data-name="Group 269" transform="translate(3.998 5.297)">
          <path id="Path_595" data-name="Path 595" d="M100.336,70.419a4.274,4.274,0,0,1-1.735.3,3.168,3.168,0,0,1-3.426-3.377,3.378,3.378,0,0,1,3.588-3.548,3.84,3.84,0,0,1,1.634.3l-.27.975a3.275,3.275,0,0,0-1.315-.258,2.235,2.235,0,0,0-2.351,2.471A2.2,2.2,0,0,0,98.8,69.7a3.419,3.419,0,0,0,1.336-.249Z" transform="translate(-95.174 -63.792)" fill="#fff"/>
          <path id="Path_596" data-name="Path 596" d="M98.555,69.282a3.4,3.4,0,0,0,1.623.428c.787,0,1.226-.369,1.226-.916,0-.507-.338-.808-1.2-1.116-1.106-.4-1.813-.986-1.813-1.954,0-1.095.916-1.933,2.372-1.933a3.562,3.562,0,0,1,1.613.338l-.3.986a2.835,2.835,0,0,0-1.334-.317c-.777,0-1.116.418-1.116.806,0,.519.388.758,1.285,1.106,1.165.439,1.735,1.026,1.735,1.994,0,1.076-.819,2.013-2.55,2.013a4,4,0,0,1-1.815-.418Z" transform="translate(-92.373 -63.792)" fill="#fff"/>
          <path id="Path_597" data-name="Path 597" d="M101.277,69.282a3.407,3.407,0,0,0,1.625.428c.787,0,1.224-.369,1.224-.916,0-.507-.338-.808-1.2-1.116-1.106-.4-1.813-.986-1.813-1.954,0-1.095.918-1.933,2.372-1.933a3.562,3.562,0,0,1,1.613.338l-.3.986a2.835,2.835,0,0,0-1.334-.317c-.777,0-1.116.418-1.116.806,0,.519.388.758,1.285,1.106,1.165.439,1.735,1.026,1.735,1.994,0,1.076-.817,2.013-2.55,2.013a4,4,0,0,1-1.813-.418Z" transform="translate(-89.92 -63.792)" fill="#fff"/>
        </g>
      </g>
      <g id="Group_271" data-name="Group 271" transform="translate(211.769)">
        <path id="Path_598" data-name="Path 598" d="M111.084,37.726,121.4,32.72v1.957l-8.183,3.81v.044l8.183,3.831V44.3l-10.318-5.006Z" transform="translate(-111.084 -29.388)" fill="#7dd6f6"/>
        <path id="Path_599" data-name="Path 599" d="M117.307,46.748l5.314-15.781h1.87l-5.312,15.781Z" transform="translate(-105.48 -30.967)" fill="#7dd6f6"/>
        <path id="Path_600" data-name="Path 600" d="M132.095,39.337,121.777,44.3V42.363l8.316-3.831v-.044l-8.316-3.831V32.72l10.318,4.962Z" transform="translate(-101.455 -29.388)" fill="#7dd6f6"/>
      </g>
      <g id="Group_272" data-name="Group 272" transform="translate(231.754 198.556)">
        <path id="Path_601" data-name="Path 601" d="M168.772,160.043a2.662,2.662,0,0,1-2.653,2.653l-42.285.353a2.662,2.662,0,0,1-2.653-2.653l-.028-5.245-.03-3.153L121,139.328l-.059-7.573a2.5,2.5,0,0,1,.914-2.005,2.534,2.534,0,0,1,1.708-.677l18.978-.148,10.019-.087,6.275-.03,3.153-.029,3.862-.03a2.665,2.665,0,0,1,1.767.648,2.575,2.575,0,0,1,.914,1.975Z" transform="translate(-120.945 -128.744)" fill="#1e2f97"/>
        <path id="Path_602" data-name="Path 602" d="M167.182,129.39l-21.4,15.527a2.376,2.376,0,0,1-2.721.023l-21.642-15.187a2.573,2.573,0,0,1,1.728-.671l42.276-.336A2.592,2.592,0,0,1,167.182,129.39Z" transform="translate(-120.518 -128.746)" fill="#7dd6f6"/>
      </g>
      <g id="Group_273" data-name="Group 273" transform="translate(83.55 153.735)" opacity="0.1">
        <path id="Path_603" data-name="Path 603" d="M76.293,108.371a7.24,7.24,0,0,1-.648,1.65l-.353,1.121-.707,2.149-.177.532-1.062,3.389-.559,1.739a1.68,1.68,0,0,1,.471.236l-.295.735-1.355,3.389L70.9,125.08c-1.739.971-9.048,3.122-12.79,3.506-.029,6.393-.441,11.846.8,16.471a6.2,6.2,0,0,1-.648.414l4.006,16.973-.589,3.447L60.439,172.9l-.53,3.153H54.635l.029-3.153.03-7.161.029-2.828c-1.15-2.387-2.21-4.774-3.183-7.132-.059-.146-.118-.264-.177-.412l.177,5.481.03,1.3.059,1.444-2.564,6.511-.8,2.033a4.838,4.838,0,0,1-2.357-4.154V117.271a6.188,6.188,0,0,1,1.119-.177l-.177-.059a5,5,0,0,0,1.119-1.475q-.442-.177-.971-.441a3.487,3.487,0,0,1-1.091-1.091c-1.237-1.857-1.621-5.186,0-6.718a2.511,2.511,0,0,1,.943-.561c.855-.295,1.562-.559,2.21-.766a6.543,6.543,0,0,1,2.474-.443,3.99,3.99,0,0,1,2.682,1.68c.973,1.121.65,1.975-.735,2.476.146,2.5-.325,5.509-.62,5.834a2.214,2.214,0,0,1-1.327.236h-.028a5.11,5.11,0,0,0,0,1.65h.028a14.621,14.621,0,0,1,5.718,2.417l.884.087,8.693.884.5-.884,1.444-2.533c.089.029.295.087.561.177l.177-.353,1.8-3.389.853-1.593.591-1.089,1-1.887c-.65-.884-.561-1.444-.295-1.5h.264c.059,0,.118.059.177.118a.211.211,0,0,0,.059-.118c.325-.559-.029-1.737.53-1.944a.835.835,0,0,1,1.06.471,3.842,3.842,0,0,1,.65,1.473A2.247,2.247,0,0,1,76.293,108.371Z" transform="translate(-44.835 -105.53)"/>
        <path id="Path_604" data-name="Path 604" d="M148.1,143.719c-.028-.266-.059-.53-.087-.825-.118-1.06-.266-2.064-.443-3.035-.236-1.562-.53-3.065-.855-4.451a44.009,44.009,0,0,0-1.65-5.451,33.249,33.249,0,0,0-3.772-7.514,15.156,15.156,0,0,0-3.978-1l-.884-1.5a4.6,4.6,0,0,0,2.033-3.094c.707-3.978-2.21-8.28-8.782-5.717-3.358,1.327-.648,4.1-.354,4.244.089.471.207.912.295,1.355a8.444,8.444,0,0,0,2.241,4.3,3.8,3.8,0,0,0,1,.028v.855a17.447,17.447,0,0,0-2.476.943,3.769,3.769,0,0,0-1.885,2.564l-9.842-5.245s-.295-1.178-.914-1.355c-.589-.148-.059,1.178-.059,1.178-.146-.295-3.624-1.5-3.094-.177.059.148,1.887,2.062,2.712,2,3.742,2.712,8.162,6.042,11.256,8.134.53.354,1,.677,1.444.943.236.412.382.678.382.678a6.3,6.3,0,0,1,.443.648c.029.029.059.059.087.059a8.74,8.74,0,0,0,.8.914l-2.8,2.208-.707.561-1.885,1.5-5.217-2.064-3.271-1.3c-.353-.146-.707.266-.53.678l.236.618,1.739,4.451,1.5,3.831a1.505,1.505,0,0,0,.737.794l1.8.825,2.062.943A6.871,6.871,0,0,0,123.055,151l.089,4.892.205,12.67.061,3.153h3.506l.028,5.245a2.6,2.6,0,0,0,.855,1.946,1.36,1.36,0,0,0,.323-.118c.707-.384.236-2.034-.471-2.771,0,.03-.059.059-.059.089-.146-.62-.323-1.121-.471-1.652a6.974,6.974,0,0,0,1.06-.177l.295-2.564.353-3.153,1.416-12.67.323-2.948c.266-.059.561-.146.825-.205l1.209,3.153,4.8,12.67,1.207,3.153.384,1c.353-.029.62-.057.914-.057a7.293,7.293,0,0,1,.794,2.149c-1.089.412-3.742,3.949-2.946,4.156,1.384.295,6.807-2.5,7.338-3.094.559-.62-.443-2-1.385-2.446,0,.029-.03.059-.03.087-.323-.53-.677-.973-.971-1.385a3.435,3.435,0,0,0,.707-.412.712.712,0,0,0,.205-.118l-.735-3.035-3.035-12.67-.295-1.178v-.03l-.945-3.978c4.3-.266,10.019.559,9.7-5.217a.193.193,0,0,0,0-.177A11.969,11.969,0,0,0,148.1,143.719Zm-19.212-4.067c1.325-.766,2.564-1.5,3.653-2.18a18.612,18.612,0,0,1-.177,2.387c-.028.323-.087.648-.146,1l-2.417-.943a.828.828,0,0,0-.264-.059.8.8,0,0,0-.355.087l-.146.118-.059-.205Z" transform="translate(17.933 -101.185)"/>
      </g>
      <g id="Group_280" data-name="Group 280" transform="translate(0 194.929)">
        <g id="Group_274" data-name="Group 274" transform="translate(0.564 1.785)">
          <path id="Path_605" data-name="Path 605" d="M52.413,178.907c-9.272-3.508-31.289-2.936-30.924-9.1s6.864-9.917,14.875-9.037a13.008,13.008,0,0,0-11.175-6.986c-8.052-.224-15.377-1.157-15.211-3.778s7.746-5.711,11.859-4.871c0,0,.872-8.932-7.066-8.955-9.656-.029-12.456-3.558-9.689-5.7s16.483-7.993,20.436,0,4.964,8.632,4.964,8.632,3.81-.224,3.717-6.351,6.228-9.514,10.08-2.471-3.75,11.962-3.7,17.019,5.54,14.768,8.335,6.258,14.358-11.6,12.083.469S52.413,178.907,52.413,178.907Z" transform="translate(-4.069 -126.354)" fill="#797df5"/>
          <path id="Path_606" data-name="Path 606" d="M16.58,146.93a.568.568,0,0,1,.511-.46l4.793-.578a10.191,10.191,0,0,1,3.877.029,8.212,8.212,0,0,1,1.575.7,5.7,5.7,0,0,0,1.68.669c-6.988-8.752-14.364-16.076-18.851-17.714a.328.328,0,0,1-.141-.526.6.6,0,0,1,.663-.232c4.215,1.539,10.943,8.016,17.537,15.994l.021-.144a19.163,19.163,0,0,1,3.111-7.589l.192-.281a6.322,6.322,0,0,0,.927-1.674,4.388,4.388,0,0,0-.1-2.186.509.509,0,0,1,.39-.528.4.4,0,0,1,.555.224,4.9,4.9,0,0,1,.089,2.524,7.1,7.1,0,0,1-1.053,1.931l-.188.276A18.323,18.323,0,0,0,29.2,144.6l-.057.374c-.036.249-.074.5-.122.747,0,.011-.013.019-.015.03A141.21,141.21,0,0,1,44.179,168.3a8.758,8.758,0,0,1,1.781-4.185,15.81,15.81,0,0,0,1.346-2.391,11.677,11.677,0,0,0,.677-3.423l.57-6.108a.567.567,0,0,1,.515-.454c.264-.03.46.127.441.35l-.572,6.108a12.229,12.229,0,0,1-.73,3.641,16.656,16.656,0,0,1-1.423,2.543,7.863,7.863,0,0,0-1.652,3.89,1.545,1.545,0,0,1-.38,1.155,39.435,39.435,0,0,1,2.837,7.129.478.478,0,0,1-.306.507l-.067.028a.412.412,0,0,1-.566-.209,45.594,45.594,0,0,0-3.983-9.35.379.379,0,0,1-.327-.163c-.64-1.089-2.206-1.758-4.3-1.834a27.345,27.345,0,0,0-3.5.182c-.779.072-1.556.144-2.326.177-2.512.106-4.365-.327-5.508-1.285a.368.368,0,0,1,.067-.57.549.549,0,0,1,.675-.063c.988.829,2.644,1.2,4.918,1.106.751-.03,1.509-.1,2.267-.175a28.526,28.526,0,0,1,3.647-.184,8.233,8.233,0,0,1,3.219.707,146.931,146.931,0,0,0-11.828-17.321,4.833,4.833,0,0,1-2.953-.777,7.433,7.433,0,0,0-1.42-.633,9.36,9.36,0,0,0-3.474,0l-4.795.576C16.763,147.307,16.563,147.151,16.58,146.93Z" transform="translate(1.225 -124.164)" fill="#fff"/>
        </g>
        <path id="Path_607" data-name="Path 607" d="M19.89,163.5c1.479-2.1,11.3-1.672,14.557,4.441l0-.019,0-.01-.006-.009c-.169-1.452-.3-2.9-.372-4.365-.112-1.785-.135-3.571-.089-5.338a58.073,58.073,0,0,1,.429-5.926c-2.53.762-10.719-3.259-11.817-6.733,1.26-1.783,9.943-1.325,12.184,4.333v-.008c.156-.912.342-1.83.553-2.727.262-1.133.566-2.254.92-3.345A36.38,36.38,0,0,1,38.4,138.43a4.017,4.017,0,0,1-1.285-.063,12.137,12.137,0,0,1-2.794-.918c-2.6-1.15-5.363-3.119-5.928-4.913.656-.941,3.649-1.165,6.353-.118a8.558,8.558,0,0,1,1.823.944,6.29,6.29,0,0,1,2.6,3.592,29.075,29.075,0,0,1,4.742-6.336c-1.562-.15-4.6-1.8-5.055-3.246.62-.884,5.091-.616,5.918,2.408a25.055,25.055,0,0,1,3.016-2.4c.146-.1.295-.211.447-.308l.01,0,0,0c2.488-3.141,7.79-1.068,8.031.276-1.349,1.467-6.062,1.667-7.687.863a25.222,25.222,0,0,0-4.114,3.453,7.925,7.925,0,0,1,5.69.048c1.359.5,2.353,1.256,2.467,1.891a3.986,3.986,0,0,1-1.575.96c-2.889,1.108-7.942.91-8.786-.315a33.016,33.016,0,0,0-4.723,9.147c-.162.469-.31.943-.454,1.423a7.433,7.433,0,0,1,2.387-2.007c3.706-2.011,8.778-1.344,9.571.1-.929,2.054-4.574,4.008-7.8,4.956l0-.009c-2.208.646-4.213.813-5,.209-.036.181-.076.374-.114.557-.272,1.321-.483,2.666-.65,4.031a58.419,58.419,0,0,0-.416,7.535c0,.264,0,.538.013.806.08-.124.152-.243.236-.359a8.567,8.567,0,0,1,.836-1.028.037.037,0,0,0,.013-.019,9.9,9.9,0,0,1,2.225-1.724,12.667,12.667,0,0,1,2.339-1.007,13.884,13.884,0,0,1,2.471-.542,11.418,11.418,0,0,1,6.365.76l0,.01a2.834,2.834,0,0,1,.644.454l0,.009.011.017a1.042,1.042,0,0,1,.217.268l.025.044c0,.013-.011.019-.015.032-.021.046-.049.1-.07.143a5.8,5.8,0,0,1-.374.621c-.027.036-.061.08-.086.116a8.68,8.68,0,0,1-1.294,1.319,15.893,15.893,0,0,1-2.955,1.935c-.236.131-.487.26-.741.378l-.487.238c-.127.061-.258.11-.386.171-.067.025-.127.059-.194.084-.72.312-1.456.595-2.189.844a20.311,20.311,0,0,1-4.1.935,6.353,6.353,0,0,1-2.339-.084,70.448,70.448,0,0,0,1.049,7.98l0,.01c.144.791.3,1.577.473,2.349.053.281.116.555.181.817.4,1.726.855,3.421,1.374,5.07l-1.087.331a.143.143,0,0,1-.017-.07l-.006-.009q-.8-2.546-1.4-5.224c-.067-.285-.133-.568-.186-.848-.065-.239-.106-.481-.154-.728-.087-.365-.158-.737-.22-1.116-.08-.391-.162-.781-.219-1.174-.034-.163-.061-.333-.086-.5l0-.008C32.762,173.4,21.334,168.067,19.89,163.5Z" transform="translate(10.741 -125.414)" fill="#7dd6f6"/>
        <g id="Group_276" data-name="Group 276" transform="translate(0 31.889)">
          <path id="Path_608" data-name="Path 608" d="M27.016,160.993c8.9-.122,24.39,6.41,26.825,4.536a.787.787,0,0,0,.321-.713.417.417,0,0,0,0-.175c-.283-2.058-.217-1.976-19.89-15.067s-30.377-6.215-30.5,1.03S12,161.2,27.016,160.993Z" transform="translate(-3.772 -142.194)" fill="#1ba8ec"/>
          <g id="Group_275" data-name="Group 275" transform="translate(4.805 7.072)">
            <path id="Path_609" data-name="Path 609" d="M6.809,147.183c11.291-3.269,37.464,10.869,44.756,15a.787.787,0,0,0,.321-.713c-7.452-4.261-33.589-18.421-45.3-15.033a.389.389,0,0,0-.272.483A.4.4,0,0,0,6.809,147.183Z" transform="translate(-6.301 -145.915)" fill="#fff"/>
          </g>
        </g>
        <g id="Group_279" data-name="Group 279" transform="translate(206.8 40.795)">
          <g id="Group_277" data-name="Group 277">
            <path id="Path_610" data-name="Path 610" d="M138.263,182.164c-5.39-2.95-18.951-4.485-18.2-8.238s5.065-5.5,9.905-4.27a8.06,8.06,0,0,0-6.26-5.245c-4.922-.829-9.339-2.032-9.01-3.624s5.243-2.841,7.695-1.973c0,0,1.3-5.407-3.567-6.1-5.926-.846-7.341-3.252-5.458-4.329s10.8-3.493,12.541,1.754,2.305,5.724,2.305,5.724,2.358.19,2.828-3.579,4.639-5.306,6.4-.652-3.328,7.018-3.729,10.128,2.132,9.54,4.578,4.555,9.806-5.89,7.376,1.325A70.5,70.5,0,0,1,138.263,182.164Z" transform="translate(-112.588 -146.88)" fill="#4adfde"/>
            <path id="Path_611" data-name="Path 611" d="M118.794,159.972a.351.351,0,0,1,.352-.239l2.991.057a6.285,6.285,0,0,1,2.377.352,5.063,5.063,0,0,1,.908.561,3.533,3.533,0,0,0,.973.555c-3.539-5.969-7.438-11.1-10.051-12.49a.2.2,0,0,1-.04-.334.376.376,0,0,1,.428-.086c2.453,1.308,6.028,5.859,9.39,11.321l.027-.087a11.879,11.879,0,0,1,2.56-4.39l.141-.156a3.885,3.885,0,0,0,.713-.948,2.7,2.7,0,0,0,.125-1.349.313.313,0,0,1,.283-.293c.167-.029.31.055.321.186a3.033,3.033,0,0,1-.162,1.556,4.4,4.4,0,0,1-.811,1.095l-.139.154a11.356,11.356,0,0,0-2.444,4.191l-.067.226c-.044.148-.087.3-.139.447l-.013.017a87.445,87.445,0,0,1,7.381,15.137,5.428,5.428,0,0,1,1.45-2.414,9.951,9.951,0,0,0,1.034-1.353,7.274,7.274,0,0,0,.707-2.043l.874-3.7a.35.35,0,0,1,.355-.236c.163,0,.272.118.239.253l-.874,3.7a7.582,7.582,0,0,1-.76,2.174,10.239,10.239,0,0,1-1.093,1.437,4.9,4.9,0,0,0-1.347,2.246.956.956,0,0,1-.331.677,24.479,24.479,0,0,1,1.129,4.618.294.294,0,0,1-.23.285l-.044.011c-.167.034-.315-.046-.331-.177a28.185,28.185,0,0,0-1.642-6.08.232.232,0,0,1-.186-.127,3.122,3.122,0,0,0-2.482-1.5,17.166,17.166,0,0,0-2.165-.188c-.485-.023-.967-.044-1.444-.091a4.964,4.964,0,0,1-3.269-1.26c-.091-.1-.051-.255.089-.346a.344.344,0,0,1,.42.021,4.476,4.476,0,0,0,2.923,1.1c.464.046.935.067,1.406.087a17.517,17.517,0,0,1,2.254.2,5.117,5.117,0,0,1,1.916.709,91.078,91.078,0,0,0-5.774-11.644,2.979,2.979,0,0,1-1.745-.73,4.741,4.741,0,0,0-.817-.511,5.8,5.8,0,0,0-2.134-.3l-2.991-.059C118.872,160.217,118.763,160.107,118.794,159.972Z" transform="translate(-109.306 -145.59)" fill="#fff"/>
          </g>
          <g id="Group_278" data-name="Group 278" transform="translate(25.671 22.15)">
            <path id="Path_612" data-name="Path 612" d="M126.175,171.023c3.451,1.059,9.66,6.137,10.93,4.28s.238-4.386-2.263-5.92a4.737,4.737,0,0,1,4.774.483c2.368,1.733,4.685,3.1,5.222,2.307s-.956-3.373-2.328-4.048c0,0,1.743-2.765,4.033-1,2.786,2.148,4.379,1.756,4.061.521s-2.961-5.977-5.884-4.557-3.354,1.376-3.354,1.376-1.047-.914.348-2.657.331-4.128-2.351-2.961-1.589,4.28-2.733,5.724-4.89,3.014-3.8-.059-1.543-6.543-3.582-2.562A41.418,41.418,0,0,0,126.175,171.023Z" transform="translate(-126.026 -158.535)" fill="#797df5"/>
            <path id="Path_613" data-name="Path 613" d="M141.681,167.912a.21.21,0,0,0-.044-.247l-1.252-1.235a3.7,3.7,0,0,0-1.121-.857,3.009,3.009,0,0,0-.61-.15,2.152,2.152,0,0,1-.631-.182c3.962-.96,7.72-1.423,9.377-.893a.118.118,0,0,0,.158-.12.219.219,0,0,0-.139-.215c-1.556-.5-4.937-.135-8.617.69l.027-.046a6.99,6.99,0,0,0,.8-2.879l.008-.124a2.293,2.293,0,0,1,.106-.688,1.6,1.6,0,0,1,.517-.606.185.185,0,0,0,.008-.239.149.149,0,0,0-.211-.059,1.78,1.78,0,0,0-.589.707,2.59,2.59,0,0,0-.127.791l-.008.122a6.662,6.662,0,0,1-.762,2.746l-.067.122c-.046.08-.091.16-.131.241l0,.013a51.363,51.363,0,0,0-9.4,3.1,3.194,3.194,0,0,0,.422-1.6,5.78,5.78,0,0,1,.146-.988,4.273,4.273,0,0,1,.568-1.136l1.2-1.885a.208.208,0,0,0-.046-.245.128.128,0,0,0-.205,0l-1.2,1.885a4.464,4.464,0,0,0-.6,1.212,6.1,6.1,0,0,0-.158,1.049,2.874,2.874,0,0,1-.391,1.488.559.559,0,0,0-.15.416,14.366,14.366,0,0,0-2.406,1.42.176.176,0,0,0-.027.215l.013.023a.152.152,0,0,0,.211.067,16.51,16.51,0,0,1,3.233-1.8.132.132,0,0,0,.129.027,1.835,1.835,0,0,1,1.648.431,10.129,10.129,0,0,1,.967.834c.207.194.414.388.629.57a2.928,2.928,0,0,0,1.872.859c.08,0,.127-.084.108-.181a.2.2,0,0,0-.181-.167,2.641,2.641,0,0,1-1.663-.779c-.209-.177-.41-.367-.612-.557a10.415,10.415,0,0,0-1.009-.867,2.992,2.992,0,0,0-1.083-.515,53.425,53.425,0,0,1,7.267-2.345,1.756,1.756,0,0,0,1.024.435,2.552,2.552,0,0,1,.549.135,3.392,3.392,0,0,1,1,.774l1.252,1.237A.13.13,0,0,0,141.681,167.912Z" transform="translate(-126.096 -157.184)" fill="#fff"/>
          </g>
        </g>
      </g>
      <g id="Group_285" data-name="Group 285" transform="translate(72.141 152.061)">
        <g id="Group_284" data-name="Group 284" transform="translate(0 0)">
          <g id="Group_281" data-name="Group 281" transform="translate(0 36.824)">
            <path id="Path_614" data-name="Path 614" d="M44.156,146.768l-.046,1.778-3.318-1.436,1.076-1.088Z" transform="translate(-39.84 -100.814)" fill="#e8a39c"/>
            <path id="Path_615" data-name="Path 615" d="M40.984,167.636l2.944.891,9.848-25.039-.64-21.255-9.219.965a111.6,111.6,0,0,0,2.368,19.219Z" transform="translate(-39.667 -122.234)" fill="#fff"/>
            <path id="Path_616" data-name="Path 616" d="M41.393,146.392a4.442,4.442,0,0,0-1.1,2.058c.264.511,6.855,1.619,6.946,1.167.049-.677-1.718-1.65-2.539-2.072A6.3,6.3,0,0,1,41.393,146.392Z" transform="translate(-40.291 -100.481)" fill="#4adfde"/>
          </g>
          <g id="Group_282" data-name="Group 282" transform="translate(18.911 0.237)">
            <path id="Path_617" data-name="Path 617" d="M68.933,105.574l-1.057,3.3-3.67,11.4c-1.769.992-5.576,1.277-9.242,1.608l-4.133-5.639,9.888.449,4.723-8.885,1.6-2.989Z" transform="translate(-49.712 -101.333)" fill="#e8a39c"/>
            <path id="Path_618" data-name="Path 618" d="M67.086,110.9l-2.364,5.9c-1.769.992-9.352,3.21-13.02,3.541l-1.46-8.86,10.394,1.041,1.948-3.409A28.426,28.426,0,0,1,67.086,110.9Z" transform="translate(-50.242 -97.47)" fill="#1e2f97"/>
            <path id="Path_619" data-name="Path 619" d="M59.59,106.463c-.931-1.294-.319-1.891.15-1.37.437-.494,0-1.847.58-2.072a.822.822,0,0,1,1.062.464,4.025,4.025,0,0,1,.756,2.11,8.1,8.1,0,0,1-.656,1.629Z" transform="translate(-42.262 -102.982)" fill="#e8a39c"/>
          </g>
          <path id="Path_620" data-name="Path 620" d="M45.2,110.644a6.292,6.292,0,0,0,1.849-3.656l3.105.846a6.436,6.436,0,0,0,0,4.306Z" transform="translate(-35.871 -99.138)" fill="#e8a39c"/>
          <path id="Path_621" data-name="Path 621" d="M46.113,111.823c-.27.536,4.892,1.359,5.46.722.458-.513,1.384-7.45-.306-9.069l-2.134-.236a3.9,3.9,0,0,0-4.139,5.057Z" transform="translate(-36.225 -102.535)" fill="#e8a39c"/>
          <g id="Group_283" data-name="Group 283" transform="translate(9.628 36.233)">
            <path id="Path_622" data-name="Path 622" d="M52.42,146.658l.311,1.751-3.538-.741.836-1.282Z" transform="translate(-41.903 -99.895)" fill="#e8a39c"/>
            <path id="Path_623" data-name="Path 623" d="M52.793,168.84l3.062.283,4.628-26.506-4.89-20.694-10.236,1.233a109.713,109.713,0,0,0,7.571,19.915Z" transform="translate(-45.357 -121.923)" fill="#fff"/>
            <path id="Path_624" data-name="Path 624" d="M49.552,146.847a4.441,4.441,0,0,0-.667,2.237c.361.449,7.039.211,7.039-.249-.086-.673-2.013-1.273-2.9-1.522A6.329,6.329,0,0,1,49.552,146.847Z" transform="translate(-42.193 -99.48)" fill="#4adfde"/>
          </g>
          <path id="Path_625" data-name="Path 625" d="M42.1,137.586c1.5,2.237,15,1.68,18.049-.635-1.747-6.494-.224-14.59-1.047-24.714-2.389-2.594-10.572-4.54-13.469-2.452C42.16,111.793,41.768,130.415,42.1,137.586Z" transform="translate(-38.75 -97.413)" fill="#1e2f97"/>
          <path id="Path_626" data-name="Path 626" d="M49.979,107.509c3.567-.182,5.03-1.27,3.55-2.972-2.115-2.429-3.324-1.895-7.378-.458-3.227,1.142-2.121,7.112.146,8.362,2.569,1.418,3.387.365,3.024-.846s-2.366-1.741-1.231-2.554,1.9,1.078,1.9,1.078l.464-.384S49.058,107.556,49.979,107.509Z" transform="translate(-36.826 -102.858)" fill="#051a2d"/>
        </g>
      </g>
      <g id="Group_294" data-name="Group 294" transform="translate(217.316 157.618)">
        <g id="Group_287" data-name="Group 287" transform="translate(5.527 30)">
          <g id="Group_286" data-name="Group 286" transform="translate(0 32.937)">
            <path id="Path_627" data-name="Path 627" d="M119.017,141.262a7.219,7.219,0,0,1-.074,3.3l3.5.2c-.023-1.69-.829-2.767-.781-3.961Z" transform="translate(-114.794 -140.802)" fill="#e8b685"/>
            <path id="Path_628" data-name="Path 628" d="M124.328,142.239c.724.736,1.19,2.372.471,2.763s-6.766,1.188-7.953.418c-.722-.469,3.307-3.1,4.31-2.906C123.112,142.895,124.442,142.53,124.328,142.239Z" transform="translate(-116.76 -139.508)" fill="#797df5"/>
          </g>
          <path id="Path_629" data-name="Path 629" d="M118.724,156.866c2.457.8,3.4.91,4.721.517l2.395-21.335c5.848-1.365,13.263-3.774,12.725-10.031l-5.7-2.547c-6.289,3.358-13.991,3.934-14.537,10.627Z" transform="translate(-115.348 -123.471)" fill="#fff"/>
        </g>
        <g id="Group_289" data-name="Group 289" transform="translate(16.073 26.131)">
          <g id="Group_288" data-name="Group 288" transform="translate(6.998 34.596)">
            <path id="Path_630" data-name="Path 630" d="M127.142,140.971a7.219,7.219,0,0,1,1.051,3.128l3.362-1c-.595-1.581-1.718-2.32-2.079-3.459Z" transform="translate(-124.954 -139.639)" fill="#e8b685"/>
            <path id="Path_631" data-name="Path 631" d="M132.1,140.865c.929.447,1.923,1.828,1.382,2.44s-5.96,3.417-7.338,3.1c-.838-.2,2.054-4.038,3.065-4.2C131.176,141.9,132.3,141.1,132.1,140.865Z" transform="translate(-125.991 -138.535)" fill="#797df5"/>
          </g>
          <path id="Path_632" data-name="Path 632" d="M130.7,157.65c2.585-.084,3.51-.3,4.616-1.117l-5-20.88c4.721-.293,11.066.7,9.479-6.98l-7.148-7.237c-4.772,5.3-11.821,8.457-10.061,14.936Z" transform="translate(-122.309 -121.435)" fill="#fff"/>
        </g>
        <g id="Group_290" data-name="Group 290" transform="translate(6.645 12.489)">
          <path id="Path_633" data-name="Path 633" d="M117.348,131.655l.952,1.492.074.122c.471-.247.948-.517,1.444-.758,3.216-1.693,6.728-3.546,9.21-5.184a17.789,17.789,0,0,0,1.95-1.46,4.452,4.452,0,0,0,1.328-1.558,3.092,3.092,0,0,0-.23-1.5,29.054,29.054,0,0,0-1.306-3.432,14.238,14.238,0,0,0-2.908-3.63c-1.889.572-2.746.334-2.735,2.628a28.806,28.806,0,0,0,1.418,3.25l.019.029c.152.219.306.435.441.621.019.03.036.061.061.067a10.272,10.272,0,0,0,.808.916l-3.5,2.782-5.393,4.306Z" transform="translate(-117.348 -112.913)" fill="#e8b685"/>
          <path id="Path_634" data-name="Path 634" d="M123.134,123s3.854-1.595,4.236-2.317c.454-.857-3.282-5.9-4.244-6.429a3.725,3.725,0,0,0-1.969,3.233C121.072,119.858,123.134,123,123.134,123Z" transform="translate(-113.92 -114.257)" fill="#4adfde"/>
        </g>
        <path id="Path_635" data-name="Path 635" d="M139.94,135.827c-3.018,3.356-16.125,1.608-16.384-.576,1.967-8.024.021-9.274-.933-13.564a23.374,23.374,0,0,1-.4-6.733,12.5,12.5,0,0,1,10.9-.416c3.575,5.382,5.561,11.418,6.712,20.474C139.881,135.291,139.9,135.547,139.94,135.827Z" transform="translate(-106.375 -102.463)" fill="#4adfde"/>
        <g id="Group_291" data-name="Group 291" transform="translate(13.47 0)">
          <path id="Path_636" data-name="Path 636" d="M123.486,115.763l.015-3.516,2.847-.171,1.927,3.278C127.333,116.179,124.9,117.044,123.486,115.763Z" transform="translate(-118.645 -103.732)" fill="#e8b685"/>
          <path id="Path_637" data-name="Path 637" d="M128.262,115.358a2.578,2.578,0,0,1-.711.468c-.125-.137-.268-.365-.449-.62a2.182,2.182,0,0,0-1.925-.737c-.545.015-1.135.135-1.688.118l.011-2.324,2.834-.19Z" transform="translate(-118.642 -103.735)" opacity="0.1"/>
          <path id="Path_638" data-name="Path 638" d="M129.229,109.16l-.034,6.992.006-.171c-1.655.754-2.37,2.415-4.85,2.024a8.449,8.449,0,0,1-2.227-4.289c-.226-.954-.43-1.946-.705-2.826l4.01-2.816Z" transform="translate(-120.507 -107.336)" fill="#e8b685"/>
          <path id="Path_639" data-name="Path 639" d="M129.274,109.388l-.08,6.764c-.4-.241-.627.059-.789-.424a2.45,2.45,0,0,0-.226-.633,1.718,1.718,0,0,0-.331-.352,6.318,6.318,0,0,0-2.163-1.431,5.155,5.155,0,0,0-3.563.4c-.226-.954-.43-1.946-.705-2.826l4.01-2.816Z" transform="translate(-120.507 -107.336)" opacity="0.1"/>
          <path id="Path_640" data-name="Path 640" d="M122.25,112.721c1.262.732,3.539.184,3.539.184l-.116,2.659.532.046s.363-2.577,1.212-2.129.49,1.672.249,2.294c-.342.88.694,1.988.694,1.988a4.536,4.536,0,0,0,3.018-3.58c.718-3.993-2.2-8.282-8.771-5.726C119.219,109.773,122,112.575,122.25,112.721Z" transform="translate(-120.939 -107.685)" fill="#12033e"/>
        </g>
        <g id="Group_292" data-name="Group 292" transform="translate(2.719 23.733)">
          <path id="Path_641" data-name="Path 641" d="M125.123,123.26l8.8,3.43a.912.912,0,0,1,.2,1.549l-6.232,4.284a.694.694,0,0,1-.716.042l-8.425-4.3a.911.911,0,0,1-.082-1.547l5.855-3.409A.685.685,0,0,1,125.123,123.26Z" transform="translate(-112.588 -117.438)" fill="#1e2f97"/>
          <path id="Path_642" data-name="Path 642" d="M129.876,134.426l-3.21-9.383a1.429,1.429,0,0,0-.8-.872l-10-3.966c-.372-.148-.707.258-.549.663l3.495,8.906a1.425,1.425,0,0,0,.715.781l9.766,4.5C129.663,135.226,130.018,134.838,129.876,134.426Z" transform="translate(-115.282 -120.174)" fill="#797df5"/>
          <path id="Path_643" data-name="Path 643" d="M118.45,124.161a2.2,2.2,0,0,0,1.418,1.543c.648.182,1.064-.211.929-.88a2.2,2.2,0,0,0-1.418-1.543C118.732,123.1,118.313,123.492,118.45,124.161Z" transform="translate(-112.452 -117.416)" fill="#f2f2f2"/>
        </g>
        <g id="Group_293" data-name="Group 293" transform="translate(0 8.442)">
          <path id="Path_644" data-name="Path 644" d="M140.625,118.434c-4.008,2.666-9.151,6.608-10.777,6.152-2.049-.7-9.086-6.142-14.538-10.078l1.334-1.655,12.974,6.883,5.787-3.375Z" transform="translate(-112.539 -111.475)" fill="#e8b685"/>
          <path id="Path_645" data-name="Path 645" d="M117.956,113.5s-.285-1.2-.908-1.365c-.57-.156-.038,1.188-.038,1.188-.146-.293-3.624-1.509-3.105-.188.057.144,1.874,2.06,2.718,2.02S117.956,113.5,117.956,113.5Z" transform="translate(-113.851 -112.127)" fill="#e8b685"/>
          <path id="Path_646" data-name="Path 646" d="M127.145,121.135s-3.331-2.908-3.415-3.685,4.219-3.155,4.219-3.155l5.1,2.839S129.14,120.741,127.145,121.135Z" transform="translate(-104.957 -110.176)" fill="#4adfde"/>
        </g>
      </g>
    </g>
  </g>
</svg>
