<svg xmlns="http://www.w3.org/2000/svg" width="49.809" height="40.47" viewBox="0 0 49.809 40.47">
  <g id="twitter" transform="translate(-31 230)">
    <g id="Group_103" data-name="Group 103" transform="translate(31 -230)">
      <path id="Path_234" data-name="Path 234" d="M49.809,52.791A21.29,21.29,0,0,1,43.925,54.4a10.154,10.154,0,0,0,4.492-5.644,20.407,20.407,0,0,1-6.475,2.472,10.211,10.211,0,0,0-17.663,6.983,10.514,10.514,0,0,0,.237,2.329A28.9,28.9,0,0,1,3.468,49.862,10.214,10.214,0,0,0,6.606,63.509a10.084,10.084,0,0,1-4.614-1.258v.112A10.258,10.258,0,0,0,10.173,72.4a10.191,10.191,0,0,1-2.677.336,9.028,9.028,0,0,1-1.933-.174A10.308,10.308,0,0,0,15.1,79.672,20.518,20.518,0,0,1,2.444,84.027,19.127,19.127,0,0,1,0,83.887,28.747,28.747,0,0,0,15.665,88.47c18.79,0,29.063-15.565,29.063-29.057,0-.451-.016-.887-.037-1.32A20.371,20.371,0,0,0,49.809,52.791Z" transform="translate(0 -48)" fill="#1654ff"/>
    </g>
  </g>
</svg>
